SplineFontDB: 3.0
FontName: WreatheSystem-Regular
FullName: Wreathe System
FamilyName: WreatheSystem
Weight: Book
Copyright: Version 1.0, 2 September 2013.
Version: 1.0
ItalicAngle: 0
UnderlinePosition: -145
UnderlineWidth: 79
Ascent: 800
Descent: 200
InvalidEm: 0
sfntRevision: 0x00010000
LayerCount: 2
Layer: 0 1 "Back" 1
Layer: 1 1 "Fore" 0
XUID: [1021 320 -1358596424 1590461]
StyleMap: 0x0040
FSType: 0
OS2Version: 3
OS2_WeightWidthSlopeOnly: 0
OS2_UseTypoMetrics: 0
CreationTime: 1289481132
ModificationTime: 1378147455
PfmFamily: 17
TTFWeight: 400
TTFWidth: 5
LineGap: 28
VLineGap: 0
Panose: 2 11 5 4 3 6 2 3 2 4
OS2TypoAscent: 776
OS2TypoAOffset: 0
OS2TypoDescent: -185
OS2TypoDOffset: 0
OS2TypoLinegap: 56
OS2WinAscent: 654
OS2WinAOffset: 0
OS2WinDescent: 302
OS2WinDOffset: 0
HheadAscent: 656
HheadAOffset: 0
HheadDescent: -302
HheadDOffset: 0
OS2SubXSize: 700
OS2SubYSize: 650
OS2SubXOff: 0
OS2SubYOff: 140
OS2SupXSize: 700
OS2SupYSize: 650
OS2SupXOff: 0
OS2SupYOff: 477
OS2StrikeYSize: 79
OS2StrikeYPos: 250
OS2CapHeight: 410
OS2XHeight: 337
OS2Vendor: 'DAMA'
OS2CodePages: 2000009f.56010000
OS2UnicodeRanges: e00002ff.5000205b.00000000.00000000
Lookup: 1 0 0 "'rtla' Right to Left Alternates lookup 0" { "'rtla' Right to Left Alternates lookup 0 subtable"  } ['rtla' ('DFLT' <'dflt' > ) ]
Lookup: 258 0 0 "'kern' Horizontal Kerning in Latin lookup 0" { "'kern' Horizontal Kerning in Latin lookup 0 subtable"  } ['kern' ('latn' <'dflt' > ) ]
Lookup: 258 0 0 "'kern' Horizontal Kerning in Latin lookup 1" { "'kern' Horizontal Kerning in Latin lookup 1 subtable"  } ['kern' ('DFLT' <'dflt' > 'latn' <'dflt' > ) ]
Lookup: 258 0 0 "'kern' Horizontal Kerning lookup 2" { "'kern' Horizontal Kerning lookup 2 subtable"  } ['kern' () ]
Lookup: 258 0 0 "'kern' Horizontal Kerning lookup 3" { "'kern' Horizontal Kerning lookup 3 subtable"  } ['kern' ('DFLT' <'dflt' > ) ]
Lookup: 258 0 0 "'kern' Horizontal Kerning lookup 4" { "'kern' Horizontal Kerning lookup 4 subtable"  } ['kern' () ]

StartChar: .notdef
Encoding: 65536 -1 0
Width: 484
Flags: W
LayerCount: 2
Fore
SplineSet
48 0 m 1,0,-1
 48 516 l 1,1,-1
 436 516 l 1,2,-1
 436 0 l 1,3,-1
 48 0 l 1,0,-1
96 48 m 1,4,-1
 388 48 l 1,5,-1
 388 468 l 1,6,-1
 96 468 l 1,7,-1
 96 48 l 1,4,-1
EndSplineSet
EndChar

StartChar: uni0001
Encoding: 1 1 4
Width: 790
Flags: W
LayerCount: 2
Fore
SplineSet
493 187 m 1,0,-1
 582 187 l 1,1,-1
 582 178 l 1,2,3
 566 178 566 178 562 174 c 0,4,5
 555 168 555 168 555 150 c 2,6,-1
 555 101 l 1,7,-1
 632 101 l 1,8,-1
 632 150 l 2,9,10
 632 169 632 169 622 175 c 0,11,12
 619 177 619 177 606 177 c 1,13,-1
 606 187 l 1,14,-1
 693 187 l 1,15,-1
 693 178 l 1,16,17
 672 178 672 178 668 164 c 0,18,19
 667 160 667 160 666.5 154 c 128,-1,20
 666 148 666 148 666.5 140.5 c 128,-1,21
 667 133 667 133 667 130 c 2,22,-1
 667 60 l 2,23,24
 667 57 667 57 666.5 48 c 128,-1,25
 666 39 666 39 666 32 c 128,-1,26
 666 25 666 25 668 20 c 0,27,28
 671 12 671 12 677 10 c 128,-1,29
 683 8 683 8 693 8 c 1,30,-1
 693 -2 l 1,31,-1
 606 -2 l 1,32,-1
 606 7 l 1,33,34
 619 7 619 7 623 10 c 0,35,36
 632 16 632 16 632 36 c 2,37,-1
 632 84 l 1,38,-1
 555 84 l 1,39,-1
 555 34 l 2,40,41
 555 16 555 16 563 10 c 0,42,43
 566 8 566 8 582 8 c 1,44,-1
 582 -2 l 1,45,-1
 493 -2 l 1,46,-1
 493 7 l 1,47,48
 514 7 514 7 518 20 c 0,49,50
 519 24 519 24 519.5 30 c 128,-1,51
 520 36 520 36 519.5 43.5 c 128,-1,52
 519 51 519 51 519 54 c 2,53,-1
 519 126 l 2,54,55
 519 129 519 129 520 138 c 128,-1,56
 521 147 521 147 520.5 154 c 128,-1,57
 520 161 520 161 518 165 c 0,58,59
 515 173 515 173 509.5 175 c 128,-1,60
 504 177 504 177 493 177 c 1,61,-1
 493 187 l 1,0,-1
389 386 m 0,62,63
 365 383 365 383 351 354 c 0,64,65
 329 311 329 311 349 266 c 0,66,67
 366 226 366 226 401 230 c 0,68,69
 425 233 425 233 439 261 c 0,70,71
 461 305 461 305 441 351 c 0,72,73
 434 368 434 368 420 378 c 128,-1,74
 406 388 406 388 389 386 c 0,62,63
386 403 m 0,75,76
 399 405 399 405 417 402 c 0,77,78
 451 396 451 396 469 367 c 128,-1,79
 487 338 487 338 486 305.5 c 128,-1,80
 485 273 485 273 465 245.5 c 128,-1,81
 445 218 445 218 411 213 c 0,82,83
 384 209 384 209 363 217 c 0,84,85
 332 228 332 228 316.5 258.5 c 128,-1,86
 301 289 301 289 306 323 c 128,-1,87
 311 357 311 357 333 380 c 0,88,89
 352 398 352 398 386 403 c 0,75,76
149 492 m 1,90,91
 152 455 152 455 181 447 c 0,92,93
 194 442 194 442 211.5 447 c 128,-1,94
 229 452 229 452 229.5 468.5 c 128,-1,95
 230 485 230 485 207 499 c 0,96,97
 201 503 201 503 186.5 510.5 c 128,-1,98
 172 518 172 518 162 525 c 128,-1,99
 152 532 152 532 144 541 c 0,100,101
 125 566 125 566 140 591 c 128,-1,102
 155 616 155 616 185 619 c 0,103,104
 199 620 199 620 212 616 c 2,105,-1
 219 613 l 2,106,107
 226 610 226 610 229.5 610 c 128,-1,108
 233 610 233 610 234.5 613.5 c 128,-1,109
 236 617 236 617 237 618 c 128,-1,110
 238 619 238 619 250 619 c 1,111,-1
 250 553 l 1,112,-1
 236 553 l 1,113,114
 231 589 231 589 210 598 c 0,115,116
 196 605 196 605 179 598.5 c 128,-1,117
 162 592 162 592 165 574 c 0,118,119
 167 561 167 561 193 545 c 0,120,121
 198 542 198 542 206 538 c 2,122,-1
 218 531 l 2,123,124
 224 528 224 528 231.5 523.5 c 128,-1,125
 239 519 239 519 243 515 c 2,126,-1
 252 506 l 2,127,128
 258 500 258 500 259 494 c 2,129,-1
 262 481 l 2,130,131
 263 473 263 473 259 465 c 0,132,133
 253 444 253 444 232.5 434.5 c 128,-1,134
 212 425 212 425 189 428 c 0,135,136
 186 428 186 428 180 430 c 2,137,-1
 170 434 l 2,138,139
 166 435 166 435 161 435.5 c 128,-1,140
 156 436 156 436 153 434 c 128,-1,141
 150 432 150 432 149 427 c 1,142,-1
 135 427 l 1,143,-1
 135 492 l 1,144,-1
 149 492 l 1,90,91
EndSplineSet
EndChar

StartChar: uni0002
Encoding: 2 2 5
Width: 790
Flags: W
LayerCount: 2
Fore
SplineSet
319 403 m 1,0,-1
 432 403 l 1,1,-1
 461 403 l 1,2,-1
 471 402 l 1,3,-1
 476 389 l 1,4,-1
 486 352 l 1,5,6
 474 352 474 352 473 353 c 2,7,-1
 467 362 l 2,8,9
 459 378 459 378 453 382 c 0,10,11
 449 385 449 385 442 386 c 128,-1,12
 435 387 435 387 425 386 c 128,-1,13
 415 385 415 385 413 385 c 2,14,-1
 413 285 l 2,15,16
 413 281 413 281 412.5 270.5 c 128,-1,17
 412 260 412 260 412 252 c 128,-1,18
 412 244 412 244 414 237 c 0,19,20
 418 223 418 223 439 223 c 1,21,-1
 439 213 l 1,22,-1
 352 213 l 1,23,-1
 352 223 l 1,24,25
 374 223 374 223 377 238 c 0,26,27
 378 244 378 244 378.5 252.5 c 128,-1,28
 379 261 379 261 378.5 271 c 128,-1,29
 378 281 378 281 378 286 c 2,30,-1
 378 385 l 2,31,32
 376 385 376 385 366 386 c 128,-1,33
 356 387 356 387 350 386 c 0,34,35
 343 384 343 384 338 382 c 0,36,37
 331 378 331 378 324 362 c 0,38,39
 319 353 319 353 318 353 c 0,40,41
 317 352 317 352 305 352 c 1,42,-1
 319 403 l 1,0,-1
500 187 m 1,43,-1
 589 187 l 1,44,-1
 589 178 l 1,45,46
 577 178 577 178 574 175 c 0,47,48
 568 170 568 170 575 158 c 0,49,50
 576 157 576 157 585.5 141.5 c 128,-1,51
 595 126 595 126 598 118 c 1,52,-1
 599 118 l 1,53,54
 602 126 602 126 613 139 c 128,-1,55
 624 152 624 152 627 159 c 0,56,57
 633 171 633 171 629 175 c 0,58,59
 627 176 627 176 615 177 c 1,60,-1
 615 187 l 1,61,-1
 690 187 l 1,62,-1
 690 178 l 1,63,64
 681 178 681 178 673 175 c 128,-1,65
 665 172 665 172 658.5 165 c 128,-1,66
 652 158 652 158 648 153 c 128,-1,67
 644 148 644 148 637 137.5 c 128,-1,68
 630 127 630 127 627 123 c 0,69,70
 626 122 626 122 621.5 116.5 c 128,-1,71
 617 111 617 111 614 106.5 c 128,-1,72
 611 102 611 102 611 99 c 0,73,74
 611 95 611 95 614 89.5 c 128,-1,75
 617 84 617 84 621.5 77.5 c 128,-1,76
 626 71 626 71 627 70 c 2,77,-1
 649 33 l 2,78,79
 660 14 660 14 668 10 c 0,80,81
 671 9 671 9 686 8 c 1,82,-1
 686 -2 l 1,83,-1
 598 -2 l 1,84,-1
 598 7 l 1,85,86
 610 7 610 7 612 9 c 0,87,88
 618 14 618 14 611 27 c 0,89,90
 610 28 610 28 600.5 43.5 c 128,-1,91
 591 59 591 59 589 67 c 1,92,-1
 587 67 l 1,93,94
 584 58 584 58 572.5 43 c 128,-1,95
 561 28 561 28 560 27 c 0,96,97
 552 15 552 15 558 9 c 0,98,99
 560 8 560 8 571 8 c 1,100,-1
 571 -2 l 1,101,-1
 497 -2 l 1,102,-1
 497 7 l 1,103,104
 506 7 506 7 513.5 10 c 128,-1,105
 521 13 521 13 528 20 c 2,106,-1
 539 32 l 2,107,108
 543 37 543 37 550 48 c 2,109,-1
 560 62 l 2,110,111
 561 64 561 64 565.5 69 c 128,-1,112
 570 74 570 74 573 78 c 128,-1,113
 576 82 576 82 576 86 c 0,114,115
 576 88 576 88 572 94 c 2,116,-1
 560 114 l 1,117,-1
 538 153 l 2,118,119
 528 171 528 171 518 176 c 0,120,121
 515 177 515 177 500 177 c 1,122,-1
 500 187 l 1,43,-1
149 492 m 1,123,124
 152 455 152 455 181 447 c 0,125,126
 194 442 194 442 211.5 447 c 128,-1,127
 229 452 229 452 229.5 468.5 c 128,-1,128
 230 485 230 485 207 499 c 0,129,130
 201 503 201 503 186.5 510.5 c 128,-1,131
 172 518 172 518 162 525 c 128,-1,132
 152 532 152 532 144 541 c 0,133,134
 125 566 125 566 140 591 c 128,-1,135
 155 616 155 616 185 619 c 0,136,137
 199 620 199 620 212 616 c 2,138,-1
 219 613 l 2,139,140
 226 610 226 610 229.5 610 c 128,-1,141
 233 610 233 610 234.5 613.5 c 128,-1,142
 236 617 236 617 237 618 c 128,-1,143
 238 619 238 619 250 619 c 1,144,-1
 250 553 l 1,145,-1
 236 553 l 1,146,147
 231 589 231 589 210 598 c 0,148,149
 196 605 196 605 179 598.5 c 128,-1,150
 162 592 162 592 165 574 c 0,151,152
 167 561 167 561 193 545 c 0,153,154
 198 542 198 542 206 538 c 2,155,-1
 218 531 l 2,156,157
 224 528 224 528 231.5 523.5 c 128,-1,158
 239 519 239 519 243 515 c 2,159,-1
 252 506 l 2,160,161
 258 500 258 500 259 494 c 2,162,-1
 262 481 l 2,163,164
 263 473 263 473 259 465 c 0,165,166
 253 444 253 444 232.5 434.5 c 128,-1,167
 212 425 212 425 189 428 c 0,168,169
 186 428 186 428 180 430 c 2,170,-1
 170 434 l 2,171,172
 166 435 166 435 161 435.5 c 128,-1,173
 156 436 156 436 153 434 c 128,-1,174
 150 432 150 432 149 427 c 1,175,-1
 135 427 l 1,176,-1
 135 492 l 1,177,-1
 149 492 l 1,123,124
EndSplineSet
EndChar

StartChar: uni0003
Encoding: 3 3 6
Width: 790
Flags: W
LayerCount: 2
Fore
SplineSet
319 403 m 1,0,-1
 432 403 l 1,1,-1
 461 403 l 1,2,-1
 471 402 l 1,3,-1
 476 389 l 1,4,-1
 486 352 l 1,5,6
 474 352 474 352 473 353 c 2,7,-1
 467 362 l 2,8,9
 459 378 459 378 453 382 c 0,10,11
 449 385 449 385 442 386 c 128,-1,12
 435 387 435 387 425 386 c 128,-1,13
 415 385 415 385 413 385 c 2,14,-1
 413 285 l 2,15,16
 413 281 413 281 412.5 270.5 c 128,-1,17
 412 260 412 260 412 252 c 128,-1,18
 412 244 412 244 414 237 c 0,19,20
 418 223 418 223 439 223 c 1,21,-1
 439 213 l 1,22,-1
 352 213 l 1,23,-1
 352 223 l 1,24,25
 374 223 374 223 377 238 c 0,26,27
 378 244 378 244 378.5 252.5 c 128,-1,28
 379 261 379 261 378.5 271 c 128,-1,29
 378 281 378 281 378 286 c 2,30,-1
 378 385 l 2,31,32
 376 385 376 385 366 386 c 128,-1,33
 356 387 356 387 350 386 c 0,34,35
 343 384 343 384 338 382 c 0,36,37
 331 378 331 378 324 362 c 0,38,39
 319 353 319 353 318 353 c 0,40,41
 317 352 317 352 305 352 c 1,42,-1
 319 403 l 1,0,-1
501 187 m 1,43,-1
 589 187 l 1,44,-1
 589 178 l 1,45,46
 576 178 576 178 574 175 c 0,47,48
 570 170 570 170 576 158 c 0,49,50
 577 157 577 157 586 141.5 c 128,-1,51
 595 126 595 126 598 118 c 1,52,-1
 599 118 l 1,53,54
 602 126 602 126 613 139.5 c 128,-1,55
 624 153 624 153 627 158 c 0,56,57
 634 171 634 171 630 175 c 0,58,59
 629 176 629 176 615 177 c 1,60,-1
 615 187 l 1,61,-1
 691 187 l 1,62,-1
 691 178 l 1,63,64
 682 178 682 178 674 175 c 128,-1,65
 666 172 666 172 659 165 c 128,-1,66
 652 158 652 158 648.5 153.5 c 128,-1,67
 645 149 645 149 638 138 c 2,68,-1
 628 124 l 2,69,70
 627 122 627 122 622 116.5 c 128,-1,71
 617 111 617 111 614 106.5 c 128,-1,72
 611 102 611 102 611 99 c 0,73,74
 611 95 611 95 614 89.5 c 128,-1,75
 617 84 617 84 621.5 77.5 c 128,-1,76
 626 71 626 71 627 70 c 2,77,-1
 649 33 l 2,78,79
 660 14 660 14 668 10 c 0,80,81
 671 9 671 9 686 8 c 1,82,-1
 686 -2 l 1,83,-1
 598 -2 l 1,84,-1
 598 7 l 1,85,86
 610 7 610 7 612 9 c 0,87,88
 618 14 618 14 611 27 c 0,89,90
 610 28 610 28 600.5 43.5 c 128,-1,91
 591 59 591 59 589 67 c 1,92,-1
 587 67 l 1,93,94
 584 58 584 58 572.5 43 c 128,-1,95
 561 28 561 28 560 27 c 0,96,97
 552 15 552 15 558 9 c 0,98,99
 560 8 560 8 571 8 c 1,100,-1
 571 -2 l 1,101,-1
 497 -2 l 1,102,-1
 497 7 l 1,103,104
 506 7 506 7 513.5 10 c 128,-1,105
 521 13 521 13 528 20 c 2,106,-1
 539 32 l 2,107,108
 543 37 543 37 550 48 c 2,109,-1
 560 62 l 2,110,111
 561 64 561 64 565.5 69 c 128,-1,112
 570 74 570 74 573 78 c 128,-1,113
 576 82 576 82 576 85.5 c 128,-1,114
 576 89 576 89 573.5 94 c 128,-1,115
 571 99 571 99 566.5 105.5 c 128,-1,116
 562 112 562 112 561 114 c 2,117,-1
 538 153 l 2,118,119
 528 171 528 171 518 176 c 0,120,121
 515 177 515 177 501 177 c 1,122,-1
 501 187 l 1,43,-1
111 618 m 1,123,-1
 229 618 l 1,124,-1
 258 618 l 1,125,-1
 270 617 l 1,126,-1
 275 603 l 1,127,-1
 286 567 l 1,128,129
 273 567 273 567 271 568 c 2,130,-1
 266 578 l 2,131,132
 256 597 256 597 249 599 c 0,133,134
 246 600 246 600 224 600 c 2,135,-1
 172 600 l 1,136,-1
 172 532 l 1,137,-1
 213 532 l 2,138,139
 229 532 229 532 235 541 c 0,140,141
 238 545 238 545 237 558 c 1,142,-1
 251 558 l 1,143,-1
 251 488 l 1,144,-1
 237 488 l 1,145,146
 237 501 237 501 235 506 c 0,147,148
 229 515 229 515 213 514 c 2,149,-1
 172 514 l 1,150,-1
 172 446 l 1,151,-1
 224 446 l 2,152,153
 246 446 246 446 249 447 c 0,154,155
 257 450 257 450 266 469 c 2,156,-1
 271 478 l 2,157,158
 272 479 272 479 285 479 c 1,159,-1
 274 443 l 1,160,-1
 269 429 l 1,161,-1
 258 428 l 1,162,-1
 228 428 l 1,163,-1
 111 428 l 1,164,-1
 111 438 l 1,165,166
 131 438 131 438 136 451 c 0,167,168
 138 456 138 456 138 462.5 c 128,-1,169
 138 469 138 469 137.5 478.5 c 128,-1,170
 137 488 137 488 137 491 c 2,171,-1
 137 562 l 2,172,173
 137 564 137 564 137.5 572 c 128,-1,174
 138 580 138 580 137.5 585.5 c 128,-1,175
 137 591 137 591 136 595 c 0,176,177
 133 603 133 603 127 605.5 c 128,-1,178
 121 608 121 608 111 608 c 1,179,-1
 111 618 l 1,123,-1
EndSplineSet
EndChar

StartChar: uni0004
Encoding: 4 4 7
Width: 790
Flags: W
LayerCount: 2
Fore
SplineSet
517 187 m 1,0,-1
 629 187 l 1,1,-1
 658 187 l 1,2,-1
 669 186 l 1,3,-1
 674 173 l 1,4,-1
 684 136 l 1,5,6
 672 136 672 136 670 137 c 2,7,-1
 665 147 l 2,8,9
 657 163 657 163 650 167 c 0,10,11
 646 170 646 170 639.5 170.5 c 128,-1,12
 633 171 633 171 623 170.5 c 128,-1,13
 613 170 613 170 611 170 c 2,14,-1
 611 70 l 2,15,16
 611 66 611 66 610 55.5 c 128,-1,17
 609 45 609 45 609.5 36.5 c 128,-1,18
 610 28 610 28 612 22 c 0,19,20
 616 8 616 8 637 8 c 1,21,-1
 637 -2 l 1,22,-1
 549 -2 l 1,23,-1
 549 7 l 1,24,25
 571 7 571 7 575 23 c 0,26,27
 576 29 576 29 576.5 37 c 128,-1,28
 577 45 577 45 576.5 55.5 c 128,-1,29
 576 66 576 66 576 70 c 2,30,-1
 576 170 l 2,31,32
 574 170 574 170 564 170.5 c 128,-1,33
 554 171 554 171 547 170.5 c 128,-1,34
 540 170 540 170 536 167 c 0,35,36
 529 163 529 163 521 147 c 0,37,38
 516 138 516 138 516 137 c 0,39,40
 515 136 515 136 503 136 c 1,41,-1
 517 187 l 1,0,-1
389 386 m 0,42,43
 365 383 365 383 351 354 c 0,44,45
 329 311 329 311 349 266 c 0,46,47
 366 226 366 226 401 230 c 0,48,49
 425 233 425 233 439 261 c 0,50,51
 461 305 461 305 441 351 c 0,52,53
 434 368 434 368 420 378 c 128,-1,54
 406 388 406 388 389 386 c 0,42,43
386 403 m 0,55,56
 399 405 399 405 417 402 c 0,57,58
 451 396 451 396 469 367 c 128,-1,59
 487 338 487 338 486 305.5 c 128,-1,60
 485 273 485 273 465 245.5 c 128,-1,61
 445 218 445 218 411 213 c 0,62,63
 384 209 384 209 363 217 c 0,64,65
 332 228 332 228 316.5 258.5 c 128,-1,66
 301 289 301 289 306 323 c 128,-1,67
 311 357 311 357 333 380 c 0,68,69
 352 398 352 398 386 403 c 0,55,56
111 618 m 1,70,-1
 229 618 l 1,71,-1
 258 618 l 1,72,-1
 270 617 l 1,73,-1
 275 603 l 1,74,-1
 286 567 l 1,75,76
 273 567 273 567 271 568 c 2,77,-1
 266 578 l 2,78,79
 256 597 256 597 249 599 c 0,80,81
 246 600 246 600 224 600 c 2,82,-1
 172 600 l 1,83,-1
 172 532 l 1,84,-1
 213 532 l 2,85,86
 229 532 229 532 235 541 c 0,87,88
 238 545 238 545 237 558 c 1,89,-1
 251 558 l 1,90,-1
 251 488 l 1,91,-1
 237 488 l 1,92,93
 237 501 237 501 235 506 c 0,94,95
 229 515 229 515 213 514 c 2,96,-1
 172 514 l 1,97,-1
 172 446 l 1,98,-1
 224 446 l 2,99,100
 246 446 246 446 249 447 c 0,101,102
 257 450 257 450 266 469 c 2,103,-1
 271 478 l 2,104,105
 272 479 272 479 285 479 c 1,106,-1
 274 443 l 1,107,-1
 269 429 l 1,108,-1
 258 428 l 1,109,-1
 228 428 l 1,110,-1
 111 428 l 1,111,-1
 111 438 l 1,112,113
 131 438 131 438 136 451 c 0,114,115
 138 456 138 456 138 462.5 c 128,-1,116
 138 469 138 469 137.5 478.5 c 128,-1,117
 137 488 137 488 137 491 c 2,118,-1
 137 562 l 2,119,120
 137 564 137 564 137.5 572 c 128,-1,121
 138 580 138 580 137.5 585.5 c 128,-1,122
 137 591 137 591 136 595 c 0,123,124
 133 603 133 603 127 605.5 c 128,-1,125
 121 608 121 608 111 608 c 1,126,-1
 111 618 l 1,70,-1
EndSplineSet
EndChar

StartChar: uni0005
Encoding: 5 5 8
Width: 790
Flags: W
LayerCount: 2
Fore
SplineSet
606 20 m 1,0,1
 602 33 602 33 587.5 37.5 c 128,-1,2
 573 42 573 42 567 28 c 1,3,-1
 553 35 l 1,4,5
 559 50 559 50 575.5 55 c 128,-1,6
 592 60 592 60 606 52 c 0,7,8
 609 50 609 50 614.5 45 c 128,-1,9
 620 40 620 40 623 38 c 1,10,11
 652 92 652 92 627 140 c 0,12,13
 615 163 615 163 593 169.5 c 128,-1,14
 571 176 571 176 552 157 c 0,15,16
 535 138 535 138 530 109.5 c 128,-1,17
 525 81 525 81 535 57 c 0,18,19
 552 11 552 11 592 15 c 0,20,21
 595 15 595 15 606 20 c 1,0,1
287 403 m 1,22,-1
 325 403 l 1,23,-1
 342 402 l 1,24,-1
 353 390 l 1,25,-1
 377 361 l 1,26,-1
 455 270 l 1,27,-1
 455 348 l 2,28,29
 455 350 455 350 455.5 358.5 c 128,-1,30
 456 367 456 367 455.5 372.5 c 128,-1,31
 455 378 455 378 453 382 c 128,-1,32
 451 386 451 386 449 388.5 c 128,-1,33
 447 391 447 391 442.5 391.5 c 128,-1,34
 438 392 438 392 436 392 c 2,35,-1
 429 392 l 1,36,-1
 429 403 l 1,37,-1
 504 403 l 1,38,-1
 504 393 l 1,39,40
 492 393 492 393 489 391 c 0,41,42
 485 389 485 389 482 385.5 c 128,-1,43
 479 382 479 382 478.5 376.5 c 128,-1,44
 478 371 478 371 477.5 367 c 128,-1,45
 477 363 477 363 477.5 356.5 c 128,-1,46
 478 350 478 350 478 348 c 2,47,-1
 478 213 l 1,48,49
 459 213 459 213 457 214 c 0,50,51
 453 216 453 216 448.5 221 c 128,-1,52
 444 226 444 226 439 233 c 128,-1,53
 434 240 434 240 432 242 c 2,54,-1
 374 310 l 1,55,-1
 364 320 l 2,56,57
 357 327 357 327 352 333.5 c 128,-1,58
 347 340 347 340 345 346 c 1,59,-1
 344 346 l 1,60,-1
 344 268 l 2,61,62
 344 266 344 266 343.5 257.5 c 128,-1,63
 343 249 343 249 343.5 243.5 c 128,-1,64
 344 238 344 238 346 234 c 0,65,66
 350 227 350 227 355 225 c 128,-1,67
 360 223 360 223 370 223 c 1,68,-1
 370 213 l 1,69,-1
 295 213 l 1,70,-1
 295 223 l 1,71,72
 316 223 316 223 321 237 c 0,73,74
 322 239 322 239 322 270 c 2,75,-1
 322 339 l 2,76,77
 322 342 322 342 322.5 350 c 128,-1,78
 323 358 323 358 323 364.5 c 128,-1,79
 323 371 323 371 321 375 c 0,80,81
 312 393 312 393 287 392 c 1,82,-1
 287 403 l 1,22,-1
693 2 m 1,83,84
 686 -13 686 -13 669 -17.5 c 128,-1,85
 652 -22 652 -22 638 -13 c 0,86,87
 636 -12 636 -12 629.5 -5 c 128,-1,88
 623 2 623 2 619.5 2.5 c 128,-1,89
 616 3 616 3 608 0.5 c 128,-1,90
 600 -2 600 -2 598 -2 c 0,91,92
 574 -5 574 -5 554 1 c 0,93,94
 527 10 527 10 510.5 35 c 128,-1,95
 494 60 494 60 493.5 87.5 c 128,-1,96
 493 115 493 115 505 142 c 0,97,98
 523 176 523 176 562.5 186 c 128,-1,99
 602 196 602 196 635 174 c 0,100,101
 667 152 667 152 673 107 c 0,102,103
 678 73 678 73 662 42 c 0,104,105
 657 33 657 33 648 23 c 0,106,107
 642 16 642 16 642 14 c 0,108,109
 644 2 644 2 658.5 0.5 c 128,-1,110
 673 -1 673 -1 679 9 c 1,111,-1
 693 2 l 1,83,84
111 618 m 1,112,-1
 229 618 l 1,113,-1
 258 618 l 1,114,-1
 270 617 l 1,115,-1
 275 603 l 1,116,-1
 286 567 l 1,117,118
 273 567 273 567 271 568 c 2,119,-1
 266 578 l 2,120,121
 256 597 256 597 249 599 c 0,122,123
 246 600 246 600 224 600 c 2,124,-1
 172 600 l 1,125,-1
 172 532 l 1,126,-1
 213 532 l 2,127,128
 229 532 229 532 235 541 c 0,129,130
 238 545 238 545 237 558 c 1,131,-1
 251 558 l 1,132,-1
 251 488 l 1,133,-1
 237 488 l 1,134,135
 237 501 237 501 235 506 c 0,136,137
 229 515 229 515 213 514 c 2,138,-1
 172 514 l 1,139,-1
 172 446 l 1,140,-1
 224 446 l 2,141,142
 246 446 246 446 249 447 c 0,143,144
 257 450 257 450 266 469 c 2,145,-1
 271 478 l 2,146,147
 272 479 272 479 285 479 c 1,148,-1
 274 443 l 1,149,-1
 269 429 l 1,150,-1
 258 428 l 1,151,-1
 228 428 l 1,152,-1
 111 428 l 1,153,-1
 111 438 l 1,154,155
 131 438 131 438 136 451 c 0,156,157
 138 456 138 456 138 462.5 c 128,-1,158
 138 469 138 469 137.5 478.5 c 128,-1,159
 137 488 137 488 137 491 c 2,160,-1
 137 562 l 2,161,162
 137 564 137 564 137.5 572 c 128,-1,163
 138 580 138 580 137.5 585.5 c 128,-1,164
 137 591 137 591 136 595 c 0,165,166
 133 603 133 603 127 605.5 c 128,-1,167
 121 608 121 608 111 608 c 1,168,-1
 111 618 l 1,112,-1
EndSplineSet
EndChar

StartChar: uni0006
Encoding: 6 6 9
Width: 790
Flags: W
LayerCount: 2
Fore
SplineSet
469 254 m 1,0,1
 474 245 474 245 475 245 c 1,2,3
 475 242 475 242 463 232 c 0,4,5
 442 214 442 214 417 212 c 0,6,7
 381 210 381 210 353.5 231 c 128,-1,8
 326 252 326 252 318.5 283.5 c 128,-1,9
 311 315 311 315 324 350 c 0,10,11
 335 375 335 375 358 389.5 c 128,-1,12
 381 404 381 404 409 404 c 0,13,14
 424 404 424 404 434 400 c 0,15,16
 435 399 435 399 439 398 c 2,17,-1
 446 395 l 2,18,19
 448 394 448 394 451 394 c 0,20,21
 457 395 457 395 457 404 c 1,22,-1
 471 404 l 1,23,-1
 471 339 l 1,24,-1
 457 339 l 1,25,26
 457 368 457 368 429.5 380.5 c 128,-1,27
 402 393 402 393 380 375 c 0,28,29
 358 358 358 358 352 327 c 128,-1,30
 346 296 346 296 358 271 c 0,31,32
 367 250 367 250 383.5 238.5 c 128,-1,33
 400 227 400 227 421 230 c 0,34,35
 439 233 439 233 453 242 c 0,36,37
 455 243 455 243 460.5 247.5 c 128,-1,38
 466 252 466 252 469 254 c 1,0,1
491 187 m 1,39,-1
 580 187 l 1,40,-1
 580 178 l 1,41,42
 565 178 565 178 561 174 c 0,43,44
 554 168 554 168 554 150 c 2,45,-1
 554 101 l 1,46,-1
 602 150 l 2,47,48
 620 168 620 168 621 177 c 1,49,-1
 606 177 l 1,50,-1
 606 187 l 1,51,-1
 682 187 l 1,52,-1
 682 178 l 1,53,54
 667 178 667 178 657 171.5 c 128,-1,55
 647 165 647 165 633 151 c 2,56,-1
 617 134 l 1,57,-1
 598 114 l 2,58,59
 589 106 589 106 580 99 c 1,60,61
 590 92 590 92 600.5 81.5 c 128,-1,62
 611 71 611 71 623.5 57 c 128,-1,63
 636 43 636 43 642 37 c 2,64,-1
 648 31 l 1,65,-1
 656 24 l 2,66,67
 658 21 658 21 662 17.5 c 128,-1,68
 666 14 666 14 670 12 c 128,-1,69
 674 10 674 10 679 9 c 0,70,71
 681 8 681 8 695 8 c 1,72,-1
 695 -2 l 1,73,-1
 606 -2 l 1,74,-1
 606 7 l 1,75,-1
 620 8 l 1,76,77
 616 17 616 17 608 25.5 c 128,-1,78
 600 34 600 34 588 44.5 c 128,-1,79
 576 55 576 55 572 59 c 2,80,-1
 570 62 l 1,81,-1
 566 66 l 1,82,-1
 562 70 l 2,83,84
 560 72 560 72 558 72.5 c 128,-1,85
 556 73 556 73 555 73 c 0,86,87
 553 72 553 72 553 67.5 c 128,-1,88
 553 63 553 63 553.5 57 c 128,-1,89
 554 51 554 51 554 50 c 0,90,91
 554 48 554 48 553.5 42 c 128,-1,92
 553 36 553 36 553 32 c 128,-1,93
 553 28 553 28 554 23 c 128,-1,94
 555 18 555 18 557.5 14.5 c 128,-1,95
 560 11 560 11 564 9 c 0,96,97
 566 8 566 8 580 8 c 1,98,-1
 580 -2 l 1,99,-1
 491 -2 l 1,100,-1
 491 7 l 1,101,102
 512 7 512 7 517 20 c 0,103,104
 518 24 518 24 518.5 30 c 128,-1,105
 519 36 519 36 518.5 43.5 c 128,-1,106
 518 51 518 51 518 54 c 2,107,-1
 518 126 l 2,108,109
 518 129 518 129 518.5 138 c 128,-1,110
 519 147 519 147 518.5 154 c 128,-1,111
 518 161 518 161 516 165 c 0,112,113
 513 173 513 173 507.5 175 c 128,-1,114
 502 177 502 177 491 177 c 1,115,-1
 491 187 l 1,39,-1
189 567 m 1,116,-1
 165 509 l 1,117,-1
 214 509 l 1,118,-1
 191 567 l 1,119,-1
 189 567 l 1,116,-1
89 438 m 1,120,121
 101 438 101 438 109 444 c 128,-1,122
 117 450 117 450 120.5 456 c 128,-1,123
 124 462 124 462 130 476 c 2,124,-1
 171 574 l 1,125,-1
 184 607 l 2,126,127
 188 618 188 618 191 618 c 0,128,129
 195 621 195 621 199 619 c 128,-1,130
 203 617 203 617 205 617 c 128,-1,131
 207 617 207 617 209.5 612.5 c 128,-1,132
 212 608 212 608 213 606.5 c 128,-1,133
 214 605 214 605 216 599.5 c 128,-1,134
 218 594 218 594 219 593 c 2,135,-1
 258 499 l 1,136,-1
 271 468 l 2,137,138
 275 459 275 459 273 457 c 0,139,140
 282 439 282 439 307 439 c 1,141,-1
 307 428 l 1,142,-1
 218 428 l 1,143,-1
 218 438 l 1,144,145
 228 438 228 438 230 439 c 0,146,147
 234 440 234 440 236 443 c 128,-1,148
 238 446 238 446 237 450.5 c 128,-1,149
 236 455 236 455 235 458 c 2,150,-1
 232 467 l 1,151,-1
 229 473 l 2,152,153
 229 474 229 474 227 478.5 c 128,-1,154
 225 483 225 483 224 485.5 c 128,-1,155
 223 488 223 488 220.5 490 c 128,-1,156
 218 492 218 492 215 492 c 2,157,-1
 175 492 l 2,158,159
 161 492 161 492 160 491 c 0,160,161
 159 491 159 491 154 479 c 0,162,163
 153 478 153 478 150.5 472.5 c 128,-1,164
 148 467 148 467 147 464 c 128,-1,165
 146 461 146 461 144.5 456 c 128,-1,166
 143 451 143 451 144 447 c 128,-1,167
 145 443 145 443 148 441 c 0,168,169
 150 439 150 439 164 439 c 1,170,-1
 164 428 l 1,171,-1
 89 428 l 1,172,-1
 89 438 l 1,120,121
EndSplineSet
EndChar

StartChar: uni0007
Encoding: 7 7 10
Width: 790
Flags: W
LayerCount: 2
Fore
SplineSet
308 403 m 1,0,-1
 426 403 l 1,1,-1
 456 403 l 1,2,-1
 468 402 l 1,3,-1
 472 389 l 1,4,-1
 483 352 l 1,5,6
 471 352 471 352 469 353 c 2,7,-1
 464 362 l 2,8,9
 454 381 454 381 446 384 c 0,10,11
 443 385 443 385 422 385 c 2,12,-1
 370 385 l 1,13,-1
 370 317 l 1,14,-1
 410 317 l 2,15,16
 426 317 426 317 432 324 c 0,17,18
 435 328 435 328 435 343 c 1,19,-1
 449 343 l 1,20,-1
 449 273 l 1,21,-1
 435 273 l 1,22,23
 435 287 435 287 432 291 c 0,24,25
 426 299 426 299 410 299 c 2,26,-1
 370 299 l 1,27,-1
 370 230 l 1,28,-1
 422 230 l 2,29,30
 444 230 444 230 446 232 c 0,31,32
 454 235 454 235 464 253 c 0,33,34
 469 262 469 262 469 263 c 0,35,36
 470 264 470 264 483 264 c 1,37,-1
 472 227 l 1,38,-1
 468 214 l 1,39,-1
 456 213 l 1,40,-1
 426 213 l 1,41,-1
 308 213 l 1,42,-1
 308 223 l 1,43,44
 329 223 329 223 334 237 c 0,45,46
 335 241 335 241 335.5 246.5 c 128,-1,47
 336 252 336 252 335.5 259.5 c 128,-1,48
 335 267 335 267 335 270 c 2,49,-1
 335 340 l 2,50,51
 335 343 335 343 335.5 352.5 c 128,-1,52
 336 362 336 362 335.5 368.5 c 128,-1,53
 335 375 335 375 334 380 c 0,54,55
 331 388 331 388 325 390 c 128,-1,56
 319 392 319 392 308 392 c 1,57,-1
 308 403 l 1,0,-1
506 187 m 1,58,-1
 594 187 l 1,59,-1
 594 178 l 1,60,61
 572 178 572 178 568 162 c 0,62,63
 567 156 567 156 567 147.5 c 128,-1,64
 567 139 567 139 567.5 129 c 128,-1,65
 568 119 568 119 568 114 c 2,66,-1
 568 15 l 1,67,-1
 620 15 l 2,68,69
 642 15 642 15 644 16 c 0,70,71
 652 19 652 19 662 38 c 0,72,73
 667 47 667 47 667 48 c 0,74,75
 668 49 668 49 680 49 c 1,76,-1
 670 12 l 1,77,-1
 665 -1 l 1,78,-1
 653 -2 l 1,79,-1
 622 -2 l 1,80,-1
 506 -2 l 1,81,-1
 506 7 l 1,82,83
 527 7 527 7 532 21 c 0,84,85
 533 25 533 25 533.5 31 c 128,-1,86
 534 37 534 37 533.5 44.5 c 128,-1,87
 533 52 533 52 533 55 c 2,88,-1
 533 125 l 2,89,90
 533 128 533 128 533.5 137 c 128,-1,91
 534 146 534 146 533.5 153 c 128,-1,92
 533 160 533 160 531 165 c 0,93,94
 528 173 528 173 522.5 175 c 128,-1,95
 517 177 517 177 506 177 c 1,96,-1
 506 187 l 1,58,-1
173 535 m 1,97,98
 199 532 199 532 207 532 c 0,99,100
 219 534 219 534 228 538 c 0,101,102
 241 545 241 545 243 562 c 128,-1,103
 245 579 245 579 235 589 c 0,104,105
 224 600 224 600 198 600 c 0,106,107
 177 600 177 600 174 596 c 0,108,109
 173 595 173 595 173 579 c 2,110,-1
 173 535 l 1,97,98
173 512 m 1,111,-1
 173 467 l 2,112,113
 173 451 173 451 174 450 c 0,114,115
 177 447 177 447 199 447 c 0,116,117
 229 447 229 447 241 457 c 0,118,119
 253 468 253 468 250 485 c 128,-1,120
 247 502 247 502 233 508 c 0,121,122
 225 512 225 512 209 514 c 0,123,124
 200 515 200 515 173 512 c 1,111,-1
111 618 m 1,125,126
 120 618 120 618 140.5 618.5 c 128,-1,127
 161 619 161 619 176.5 619 c 128,-1,128
 192 619 192 619 207 617 c 0,129,130
 240 614 240 614 250 609 c 0,131,132
 276 596 276 596 277.5 569 c 128,-1,133
 279 542 279 542 256 525 c 1,134,135
 283 514 283 514 284.5 483 c 128,-1,136
 286 452 286 452 260 439 c 0,137,138
 248 433 248 433 214 429 c 0,139,140
 199 428 199 428 182 427.5 c 128,-1,141
 165 427 165 427 143 427.5 c 128,-1,142
 121 428 121 428 111 428 c 1,143,-1
 111 438 l 1,144,145
 132 438 132 438 136 451 c 0,146,147
 137 455 137 455 137.5 461 c 128,-1,148
 138 467 138 467 137.5 474.5 c 128,-1,149
 137 482 137 482 137 484 c 2,150,-1
 137 557 l 2,151,152
 137 560 137 560 137.5 569 c 128,-1,153
 138 578 138 578 138 584.5 c 128,-1,154
 138 591 138 591 136 596 c 0,155,156
 133 604 133 604 127.5 606 c 128,-1,157
 122 608 122 608 111 608 c 1,158,-1
 111 618 l 1,125,126
EndSplineSet
EndChar

StartChar: uni000C
Encoding: 12 12 13
Width: 790
Flags: W
LayerCount: 2
Fore
SplineSet
396 295 m 1,0,-1
 513 295 l 1,1,-1
 544 295 l 1,2,-1
 556 294 l 1,3,-1
 561 281 l 1,4,-1
 570 244 l 1,5,-1
 556 244 l 1,6,7
 549 269 549 269 535 276 c 0,8,9
 533 277 533 277 512 277 c 2,10,-1
 458 277 l 1,11,-1
 458 208 l 2,12,13
 461 208 461 208 473 207.5 c 128,-1,14
 485 207 485 207 492.5 207 c 128,-1,15
 500 207 500 207 509 210 c 128,-1,16
 518 213 518 213 521 219 c 0,17,18
 523 222 523 222 523 236 c 1,19,-1
 537 236 l 1,20,-1
 537 165 l 1,21,-1
 523 165 l 1,22,23
 523 178 523 178 521 181 c 0,24,25
 518 187 518 187 509 190 c 128,-1,26
 500 193 500 193 492.5 193 c 128,-1,27
 485 193 485 193 473 192.5 c 128,-1,28
 461 192 461 192 458 192 c 2,29,-1
 458 143 l 2,30,31
 458 124 458 124 467 118 c 0,32,33
 471 115 471 115 484 115 c 1,34,-1
 484 106 l 1,35,-1
 396 106 l 1,36,-1
 396 115 l 1,37,38
 416 115 416 115 422 128 c 0,39,40
 424 133 424 133 424 140 c 128,-1,41
 424 147 424 147 423.5 156 c 128,-1,42
 423 165 423 165 423 168 c 2,43,-1
 423 238 l 2,44,45
 423 240 423 240 423.5 248 c 128,-1,46
 424 256 424 256 423.5 261.5 c 128,-1,47
 423 267 423 267 422 272 c 0,48,49
 417 285 417 285 396 285 c 1,50,-1
 396 295 l 1,0,-1
221 510 m 1,51,-1
 338 510 l 1,52,-1
 368 510 l 1,53,-1
 380 509 l 1,54,-1
 385 495 l 1,55,-1
 396 459 l 1,56,-1
 381 459 l 1,57,58
 374 484 374 484 359 491 c 0,59,60
 357 492 357 492 337 492 c 2,61,-1
 282 492 l 1,62,-1
 282 424 l 2,63,64
 285 424 285 424 297 423 c 128,-1,65
 309 422 309 422 316.5 422 c 128,-1,66
 324 422 324 422 333 425 c 128,-1,67
 342 428 342 428 345 434 c 0,68,69
 347 437 347 437 347 451 c 1,70,-1
 361 451 l 1,71,-1
 361 380 l 1,72,-1
 347 380 l 1,73,74
 347 393 347 393 345 397 c 0,75,76
 342 403 342 403 333 405.5 c 128,-1,77
 324 408 324 408 316.5 408.5 c 128,-1,78
 309 409 309 409 297 408 c 128,-1,79
 285 407 285 407 282 407 c 2,80,-1
 282 358 l 2,81,82
 282 339 282 339 291 333 c 0,83,84
 295 330 295 330 308 331 c 1,85,-1
 308 321 l 1,86,-1
 221 321 l 1,87,-1
 221 331 l 1,88,89
 241 331 241 331 246 344 c 0,90,91
 248 349 248 349 248 355.5 c 128,-1,92
 248 362 248 362 247.5 371 c 128,-1,93
 247 380 247 380 247 383 c 2,94,-1
 247 454 l 2,95,96
 247 456 247 456 247.5 464 c 128,-1,97
 248 472 248 472 247.5 477.5 c 128,-1,98
 247 483 247 483 246 487 c 0,99,100
 241 500 241 500 221 500 c 1,101,-1
 221 510 l 1,51,-1
EndSplineSet
EndChar

StartChar: uni000E
Encoding: 14 14 14
Width: 790
Flags: W
LayerCount: 2
Fore
SplineSet
475 278 m 0,0,1
 451 274 451 274 438 244 c 0,2,3
 418 197 418 197 439 155 c 0,4,5
 458 117 458 117 492 123 c 0,6,7
 511 126 511 126 525 150 c 0,8,9
 538 171 538 171 538.5 197.5 c 128,-1,10
 539 224 539 224 528 245 c 0,11,12
 509 284 509 284 475 278 c 0,0,1
469 295 m 0,13,14
 490 298 490 298 511 292 c 0,15,16
 544 283 544 283 560 254 c 128,-1,17
 576 225 576 225 573.5 194 c 128,-1,18
 571 163 571 163 551 136.5 c 128,-1,19
 531 110 531 110 497 105 c 0,20,21
 476 102 476 102 456 108 c 0,22,23
 423 117 423 117 407 146 c 128,-1,24
 391 175 391 175 393.5 206 c 128,-1,25
 396 237 396 237 416 263.5 c 128,-1,26
 436 290 436 290 469 295 c 0,13,14
346 512 m 1,27,-1
 359 512 l 1,28,-1
 359 446 l 1,29,-1
 346 446 l 1,30,31
 339 482 339 482 322 489 c 0,32,33
 308 497 308 497 289.5 491 c 128,-1,34
 271 485 271 485 275 466 c 0,35,36
 276 460 276 460 281.5 454 c 128,-1,37
 287 448 287 448 289 446.5 c 128,-1,38
 291 445 291 445 301 439 c 2,39,-1
 324 426 l 2,40,41
 343 415 343 415 351.5 408.5 c 128,-1,42
 360 402 360 402 367 389 c 128,-1,43
 374 376 374 376 370 360 c 0,44,45
 364 338 364 338 344 328 c 128,-1,46
 324 318 324 318 300 320 c 0,47,48
 297 320 297 320 291.5 322 c 128,-1,49
 286 324 286 324 281 325.5 c 128,-1,50
 276 327 276 327 271 328 c 128,-1,51
 266 329 266 329 263 327 c 128,-1,52
 260 325 260 325 259 319 c 1,53,-1
 245 319 l 1,54,-1
 245 385 l 1,55,-1
 259 385 l 1,56,57
 260 368 260 368 269 355 c 128,-1,58
 278 342 278 342 294 339 c 0,59,60
 310 335 310 335 325 341 c 128,-1,61
 340 347 340 347 339 363 c 0,62,63
 339 371 339 371 333.5 378 c 128,-1,64
 328 385 328 385 323.5 388 c 128,-1,65
 319 391 319 391 309 396 c 0,66,67
 306 398 306 398 299 402 c 128,-1,68
 292 406 292 406 288 408.5 c 128,-1,69
 284 411 284 411 277 415 c 128,-1,70
 270 419 270 419 266 422.5 c 128,-1,71
 262 426 262 426 257 431 c 128,-1,72
 252 436 252 436 249.5 440.5 c 128,-1,73
 247 445 247 445 245 451 c 128,-1,74
 243 457 243 457 243.5 463.5 c 128,-1,75
 244 470 244 470 246 477 c 0,76,77
 252 496 252 496 269.5 504 c 128,-1,78
 287 512 287 512 308 511 c 0,79,80
 317 510 317 510 331 505 c 0,81,82
 339 502 339 502 342 502 c 0,83,84
 344 504 344 504 346 512 c 1,27,-1
EndSplineSet
EndChar

StartChar: uni000F
Encoding: 15 15 15
Width: 790
Flags: W
LayerCount: 2
Fore
SplineSet
439 295 m 1,0,-1
 527 295 l 1,1,-1
 527 285 l 1,2,3
 507 285 507 285 502 272 c 0,4,5
 500 268 500 268 500 262 c 128,-1,6
 500 256 500 256 500.5 248.5 c 128,-1,7
 501 241 501 241 501 238 c 2,8,-1
 501 168 l 2,9,10
 501 165 501 165 500.5 156 c 128,-1,11
 500 147 500 147 500 140.5 c 128,-1,12
 500 134 500 134 502 128 c 0,13,14
 507 115 507 115 527 115 c 1,15,-1
 527 106 l 1,16,-1
 439 106 l 1,17,-1
 439 115 l 1,18,19
 459 115 459 115 464 128 c 0,20,21
 466 133 466 133 466.5 139.5 c 128,-1,22
 467 146 467 146 466.5 155 c 128,-1,23
 466 164 466 164 466 167 c 2,24,-1
 466 238 l 2,25,26
 466 240 466 240 466.5 248.5 c 128,-1,27
 467 257 467 257 466.5 262.5 c 128,-1,28
 466 268 466 268 464 273 c 0,29,30
 459 285 459 285 439 285 c 1,31,-1
 439 295 l 1,0,-1
346 512 m 1,32,-1
 359 512 l 1,33,-1
 359 446 l 1,34,-1
 346 446 l 1,35,36
 339 482 339 482 322 489 c 0,37,38
 308 497 308 497 289.5 491 c 128,-1,39
 271 485 271 485 275 466 c 0,40,41
 276 460 276 460 281.5 454 c 128,-1,42
 287 448 287 448 289 446.5 c 128,-1,43
 291 445 291 445 301 439 c 2,44,-1
 324 426 l 2,45,46
 343 415 343 415 351.5 408.5 c 128,-1,47
 360 402 360 402 367 389 c 128,-1,48
 374 376 374 376 370 360 c 0,49,50
 364 338 364 338 344 328 c 128,-1,51
 324 318 324 318 300 320 c 0,52,53
 297 320 297 320 291.5 322 c 128,-1,54
 286 324 286 324 281 325.5 c 128,-1,55
 276 327 276 327 271 328 c 128,-1,56
 266 329 266 329 263 327 c 128,-1,57
 260 325 260 325 259 319 c 1,58,-1
 245 319 l 1,59,-1
 245 385 l 1,60,-1
 259 385 l 1,61,62
 260 368 260 368 269 355 c 128,-1,63
 278 342 278 342 294 339 c 0,64,65
 310 335 310 335 325 341 c 128,-1,66
 340 347 340 347 339 363 c 0,67,68
 339 371 339 371 333.5 378 c 128,-1,69
 328 385 328 385 323.5 388 c 128,-1,70
 319 391 319 391 309 396 c 0,71,72
 306 398 306 398 299 402 c 128,-1,73
 292 406 292 406 288 408.5 c 128,-1,74
 284 411 284 411 277 415 c 128,-1,75
 270 419 270 419 266 422.5 c 128,-1,76
 262 426 262 426 257 431 c 128,-1,77
 252 436 252 436 249.5 440.5 c 128,-1,78
 247 445 247 445 245 451 c 128,-1,79
 243 457 243 457 243.5 463.5 c 128,-1,80
 244 470 244 470 246 477 c 0,81,82
 252 496 252 496 269.5 504 c 128,-1,83
 287 512 287 512 308 511 c 0,84,85
 317 510 317 510 331 505 c 0,86,87
 339 502 339 502 342 502 c 0,88,89
 344 504 344 504 346 512 c 1,32,-1
EndSplineSet
EndChar

StartChar: uni0010
Encoding: 16 16 16
Width: 790
Flags: W
LayerCount: 2
Fore
SplineSet
308 403 m 1,0,-1
 396 403 l 1,1,-1
 396 393 l 1,2,3
 374 393 374 393 370 377 c 0,4,5
 369 371 369 371 369 363 c 128,-1,6
 369 355 369 355 369.5 344.5 c 128,-1,7
 370 334 370 334 370 330 c 2,8,-1
 370 230 l 1,9,-1
 422 230 l 2,10,11
 444 230 444 230 446 232 c 0,12,13
 454 235 454 235 464 253 c 0,14,15
 469 262 469 262 469 263 c 0,16,17
 470 264 470 264 483 264 c 1,18,-1
 468 213 l 1,19,-1
 308 213 l 1,20,-1
 308 223 l 1,21,22
 328 223 328 223 333 236 c 0,23,24
 335 241 335 241 335.5 247.5 c 128,-1,25
 336 254 336 254 335.5 263 c 128,-1,26
 335 272 335 272 335 275 c 2,27,-1
 335 346 l 2,28,29
 335 348 335 348 335.5 356.5 c 128,-1,30
 336 365 336 365 335.5 370 c 128,-1,31
 335 375 335 375 333 380 c 0,32,33
 330 388 330 388 324.5 390 c 128,-1,34
 319 392 319 392 308 392 c 1,35,-1
 308 403 l 1,0,-1
506 187 m 1,36,-1
 666 187 l 1,37,-1
 680 136 l 1,38,39
 668 136 668 136 667 137 c 2,40,-1
 662 147 l 2,41,42
 652 166 652 166 644 169 c 0,43,44
 641 170 641 170 620 170 c 2,45,-1
 568 170 l 1,46,-1
 568 101 l 1,47,-1
 608 101 l 2,48,49
 624 101 624 101 630 110 c 0,50,51
 633 114 633 114 633 128 c 1,52,-1
 647 128 l 1,53,-1
 647 57 l 1,54,-1
 633 57 l 1,55,56
 633 70 633 70 630 75 c 0,57,58
 624 84 624 84 608 84 c 2,59,-1
 568 84 l 1,60,-1
 568 15 l 1,61,-1
 620 15 l 2,62,63
 642 15 642 15 644 16 c 0,64,65
 652 19 652 19 662 38 c 0,66,67
 667 47 667 47 667 48 c 0,68,69
 668 49 668 49 680 49 c 1,70,-1
 665 -2 l 1,71,-1
 506 -2 l 1,72,-1
 506 7 l 1,73,74
 526 7 526 7 531 20 c 0,75,76
 533 25 533 25 533.5 32 c 128,-1,77
 534 39 534 39 533.5 48 c 128,-1,78
 533 57 533 57 533 60 c 2,79,-1
 533 131 l 2,80,81
 533 133 533 133 533.5 141 c 128,-1,82
 534 149 534 149 533.5 154.5 c 128,-1,83
 533 160 533 160 531 165 c 0,84,85
 528 173 528 173 522.5 175 c 128,-1,86
 517 177 517 177 506 177 c 1,87,-1
 506 187 l 1,36,-1
170 600 m 2,88,-1
 170 446 l 1,89,-1
 178 446 l 1,90,-1
 186 446 l 1,91,-1
 194 446 l 2,92,93
 200 446 200 446 202.5 446.5 c 128,-1,94
 205 447 205 447 209.5 448.5 c 128,-1,95
 214 450 214 450 217 452 c 2,96,-1
 224 455 l 2,97,98
 228 457 228 457 231 460 c 0,99,100
 252 479 252 479 252 520 c 0,101,102
 252 572 252 572 224 592 c 0,103,104
 219 595 219 595 214.5 597 c 128,-1,105
 210 599 210 599 203 599.5 c 128,-1,106
 196 600 196 600 193 600.5 c 128,-1,107
 190 601 190 601 180.5 600.5 c 128,-1,108
 171 600 171 600 170 600 c 2,88,-1
107 618 m 1,109,-1
 185 618 l 2,110,111
 230 618 230 618 249 606 c 0,112,113
 275 590 275 590 283 560 c 128,-1,114
 291 530 291 530 286 496 c 0,115,116
 280 457 280 457 253 441 c 0,117,118
 232 428 232 428 185 428 c 2,119,-1
 107 428 l 1,120,-1
 107 438 l 1,121,122
 128 438 128 438 133 451 c 0,123,124
 134 455 134 455 134.5 461 c 128,-1,125
 135 467 135 467 134.5 474.5 c 128,-1,126
 134 482 134 482 134 484 c 2,127,-1
 134 557 l 2,128,129
 134 560 134 560 134.5 569 c 128,-1,130
 135 578 135 578 134.5 584.5 c 128,-1,131
 134 591 134 591 132 596 c 0,132,133
 129 604 129 604 123.5 606 c 128,-1,134
 118 608 118 608 107 608 c 1,135,-1
 107 618 l 1,109,-1
EndSplineSet
EndChar

StartChar: uni0011
Encoding: 17 17 17
Width: 790
Flags: W
LayerCount: 2
Fore
SplineSet
469 254 m 1,0,1
 474 245 474 245 475 245 c 1,2,3
 475 242 475 242 463 232 c 0,4,5
 442 214 442 214 417 212 c 0,6,7
 363 208 363 208 332.5 253 c 128,-1,8
 302 298 302 298 323 347 c 0,9,10
 334 372 334 372 356.5 387.5 c 128,-1,11
 379 403 379 403 406 404 c 0,12,13
 422 404 422 404 433 400 c 0,14,15
 435 399 435 399 438.5 397.5 c 128,-1,16
 442 396 442 396 445 395 c 128,-1,17
 448 394 448 394 451 394 c 0,18,19
 457 395 457 395 457 404 c 1,20,-1
 471 404 l 1,21,-1
 471 339 l 1,22,-1
 457 339 l 1,23,24
 457 369 457 369 429.5 381 c 128,-1,25
 402 393 402 393 380 375 c 0,26,27
 357 357 357 357 352 324.5 c 128,-1,28
 347 292 347 292 360 267 c 0,29,30
 381 224 381 224 421 230 c 0,31,32
 439 233 439 233 454 242 c 0,33,34
 456 243 456 243 461 247.5 c 128,-1,35
 466 252 466 252 469 254 c 1,0,1
548 138 m 1,36,37
 577 138 577 138 590 167 c 0,38,39
 590 168 590 168 592.5 176.5 c 128,-1,40
 595 185 595 185 597 187 c 0,41,42
 598 188 598 188 615 188 c 1,43,-1
 615 53 l 2,44,45
 615 51 615 51 614.5 43 c 128,-1,46
 614 35 614 35 614 29.5 c 128,-1,47
 614 24 614 24 616 18 c 128,-1,48
 618 12 618 12 621 10 c 128,-1,49
 624 8 624 8 638 8 c 1,50,-1
 638 -2 l 1,51,-1
 564 -2 l 1,52,-1
 564 8 l 1,53,54
 580 8 580 8 584 12 c 0,55,56
 586 16 586 16 586.5 21 c 128,-1,57
 587 26 587 26 586.5 34.5 c 128,-1,58
 586 43 586 43 586 44 c 2,59,-1
 586 123 l 1,60,-1
 548 123 l 1,61,-1
 548 138 l 1,36,37
170 600 m 2,62,-1
 170 446 l 1,63,-1
 178 446 l 1,64,-1
 186 446 l 1,65,-1
 194 446 l 2,66,67
 200 446 200 446 202.5 446.5 c 128,-1,68
 205 447 205 447 209.5 448.5 c 128,-1,69
 214 450 214 450 217 452 c 2,70,-1
 224 455 l 2,71,72
 228 457 228 457 231 460 c 0,73,74
 252 479 252 479 252 520 c 0,75,76
 252 572 252 572 224 592 c 0,77,78
 219 595 219 595 214.5 597 c 128,-1,79
 210 599 210 599 203 599.5 c 128,-1,80
 196 600 196 600 193 600.5 c 128,-1,81
 190 601 190 601 180.5 600.5 c 128,-1,82
 171 600 171 600 170 600 c 2,62,-1
107 618 m 1,83,-1
 185 618 l 2,84,85
 230 618 230 618 249 606 c 0,86,87
 275 590 275 590 283 560 c 128,-1,88
 291 530 291 530 286 496 c 0,89,90
 280 457 280 457 253 441 c 0,91,92
 232 428 232 428 185 428 c 2,93,-1
 107 428 l 1,94,-1
 107 438 l 1,95,96
 128 438 128 438 133 451 c 0,97,98
 134 455 134 455 134.5 461 c 128,-1,99
 135 467 135 467 134.5 474.5 c 128,-1,100
 134 482 134 482 134 484 c 2,101,-1
 134 557 l 2,102,103
 134 560 134 560 134.5 569 c 128,-1,104
 135 578 135 578 134.5 584.5 c 128,-1,105
 134 591 134 591 132 596 c 0,106,107
 129 604 129 604 123.5 606 c 128,-1,108
 118 608 118 608 107 608 c 1,109,-1
 107 618 l 1,83,-1
EndSplineSet
EndChar

StartChar: uni0012
Encoding: 18 18 18
Width: 790
Flags: W
LayerCount: 2
Fore
SplineSet
469 254 m 1,0,1
 474 245 474 245 475 245 c 1,2,3
 475 242 475 242 463 232 c 0,4,5
 442 214 442 214 417 212 c 0,6,7
 363 208 363 208 332.5 253 c 128,-1,8
 302 298 302 298 323 347 c 0,9,10
 334 372 334 372 356.5 387.5 c 128,-1,11
 379 403 379 403 406 404 c 0,12,13
 422 404 422 404 433 400 c 0,14,15
 435 399 435 399 438.5 397.5 c 128,-1,16
 442 396 442 396 445 395 c 128,-1,17
 448 394 448 394 451 394 c 0,18,19
 457 395 457 395 457 404 c 1,20,-1
 471 404 l 1,21,-1
 471 339 l 1,22,-1
 457 339 l 1,23,24
 457 369 457 369 429.5 381 c 128,-1,25
 402 393 402 393 380 375 c 0,26,27
 357 357 357 357 352 324.5 c 128,-1,28
 347 292 347 292 360 267 c 0,29,30
 381 224 381 224 421 230 c 0,31,32
 439 233 439 233 454 242 c 0,33,34
 456 243 456 243 461 247.5 c 128,-1,35
 466 252 466 252 469 254 c 1,0,1
534 131 m 1,36,37
 537 165 537 165 560 180 c 128,-1,38
 583 195 583 195 610 185 c 128,-1,39
 637 175 637 175 644 149 c 0,40,41
 650 126 650 126 633 97 c 0,42,43
 628 89 628 89 622.5 81.5 c 128,-1,44
 617 74 617 74 609 64 c 2,45,-1
 598 51 l 1,46,-1
 582 36 l 2,47,48
 571 24 571 24 570 22 c 1,49,50
 574 22 574 22 587.5 21.5 c 128,-1,51
 601 21 601 21 610.5 21.5 c 128,-1,52
 620 22 620 22 628 24 c 0,53,54
 633 25 633 25 637.5 30 c 128,-1,55
 642 35 642 35 644 36 c 0,56,57
 645 37 645 37 657 37 c 1,58,-1
 643 -2 l 1,59,-1
 529 -2 l 1,60,61
 529 3 529 3 531.5 8 c 128,-1,62
 534 13 534 13 536.5 15.5 c 128,-1,63
 539 18 539 18 544.5 23 c 128,-1,64
 550 28 550 28 552 30 c 2,65,-1
 561 39 l 1,66,-1
 571 49 l 1,67,-1
 580 59 l 2,68,69
 587 66 587 66 590 70 c 2,70,-1
 598 81 l 2,71,72
 603 88 603 88 605.5 93.5 c 128,-1,73
 608 99 608 99 610 105.5 c 128,-1,74
 612 112 612 112 613 119 c 0,75,76
 615 137 615 137 605.5 152 c 128,-1,77
 596 167 596 167 577 163 c 0,78,79
 563 160 563 160 554 144 c 0,80,81
 553 143 553 143 552 140 c 128,-1,82
 551 137 551 137 549.5 135 c 128,-1,83
 548 133 548 133 547 132 c 0,84,85
 545 131 545 131 534 131 c 1,36,37
170 600 m 2,86,-1
 170 446 l 1,87,-1
 178 446 l 1,88,-1
 186 446 l 1,89,-1
 194 446 l 2,90,91
 200 446 200 446 202.5 446.5 c 128,-1,92
 205 447 205 447 209.5 448.5 c 128,-1,93
 214 450 214 450 217 452 c 2,94,-1
 224 455 l 2,95,96
 228 457 228 457 231 460 c 0,97,98
 252 479 252 479 252 520 c 0,99,100
 252 572 252 572 224 592 c 0,101,102
 219 595 219 595 214.5 597 c 128,-1,103
 210 599 210 599 203 599.5 c 128,-1,104
 196 600 196 600 193 600.5 c 128,-1,105
 190 601 190 601 180.5 600.5 c 128,-1,106
 171 600 171 600 170 600 c 2,86,-1
107 618 m 1,107,-1
 185 618 l 2,108,109
 230 618 230 618 249 606 c 0,110,111
 275 590 275 590 283 560 c 128,-1,112
 291 530 291 530 286 496 c 0,113,114
 280 457 280 457 253 441 c 0,115,116
 232 428 232 428 185 428 c 2,117,-1
 107 428 l 1,118,-1
 107 438 l 1,119,120
 128 438 128 438 133 451 c 0,121,122
 134 455 134 455 134.5 461 c 128,-1,123
 135 467 135 467 134.5 474.5 c 128,-1,124
 134 482 134 482 134 484 c 2,125,-1
 134 557 l 2,126,127
 134 560 134 560 134.5 569 c 128,-1,128
 135 578 135 578 134.5 584.5 c 128,-1,129
 134 591 134 591 132 596 c 0,130,131
 129 604 129 604 123.5 606 c 128,-1,132
 118 608 118 608 107 608 c 1,133,-1
 107 618 l 1,107,-1
EndSplineSet
EndChar

StartChar: uni0013
Encoding: 19 19 19
Width: 790
Flags: W
LayerCount: 2
Fore
SplineSet
469 254 m 1,0,1
 474 245 474 245 475 245 c 1,2,3
 475 242 475 242 463 232 c 0,4,5
 442 214 442 214 417 212 c 0,6,7
 363 208 363 208 332.5 253 c 128,-1,8
 302 298 302 298 323 347 c 0,9,10
 334 372 334 372 356.5 387.5 c 128,-1,11
 379 403 379 403 406 404 c 0,12,13
 422 404 422 404 433 400 c 0,14,15
 435 399 435 399 438.5 397.5 c 128,-1,16
 442 396 442 396 445 395 c 128,-1,17
 448 394 448 394 451 394 c 0,18,19
 457 395 457 395 457 404 c 1,20,-1
 471 404 l 1,21,-1
 471 339 l 1,22,-1
 457 339 l 1,23,24
 457 369 457 369 429.5 381 c 128,-1,25
 402 393 402 393 380 375 c 0,26,27
 357 357 357 357 352 324.5 c 128,-1,28
 347 292 347 292 360 267 c 0,29,30
 381 224 381 224 421 230 c 0,31,32
 439 233 439 233 454 242 c 0,33,34
 456 243 456 243 461 247.5 c 128,-1,35
 466 252 466 252 469 254 c 1,0,1
553 146 m 1,36,37
 532 156 532 156 555 176 c 0,38,39
 568 187 568 187 580 188 c 0,40,41
 597 190 597 190 612.5 183.5 c 128,-1,42
 628 177 628 177 636 164 c 0,43,44
 646 149 646 149 641 125.5 c 128,-1,45
 636 102 636 102 617 96 c 1,46,-1
 617 94 l 1,47,48
 639 88 639 88 645.5 63 c 128,-1,49
 652 38 652 38 639 20 c 0,50,51
 622 -5 622 -5 584 -2 c 0,52,53
 559 0 559 0 546 16 c 0,54,55
 539 25 539 25 540 29 c 0,56,57
 541 30 541 30 550 36 c 1,58,59
 553 25 553 25 561 19 c 0,60,61
 568 14 568 14 577 12 c 0,62,63
 596 7 596 7 609 22 c 128,-1,64
 622 37 622 37 619.5 57.5 c 128,-1,65
 617 78 617 78 599 84 c 0,66,67
 592 87 592 87 569 87 c 1,68,-1
 569 99 l 1,69,70
 587 99 587 99 596 104 c 0,71,72
 608 111 608 111 612.5 126.5 c 128,-1,73
 617 142 617 142 611 155 c 0,74,75
 605 169 605 169 591 171 c 128,-1,76
 577 173 577 173 566 163 c 0,77,78
 559 156 559 156 553 146 c 1,36,37
170 600 m 2,79,-1
 170 446 l 1,80,-1
 178 446 l 1,81,-1
 186 446 l 1,82,-1
 194 446 l 2,83,84
 200 446 200 446 202.5 446.5 c 128,-1,85
 205 447 205 447 209.5 448.5 c 128,-1,86
 214 450 214 450 217 452 c 2,87,-1
 224 455 l 2,88,89
 228 457 228 457 231 460 c 0,90,91
 252 479 252 479 252 520 c 0,92,93
 252 572 252 572 224 592 c 0,94,95
 219 595 219 595 214.5 597 c 128,-1,96
 210 599 210 599 203 599.5 c 128,-1,97
 196 600 196 600 193 600.5 c 128,-1,98
 190 601 190 601 180.5 600.5 c 128,-1,99
 171 600 171 600 170 600 c 2,79,-1
107 618 m 1,100,-1
 185 618 l 2,101,102
 230 618 230 618 249 606 c 0,103,104
 275 590 275 590 283 560 c 128,-1,105
 291 530 291 530 286 496 c 0,106,107
 280 457 280 457 253 441 c 0,108,109
 232 428 232 428 185 428 c 2,110,-1
 107 428 l 1,111,-1
 107 438 l 1,112,113
 128 438 128 438 133 451 c 0,114,115
 134 455 134 455 134.5 461 c 128,-1,116
 135 467 135 467 134.5 474.5 c 128,-1,117
 134 482 134 482 134 484 c 2,118,-1
 134 557 l 2,119,120
 134 560 134 560 134.5 569 c 128,-1,121
 135 578 135 578 134.5 584.5 c 128,-1,122
 134 591 134 591 132 596 c 0,123,124
 129 604 129 604 123.5 606 c 128,-1,125
 118 608 118 608 107 608 c 1,126,-1
 107 618 l 1,100,-1
EndSplineSet
EndChar

StartChar: uni0014
Encoding: 20 20 20
Width: 790
Flags: W
LayerCount: 2
Fore
SplineSet
607 154 m 1,0,1
 600 141 600 141 578 113 c 128,-1,2
 556 85 556 85 548 68 c 1,3,-1
 608 68 l 1,4,-1
 608 128 l 1,5,-1
 607 154 l 1,0,1
469 254 m 1,6,7
 474 245 474 245 475 245 c 1,8,9
 475 242 475 242 463 232 c 0,10,11
 442 214 442 214 417 212 c 0,12,13
 363 208 363 208 332.5 253 c 128,-1,14
 302 298 302 298 323 347 c 0,15,16
 334 372 334 372 356.5 387.5 c 128,-1,17
 379 403 379 403 406 404 c 0,18,19
 422 404 422 404 433 400 c 0,20,21
 435 399 435 399 438.5 397.5 c 128,-1,22
 442 396 442 396 445 395 c 128,-1,23
 448 394 448 394 451 394 c 0,24,25
 457 395 457 395 457 404 c 1,26,-1
 471 404 l 1,27,-1
 471 339 l 1,28,-1
 457 339 l 1,29,30
 457 369 457 369 429.5 381 c 128,-1,31
 402 393 402 393 380 375 c 0,32,33
 357 357 357 357 352 324.5 c 128,-1,34
 347 292 347 292 360 267 c 0,35,36
 381 224 381 224 421 230 c 0,37,38
 439 233 439 233 454 242 c 0,39,40
 456 243 456 243 461 247.5 c 128,-1,41
 466 252 466 252 469 254 c 1,6,7
526 44 m 1,42,-1
 526 65 l 2,43,44
 527 69 527 69 530.5 74.5 c 128,-1,45
 534 80 534 80 539 86 c 128,-1,46
 544 92 544 92 545 94 c 2,47,-1
 585 152 l 1,48,-1
 602 176 l 2,49,50
 609 186 609 186 610 186 c 0,51,52
 613 188 613 188 617.5 188.5 c 128,-1,53
 622 189 622 189 629 188 c 128,-1,54
 636 187 636 187 637 187 c 2,55,-1
 637 69 l 1,56,-1
 660 69 l 1,57,-1
 660 44 l 1,58,-1
 637 44 l 1,59,-1
 637 -2 l 1,60,-1
 608 -2 l 1,61,-1
 608 44 l 1,62,-1
 526 44 l 1,42,-1
170 600 m 2,63,-1
 170 446 l 1,64,-1
 178 446 l 1,65,-1
 186 446 l 1,66,-1
 194 446 l 2,67,68
 200 446 200 446 202.5 446.5 c 128,-1,69
 205 447 205 447 209.5 448.5 c 128,-1,70
 214 450 214 450 217 452 c 2,71,-1
 224 455 l 2,72,73
 228 457 228 457 231 460 c 0,74,75
 252 479 252 479 252 520 c 0,76,77
 252 572 252 572 224 592 c 0,78,79
 219 595 219 595 214.5 597 c 128,-1,80
 210 599 210 599 203 599.5 c 128,-1,81
 196 600 196 600 193 600.5 c 128,-1,82
 190 601 190 601 180.5 600.5 c 128,-1,83
 171 600 171 600 170 600 c 2,63,-1
107 618 m 1,84,-1
 185 618 l 2,85,86
 230 618 230 618 249 606 c 0,87,88
 275 590 275 590 283 560 c 128,-1,89
 291 530 291 530 286 496 c 0,90,91
 280 457 280 457 253 441 c 0,92,93
 232 428 232 428 185 428 c 2,94,-1
 107 428 l 1,95,-1
 107 438 l 1,96,97
 128 438 128 438 133 451 c 0,98,99
 134 455 134 455 134.5 461 c 128,-1,100
 135 467 135 467 134.5 474.5 c 128,-1,101
 134 482 134 482 134 484 c 2,102,-1
 134 557 l 2,103,104
 134 560 134 560 134.5 569 c 128,-1,105
 135 578 135 578 134.5 584.5 c 128,-1,106
 134 591 134 591 132 596 c 0,107,108
 129 604 129 604 123.5 606 c 128,-1,109
 118 608 118 608 107 608 c 1,110,-1
 107 618 l 1,84,-1
EndSplineSet
EndChar

StartChar: uni0015
Encoding: 21 21 21
Width: 790
Flags: W
LayerCount: 2
Fore
SplineSet
491 187 m 1,0,-1
 579 187 l 1,1,-1
 579 178 l 1,2,3
 566 178 566 178 562 175 c 0,4,5
 553 168 553 168 553 149 c 2,6,-1
 553 101 l 1,7,-1
 602 150 l 1,8,-1
 606 154 l 2,9,10
 610 158 610 158 611.5 160 c 128,-1,11
 613 162 613 162 615.5 165 c 128,-1,12
 618 168 618 168 619 171 c 2,13,-1
 621 177 l 1,14,-1
 606 177 l 1,15,-1
 606 187 l 1,16,-1
 682 187 l 1,17,-1
 682 178 l 1,18,19
 667 178 667 178 657 171.5 c 128,-1,20
 647 165 647 165 633 151 c 2,21,-1
 617 134 l 1,22,-1
 598 114 l 2,23,24
 589 106 589 106 580 99 c 1,25,26
 590 92 590 92 600.5 81.5 c 128,-1,27
 611 71 611 71 623.5 57 c 128,-1,28
 636 43 636 43 642 37 c 2,29,-1
 648 31 l 1,30,-1
 656 24 l 2,31,32
 658 21 658 21 662 17.5 c 128,-1,33
 666 14 666 14 670 12 c 128,-1,34
 674 10 674 10 679 9 c 0,35,36
 681 8 681 8 695 8 c 1,37,-1
 695 -2 l 1,38,-1
 606 -2 l 1,39,-1
 606 7 l 1,40,41
 616 7 616 7 617 9 c 0,42,43
 619 12 619 12 604 27 c 2,44,-1
 572 59 l 2,45,46
 559 72 559 72 557 76 c 1,47,48
 555 74 555 74 554 70 c 128,-1,49
 553 66 553 66 552.5 63.5 c 128,-1,50
 552 61 552 61 552.5 56 c 128,-1,51
 553 51 553 51 553 49 c 128,-1,52
 553 47 553 47 552.5 41 c 128,-1,53
 552 35 552 35 552.5 31.5 c 128,-1,54
 553 28 553 28 554 22.5 c 128,-1,55
 555 17 555 17 557.5 14 c 128,-1,56
 560 11 560 11 564 9 c 0,57,58
 566 8 566 8 579 8 c 1,59,-1
 579 -2 l 1,60,-1
 491 -2 l 1,61,-1
 491 7 l 1,62,63
 512 7 512 7 517 21 c 0,64,65
 518 25 518 25 518.5 31 c 128,-1,66
 519 37 519 37 518.5 44.5 c 128,-1,67
 518 52 518 52 518 55 c 2,68,-1
 518 125 l 2,69,70
 518 128 518 128 518.5 137 c 128,-1,71
 519 146 519 146 518.5 153 c 128,-1,72
 518 160 518 160 516 165 c 0,73,74
 513 173 513 173 507.5 175 c 128,-1,75
 502 177 502 177 491 177 c 1,76,-1
 491 187 l 1,0,-1
387 352 m 1,77,-1
 363 294 l 1,78,-1
 412 294 l 1,79,-1
 388 352 l 1,80,-1
 387 352 l 1,77,-1
287 223 m 1,81,82
 299 223 299 223 307 228.5 c 128,-1,83
 315 234 315 234 318.5 240.5 c 128,-1,84
 322 247 322 247 327 260 c 2,85,-1
 369 359 l 1,86,-1
 382 391 l 2,87,88
 386 402 386 402 389 402 c 0,89,90
 393 405 393 405 397 403.5 c 128,-1,91
 401 402 401 402 403 402 c 128,-1,92
 405 402 405 402 407.5 397.5 c 128,-1,93
 410 393 410 393 411 391.5 c 128,-1,94
 412 390 412 390 414 384.5 c 128,-1,95
 416 379 416 379 417 377 c 2,96,-1
 456 283 l 1,97,-1
 469 252 l 2,98,99
 473 243 473 243 471 242 c 1,100,101
 480 224 480 224 504 223 c 1,102,-1
 504 213 l 1,103,-1
 416 213 l 1,104,-1
 416 223 l 1,105,106
 426 223 426 223 429 224 c 128,-1,107
 432 225 432 225 433 227 c 128,-1,108
 434 229 434 229 434.5 231.5 c 128,-1,109
 435 234 435 234 434.5 237 c 128,-1,110
 434 240 434 240 433 243 c 128,-1,111
 432 246 432 246 431 248.5 c 128,-1,112
 430 251 430 251 428 254 c 2,113,-1
 426 258 l 2,114,115
 426 259 426 259 424.5 263.5 c 128,-1,116
 423 268 423 268 422 270 c 128,-1,117
 421 272 421 272 418 274.5 c 128,-1,118
 415 277 415 277 412 277 c 2,119,-1
 373 277 l 2,120,121
 359 277 359 277 357 276 c 0,122,123
 356 276 356 276 352 264 c 0,124,125
 351 263 351 263 348 258 c 2,126,-1
 344 248 l 2,127,128
 343 245 343 245 342 240.5 c 128,-1,129
 341 236 341 236 342 232 c 128,-1,130
 343 228 343 228 346 225 c 0,131,132
 348 223 348 223 362 223 c 1,133,-1
 362 213 l 1,134,-1
 287 213 l 1,135,-1
 287 223 l 1,81,82
89 618 m 1,136,-1
 127 618 l 1,137,-1
 144 617 l 1,138,-1
 155 606 l 1,139,-1
 178 578 l 1,140,-1
 258 485 l 1,141,-1
 258 562 l 2,142,143
 258 564 258 564 258.5 572.5 c 128,-1,144
 259 581 259 581 258.5 587 c 128,-1,145
 258 593 258 593 255 597 c 0,146,147
 253 602 253 602 248.5 604.5 c 128,-1,148
 244 607 244 607 241 607.5 c 128,-1,149
 238 608 238 608 231 608 c 1,150,-1
 231 618 l 1,151,-1
 306 618 l 1,152,-1
 306 608 l 1,153,154
 295 608 295 608 291 607 c 0,155,156
 287 605 287 605 284 601.5 c 128,-1,157
 281 598 281 598 280 592.5 c 128,-1,158
 279 587 279 587 279 584 c 2,159,-1
 279 573 l 1,160,-1
 279 564 l 1,161,-1
 279 428 l 1,162,163
 260 428 260 428 259 429 c 0,164,165
 255 432 255 432 250 437 c 128,-1,166
 245 442 245 442 240 449 c 2,167,-1
 233 459 l 1,168,-1
 176 525 l 1,169,-1
 166 536 l 2,170,171
 159 543 159 543 154 549 c 128,-1,172
 149 555 149 555 147 561 c 1,173,-1
 146 561 l 1,174,-1
 146 483 l 2,175,176
 146 480 146 480 145.5 474 c 128,-1,177
 145 468 145 468 145 464.5 c 128,-1,178
 145 461 145 461 146 456 c 128,-1,179
 147 451 147 451 149 448 c 0,180,181
 154 439 154 439 172 439 c 1,182,-1
 172 428 l 1,183,-1
 98 428 l 1,184,-1
 98 438 l 1,185,186
 119 438 119 438 123 453 c 0,187,188
 124 456 124 456 124 486 c 2,189,-1
 124 554 l 2,190,191
 124 557 124 557 124.5 565 c 128,-1,192
 125 573 125 573 125 579.5 c 128,-1,193
 125 586 125 586 123 590 c 0,194,195
 114 608 114 608 89 608 c 1,196,-1
 89 618 l 1,136,-1
EndSplineSet
EndChar

StartChar: uni0016
Encoding: 22 22 22
Width: 790
Flags: W
LayerCount: 2
Fore
SplineSet
288 403 m 1,0,-1
 377 403 l 1,1,-1
 377 393 l 1,2,3
 366 393 366 393 363 391 c 0,4,5
 356 386 356 386 368 368 c 0,6,7
 369 366 369 366 381.5 348 c 128,-1,8
 394 330 394 330 399 319 c 1,9,-1
 401 319 l 1,10,11
 405 327 405 327 410.5 335.5 c 128,-1,12
 416 344 416 344 424 354 c 2,13,-1
 435 369 l 2,14,15
 446 384 446 384 442 390 c 0,16,17
 441 392 441 392 427 392 c 1,18,-1
 427 403 l 1,19,-1
 503 403 l 1,20,-1
 503 393 l 1,21,22
 491 393 491 393 479.5 386 c 128,-1,23
 468 379 468 379 463 373 c 128,-1,24
 458 367 458 367 447.5 351.5 c 128,-1,25
 437 336 437 336 435 332 c 0,26,27
 433 329 433 329 427.5 322.5 c 128,-1,28
 422 316 422 316 418.5 310.5 c 128,-1,29
 415 305 415 305 413 300 c 0,30,31
 412 298 412 298 412 283 c 0,32,33
 412 280 412 280 411.5 269 c 128,-1,34
 411 258 411 258 411 251 c 128,-1,35
 411 244 411 244 414 236 c 128,-1,36
 417 228 417 228 423 225 c 0,37,38
 425 224 425 224 439 223 c 1,39,-1
 439 213 l 1,40,-1
 351 213 l 1,41,-1
 351 223 l 1,42,43
 363 223 363 223 367 224 c 0,44,45
 373 227 373 227 375.5 235 c 128,-1,46
 378 243 378 243 378 249.5 c 128,-1,47
 378 256 378 256 377.5 267.5 c 128,-1,48
 377 279 377 279 377 281 c 0,49,50
 377 286 377 286 375 291.5 c 128,-1,51
 373 297 373 297 371 300.5 c 128,-1,52
 369 304 369 304 365 310 c 128,-1,53
 361 316 361 316 359 318 c 2,54,-1
 327 368 l 2,55,56
 315 386 315 386 306 391 c 0,57,58
 303 392 303 392 288 392 c 1,59,-1
 288 403 l 1,0,-1
485 187 m 1,60,-1
 523 187 l 1,61,-1
 540 186 l 1,62,-1
 551 174 l 1,63,-1
 575 146 l 1,64,-1
 653 55 l 1,65,-1
 653 133 l 2,66,67
 653 135 653 135 653.5 143.5 c 128,-1,68
 654 152 654 152 653.5 157.5 c 128,-1,69
 653 163 653 163 651 167 c 128,-1,70
 649 171 649 171 646.5 173 c 128,-1,71
 644 175 644 175 640 176 c 128,-1,72
 636 177 636 177 634 177 c 2,73,-1
 627 177 l 1,74,-1
 627 187 l 1,75,-1
 702 187 l 1,76,-1
 702 178 l 1,77,78
 679 178 679 178 676 163 c 0,79,80
 674 156 674 156 674 147 c 128,-1,81
 674 138 674 138 675 126.5 c 128,-1,82
 676 115 676 115 676 110 c 2,83,-1
 676 -2 l 1,84,85
 657 -2 657 -2 655 -1 c 0,86,87
 651 1 651 1 646.5 6 c 128,-1,88
 642 11 642 11 636.5 18 c 128,-1,89
 631 25 631 25 630 27 c 2,90,-1
 573 93 l 1,91,-1
 562 104 l 1,92,-1
 550 118 l 2,93,94
 545 124 545 124 542 130 c 1,95,-1
 541 130 l 1,96,-1
 541 53 l 2,97,98
 541 51 541 51 540.5 42.5 c 128,-1,99
 540 34 540 34 540.5 28.5 c 128,-1,100
 541 23 541 23 543 19 c 0,101,102
 547 12 547 12 552 10 c 128,-1,103
 557 8 557 8 568 8 c 1,104,-1
 568 -2 l 1,105,-1
 493 -2 l 1,106,-1
 493 7 l 1,107,108
 514 7 514 7 519 22 c 0,109,110
 520 24 520 24 519 55 c 2,111,-1
 519 123 l 2,112,113
 519 126 519 126 520 134.5 c 128,-1,114
 521 143 521 143 520.5 149 c 128,-1,115
 520 155 520 155 519 159 c 0,116,117
 510 177 510 177 485 177 c 1,118,-1
 485 187 l 1,60,-1
149 492 m 1,119,120
 152 455 152 455 181 447 c 0,121,122
 194 442 194 442 211.5 447 c 128,-1,123
 229 452 229 452 229.5 468.5 c 128,-1,124
 230 485 230 485 207 499 c 0,125,126
 201 503 201 503 186.5 510.5 c 128,-1,127
 172 518 172 518 162 525 c 128,-1,128
 152 532 152 532 144 541 c 0,129,130
 125 566 125 566 140 591 c 128,-1,131
 155 616 155 616 185 619 c 0,132,133
 199 620 199 620 212 616 c 2,134,-1
 219 613 l 2,135,136
 226 610 226 610 229.5 610 c 128,-1,137
 233 610 233 610 234.5 613.5 c 128,-1,138
 236 617 236 617 237 618 c 128,-1,139
 238 619 238 619 250 619 c 1,140,-1
 250 553 l 1,141,-1
 236 553 l 1,142,143
 231 589 231 589 210 598 c 0,144,145
 196 605 196 605 179 598.5 c 128,-1,146
 162 592 162 592 165 574 c 0,147,148
 167 561 167 561 193 545 c 0,149,150
 198 542 198 542 206 538 c 2,151,-1
 218 531 l 2,152,153
 224 528 224 528 231.5 523.5 c 128,-1,154
 239 519 239 519 243 515 c 2,155,-1
 252 506 l 2,156,157
 258 500 258 500 259 494 c 2,158,-1
 262 481 l 2,159,160
 263 473 263 473 259 465 c 0,161,162
 253 444 253 444 232.5 434.5 c 128,-1,163
 212 425 212 425 189 428 c 0,164,165
 186 428 186 428 180 430 c 2,166,-1
 170 434 l 2,167,168
 166 435 166 435 161 435.5 c 128,-1,169
 156 436 156 436 153 434 c 128,-1,170
 150 432 150 432 149 427 c 1,171,-1
 135 427 l 1,172,-1
 135 492 l 1,173,-1
 149 492 l 1,119,120
EndSplineSet
EndChar

StartChar: uni0017
Encoding: 23 23 23
Width: 790
Flags: W
LayerCount: 2
Fore
SplineSet
569 167 m 1,0,-1
 569 122 l 2,1,2
 569 106 569 106 570 105 c 0,3,4
 573 102 573 102 593 102 c 0,5,6
 619 102 619 102 631 114 c 0,7,8
 641 124 641 124 638.5 140.5 c 128,-1,9
 636 157 636 157 623 163 c 0,10,11
 614 168 614 168 602 170 c 0,12,13
 595 170 595 170 569 167 c 1,0,-1
569 19 m 1,14,15
 596 16 596 16 605 16 c 0,16,17
 621 18 621 18 628 22 c 0,18,19
 642 29 642 29 645 46 c 128,-1,20
 648 63 648 63 636 73 c 128,-1,21
 624 83 624 83 594 84 c 0,22,23
 572 84 572 84 570 80 c 0,24,25
 569 79 569 79 569 63 c 2,26,-1
 569 19 l 1,14,15
319 403 m 1,27,-1
 432 403 l 1,28,-1
 461 403 l 1,29,-1
 471 402 l 1,30,-1
 476 389 l 1,31,-1
 486 352 l 1,32,33
 474 352 474 352 473 353 c 2,34,-1
 467 362 l 2,35,36
 459 378 459 378 453 382 c 0,37,38
 449 385 449 385 442 386 c 128,-1,39
 435 387 435 387 425 386 c 128,-1,40
 415 385 415 385 413 385 c 2,41,-1
 413 285 l 2,42,43
 413 281 413 281 412.5 270.5 c 128,-1,44
 412 260 412 260 412 252 c 128,-1,45
 412 244 412 244 414 237 c 0,46,47
 418 223 418 223 439 223 c 1,48,-1
 439 213 l 1,49,-1
 352 213 l 1,50,-1
 352 223 l 1,51,52
 374 223 374 223 377 238 c 0,53,54
 378 244 378 244 378.5 252.5 c 128,-1,55
 379 261 379 261 378.5 271 c 128,-1,56
 378 281 378 281 378 286 c 2,57,-1
 378 385 l 2,58,59
 376 385 376 385 366 386 c 128,-1,60
 356 387 356 387 350 386 c 0,61,62
 343 384 343 384 338 382 c 0,63,64
 331 378 331 378 324 362 c 0,65,66
 319 353 319 353 318 353 c 0,67,68
 317 352 317 352 305 352 c 1,69,-1
 319 403 l 1,27,-1
506 187 m 1,70,-1
 584 187 l 2,71,72
 625 187 625 187 642 181 c 0,73,74
 662 173 662 173 670 154 c 128,-1,75
 678 135 678 135 669 114 c 0,76,77
 665 106 665 106 651 94 c 1,78,79
 668 89 668 89 676 72 c 128,-1,80
 684 55 684 55 678.5 36.5 c 128,-1,81
 673 18 673 18 658 10 c 0,82,83
 644 2 644 2 609 -1 c 0,84,85
 594 -2 594 -2 577 -2.5 c 128,-1,86
 560 -3 560 -3 538 -2.5 c 128,-1,87
 516 -2 516 -2 506 -2 c 1,88,-1
 506 8 l 1,89,90
 527 8 527 8 532 20 c 0,91,92
 534 24 534 24 534 30 c 128,-1,93
 534 36 534 36 533.5 43.5 c 128,-1,94
 533 51 533 51 533 54 c 2,95,-1
 533 127 l 2,96,97
 533 130 533 130 533.5 138.5 c 128,-1,98
 534 147 534 147 533.5 154 c 128,-1,99
 533 161 533 161 532 165 c 0,100,101
 527 177 527 177 506 178 c 1,102,-1
 506 187 l 1,70,-1
111 618 m 1,103,-1
 229 618 l 1,104,-1
 258 618 l 1,105,-1
 270 617 l 1,106,-1
 275 603 l 1,107,-1
 286 567 l 1,108,109
 273 567 273 567 271 568 c 2,110,-1
 266 578 l 2,111,112
 256 597 256 597 249 599 c 0,113,114
 246 600 246 600 224 600 c 2,115,-1
 172 600 l 1,116,-1
 172 532 l 1,117,-1
 213 532 l 2,118,119
 229 532 229 532 235 541 c 0,120,121
 238 545 238 545 237 558 c 1,122,-1
 251 558 l 1,123,-1
 251 488 l 1,124,-1
 237 488 l 1,125,126
 237 501 237 501 235 506 c 0,127,128
 229 515 229 515 213 514 c 2,129,-1
 172 514 l 1,130,-1
 172 446 l 1,131,-1
 224 446 l 2,132,133
 246 446 246 446 249 447 c 0,134,135
 257 450 257 450 266 469 c 2,136,-1
 271 478 l 2,137,138
 272 479 272 479 285 479 c 1,139,-1
 274 443 l 1,140,-1
 269 429 l 1,141,-1
 258 428 l 1,142,-1
 228 428 l 1,143,-1
 111 428 l 1,144,-1
 111 438 l 1,145,146
 131 438 131 438 136 451 c 0,147,148
 138 456 138 456 138 462.5 c 128,-1,149
 138 469 138 469 137.5 478.5 c 128,-1,150
 137 488 137 488 137 491 c 2,151,-1
 137 562 l 2,152,153
 137 564 137 564 137.5 572 c 128,-1,154
 138 580 138 580 137.5 585.5 c 128,-1,155
 137 591 137 591 136 595 c 0,156,157
 133 603 133 603 127 605.5 c 128,-1,158
 121 608 121 608 111 608 c 1,159,-1
 111 618 l 1,103,-1
EndSplineSet
EndChar

StartChar: uni0018
Encoding: 24 24 24
Width: 790
Flags: W
LayerCount: 2
Fore
SplineSet
485 187 m 1,0,-1
 523 187 l 1,1,-1
 539 187 l 1,2,-1
 550 176 l 1,3,-1
 572 150 l 1,4,-1
 653 55 l 1,5,-1
 653 133 l 2,6,7
 653 135 653 135 653.5 143.5 c 128,-1,8
 654 152 654 152 653.5 157.5 c 128,-1,9
 653 163 653 163 651 167 c 128,-1,10
 649 171 649 171 646.5 173 c 128,-1,11
 644 175 644 175 640 176 c 128,-1,12
 636 177 636 177 634 177 c 2,13,-1
 627 177 l 1,14,-1
 627 187 l 1,15,-1
 702 187 l 1,16,-1
 702 178 l 1,17,18
 679 178 679 178 676 163 c 0,19,20
 674 156 674 156 674 147 c 128,-1,21
 674 138 674 138 675 126.5 c 128,-1,22
 676 115 676 115 676 110 c 2,23,-1
 676 -2 l 1,24,25
 657 -2 657 -2 655 -1 c 0,26,27
 651 1 651 1 646.5 6 c 128,-1,28
 642 11 642 11 636.5 18 c 128,-1,29
 631 25 631 25 630 27 c 2,30,-1
 573 93 l 1,31,-1
 562 104 l 1,32,-1
 550 118 l 2,33,34
 545 124 545 124 542 130 c 1,35,-1
 541 130 l 1,36,-1
 541 53 l 2,37,38
 541 51 541 51 540.5 42.5 c 128,-1,39
 540 34 540 34 540.5 28.5 c 128,-1,40
 541 23 541 23 543 19 c 0,41,42
 547 12 547 12 552 10 c 128,-1,43
 557 8 557 8 568 8 c 1,44,-1
 568 -2 l 1,45,-1
 493 -2 l 1,46,-1
 493 7 l 1,47,48
 514 7 514 7 519 22 c 0,49,50
 520 24 520 24 519 55 c 2,51,-1
 519 123 l 2,52,53
 519 126 519 126 520 134.5 c 128,-1,54
 521 143 521 143 520.5 149 c 128,-1,55
 520 155 520 155 519 159 c 0,56,57
 510 177 510 177 485 177 c 1,58,-1
 485 187 l 1,0,-1
388 353 m 1,59,-1
 363 294 l 1,60,-1
 412 294 l 1,61,-1
 397 332 l 1,62,-1
 388 353 l 1,59,-1
287 223 m 1,63,64
 299 223 299 223 307.5 229 c 128,-1,65
 316 235 316 235 319.5 241.5 c 128,-1,66
 323 248 323 248 328 261 c 2,67,-1
 371 362 l 1,68,-1
 383 391 l 2,69,70
 387 401 387 401 389 402 c 0,71,72
 393 404 393 404 396 404 c 128,-1,73
 399 404 399 404 401 403 c 128,-1,74
 403 402 403 402 405 400.5 c 128,-1,75
 407 399 407 399 408.5 395.5 c 128,-1,76
 410 392 410 392 411 390 c 128,-1,77
 412 388 412 388 413.5 384.5 c 128,-1,78
 415 381 415 381 416 379 c 2,79,-1
 457 281 l 1,80,-1
 469 252 l 2,81,82
 473 243 473 243 471 241 c 0,83,84
 480 230 480 230 486 226.5 c 128,-1,85
 492 223 492 223 504 223 c 1,86,-1
 504 213 l 1,87,-1
 416 213 l 1,88,-1
 416 223 l 1,89,90
 427 223 427 223 430 224 c 0,91,92
 433 226 433 226 434.5 229 c 128,-1,93
 436 232 436 232 435 236 c 128,-1,94
 434 240 434 240 433 243 c 128,-1,95
 432 246 432 246 429.5 251 c 128,-1,96
 427 256 427 256 427 257 c 128,-1,97
 427 258 427 258 425 262.5 c 128,-1,98
 423 267 423 267 422 269.5 c 128,-1,99
 421 272 421 272 418.5 274.5 c 128,-1,100
 416 277 416 277 413 277 c 2,101,-1
 374 277 l 2,102,103
 360 277 360 277 358 275.5 c 128,-1,104
 356 274 356 274 352 264 c 0,105,106
 351 262 351 262 349 257 c 2,107,-1
 346 248 l 2,108,109
 344 245 344 245 342.5 240.5 c 128,-1,110
 341 236 341 236 342 232 c 128,-1,111
 343 228 343 228 346 226 c 0,112,113
 348 224 348 224 362 223 c 1,114,-1
 362 213 l 1,115,-1
 287 213 l 1,116,-1
 287 223 l 1,63,64
272 470 m 1,117,118
 277 461 277 461 277 460 c 0,119,120
 277 457 277 457 265 447 c 0,121,122
 244 429 244 429 220 427 c 0,123,124
 185 425 185 425 157 446 c 128,-1,125
 129 467 129 467 121 498 c 128,-1,126
 113 529 113 529 126 564 c 0,127,128
 137 589 137 589 159.5 604 c 128,-1,129
 182 619 182 619 209 619 c 0,130,131
 226 619 226 619 236 616 c 2,132,-1
 241 614 l 2,133,134
 244 612 244 612 247.5 610.5 c 128,-1,135
 251 609 251 609 253 610 c 0,136,137
 259 611 259 611 259 619 c 1,138,-1
 273 619 l 1,139,-1
 273 555 l 1,140,-1
 259 555 l 1,141,142
 259 584 259 584 232.5 596 c 128,-1,143
 206 608 206 608 183 591 c 0,144,145
 160 573 160 573 154.5 540.5 c 128,-1,146
 149 508 149 508 162 483 c 0,147,148
 183 440 183 440 223 445 c 0,149,150
 241 448 241 448 256 458 c 0,151,152
 258 459 258 459 263.5 463.5 c 128,-1,153
 269 468 269 468 272 470 c 1,117,118
EndSplineSet
EndChar

StartChar: uni0019
Encoding: 25 25 25
Width: 790
Flags: W
LayerCount: 2
Fore
SplineSet
359 295 m 1,0,-1
 402 295 l 2,1,2
 418 295 418 295 419 294 c 128,-1,3
 420 293 420 293 426 281 c 0,4,5
 428 276 428 276 433 266 c 2,6,-1
 440 252 l 2,7,8
 475 176 475 176 489 151 c 1,9,-1
 539 256 l 1,10,-1
 552 283 l 1,11,-1
 558 294 l 1,12,-1
 572 295 l 1,13,-1
 609 295 l 1,14,-1
 609 285 l 1,15,16
 588 285 588 285 584 273 c 0,17,18
 582 269 582 269 582 263 c 128,-1,19
 582 257 582 257 582.5 249.5 c 128,-1,20
 583 242 583 242 583 239 c 2,21,-1
 583 165 l 2,22,23
 583 162 583 162 582 153.5 c 128,-1,24
 581 145 581 145 581.5 138 c 128,-1,25
 582 131 582 131 584 127 c 0,26,27
 589 116 589 116 609 115 c 1,28,-1
 609 106 l 1,29,-1
 520 106 l 1,30,-1
 520 115 l 1,31,32
 539 115 539 115 544 125 c 0,33,34
 546 129 546 129 547 133.5 c 128,-1,35
 548 138 548 138 547.5 146 c 128,-1,36
 547 154 547 154 547 155 c 2,37,-1
 547 224 l 1,38,-1
 546 224 l 1,39,40
 545 219 545 219 531 193 c 0,41,42
 509 150 509 150 503 135 c 2,43,-1
 498 124 l 1,44,-1
 493 114 l 2,45,46
 489 107 489 107 487 106 c 0,47,48
 472 104 472 104 468.5 108 c 128,-1,49
 465 112 465 112 462 118 c 2,50,-1
 456 133 l 2,51,52
 452 141 452 141 451 144 c 2,53,-1
 438 167 l 1,54,-1
 424 195 l 2,55,56
 418 208 418 208 415 220 c 1,57,-1
 414 220 l 1,58,-1
 414 153 l 2,59,60
 414 151 414 151 413.5 146 c 128,-1,61
 413 141 413 141 413 138 c 128,-1,62
 413 135 413 135 414 131 c 128,-1,63
 415 127 415 127 417 124 c 0,64,65
 422 115 422 115 440 115 c 1,66,-1
 440 106 l 1,67,-1
 365 106 l 1,68,-1
 365 115 l 1,69,70
 386 115 386 115 390 128 c 0,71,72
 392 132 392 132 392 137.5 c 128,-1,73
 392 143 392 143 391.5 150.5 c 128,-1,74
 391 158 391 158 391 161 c 2,75,-1
 391 235 l 2,76,77
 391 238 391 238 392 246 c 128,-1,78
 393 254 393 254 392.5 260.5 c 128,-1,79
 392 267 392 267 390 271 c 0,80,81
 383 285 383 285 359 285 c 1,82,-1
 359 295 l 1,0,-1
221 510 m 1,83,-1
 338 510 l 1,84,-1
 368 510 l 1,85,-1
 380 509 l 1,86,-1
 385 495 l 1,87,-1
 396 459 l 1,88,-1
 381 459 l 1,89,90
 374 484 374 484 359 491 c 0,91,92
 357 492 357 492 337 492 c 2,93,-1
 282 492 l 1,94,-1
 282 424 l 2,95,96
 285 424 285 424 297 423 c 128,-1,97
 309 422 309 422 316.5 422 c 128,-1,98
 324 422 324 422 333 425 c 128,-1,99
 342 428 342 428 345 434 c 0,100,101
 347 437 347 437 347 451 c 1,102,-1
 361 451 l 1,103,-1
 361 380 l 1,104,-1
 347 380 l 1,105,106
 347 393 347 393 345 397 c 0,107,108
 342 403 342 403 333 405.5 c 128,-1,109
 324 408 324 408 316.5 408.5 c 128,-1,110
 309 409 309 409 297 408 c 128,-1,111
 285 407 285 407 282 407 c 2,112,-1
 282 339 l 1,113,-1
 337 339 l 2,114,115
 358 339 358 339 359 340 c 0,116,117
 373 347 373 347 381 372 c 1,118,-1
 395 372 l 1,119,-1
 384 335 l 1,120,-1
 379 322 l 1,121,-1
 367 321 l 1,122,-1
 338 321 l 1,123,-1
 221 321 l 1,124,-1
 221 331 l 1,125,126
 241 331 241 331 246 344 c 0,127,128
 248 349 248 349 248 355.5 c 128,-1,129
 248 362 248 362 247.5 371 c 128,-1,130
 247 380 247 380 247 383 c 2,131,-1
 247 454 l 2,132,133
 247 456 247 456 247.5 464 c 128,-1,134
 248 472 248 472 247.5 477.5 c 128,-1,135
 247 483 247 483 246 487 c 0,136,137
 241 500 241 500 221 500 c 1,138,-1
 221 510 l 1,83,-1
EndSplineSet
EndChar

StartChar: uni001A
Encoding: 26 26 26
Width: 790
Flags: W
LayerCount: 2
Fore
SplineSet
569 104 m 1,0,1
 595 101 595 101 602 102 c 0,2,3
 614 104 614 104 623 108 c 0,4,5
 636 115 636 115 638.5 131.5 c 128,-1,6
 641 148 641 148 630 158 c 0,7,8
 619 169 619 169 593 169 c 0,9,10
 572 169 572 169 570 166 c 0,11,12
 569 165 569 165 569 149 c 2,13,-1
 569 104 l 1,0,1
569 81 m 1,14,-1
 569 36 l 2,15,16
 569 20 569 20 570 19 c 0,17,18
 572 16 572 16 595 16 c 0,19,20
 625 16 625 16 637 27 c 0,21,22
 648 38 648 38 645 55 c 128,-1,23
 642 72 642 72 628 78 c 0,24,25
 619 82 619 82 604 84 c 0,26,27
 595 84 595 84 569 81 c 1,14,-1
292 403 m 1,28,-1
 381 403 l 1,29,-1
 381 393 l 1,30,31
 360 393 360 393 355 380 c 0,32,33
 353 375 353 375 353 368 c 128,-1,34
 353 361 353 361 353.5 352.5 c 128,-1,35
 354 344 354 344 354 340 c 2,36,-1
 354 319 l 1,37,-1
 354 301 l 2,38,39
 354 297 354 297 355 283 c 128,-1,40
 356 269 356 269 359 262 c 2,41,-1
 366 247 l 2,42,43
 371 238 371 238 379 234.5 c 128,-1,44
 387 231 387 231 398 230 c 0,45,46
 410 230 410 230 416 233 c 0,47,48
 426 237 426 237 433 244 c 128,-1,49
 440 251 440 251 443.5 258.5 c 128,-1,50
 447 266 447 266 449 278 c 128,-1,51
 451 290 451 290 451 297 c 128,-1,52
 451 304 451 304 450.5 318 c 128,-1,53
 450 332 450 332 450 337 c 0,54,55
 450 339 450 339 450.5 349.5 c 128,-1,56
 451 360 451 360 451 366.5 c 128,-1,57
 451 373 451 373 448.5 380.5 c 128,-1,58
 446 388 446 388 440 391 c 0,59,60
 437 392 437 392 424 392 c 1,61,-1
 424 403 l 1,62,-1
 499 403 l 1,63,-1
 499 393 l 1,64,65
 486 393 486 393 483 391 c 0,66,67
 477 388 477 388 474 379.5 c 128,-1,68
 471 371 471 371 471 363.5 c 128,-1,69
 471 356 471 356 472 344.5 c 128,-1,70
 473 333 473 333 473 330 c 2,71,-1
 473 312 l 1,72,-1
 473 292 l 2,73,74
 473 288 473 288 471.5 275.5 c 128,-1,75
 470 263 470 263 467 257 c 128,-1,76
 464 251 464 251 458.5 242.5 c 128,-1,77
 453 234 453 234 446 227 c 0,78,79
 439 221 439 221 427 217 c 0,80,81
 416 213 416 213 403 213 c 0,82,83
 374 213 374 213 351.5 226 c 128,-1,84
 329 239 329 239 321 266 c 0,85,86
 318 276 318 276 318 318 c 2,87,-1
 318 367 l 2,88,89
 318 384 318 384 310 390 c 0,90,91
 307 392 307 392 292 392 c 1,92,-1
 292 403 l 1,28,-1
506 187 m 1,93,94
 515 187 515 187 536 187.5 c 128,-1,95
 557 188 557 188 572.5 188 c 128,-1,96
 588 188 588 188 602 187 c 0,97,98
 635 184 635 184 645 179 c 0,99,100
 671 166 671 166 673 138.5 c 128,-1,101
 675 111 675 111 651 94 c 1,102,103
 677 83 677 83 680 53 c 128,-1,104
 683 23 683 23 657 9 c 0,105,106
 636 -2 636 -2 589 -2 c 2,107,-1
 506 -2 l 1,108,-1
 506 7 l 1,109,110
 527 7 527 7 532 20 c 0,111,112
 533 24 533 24 533.5 30 c 128,-1,113
 534 36 534 36 533.5 43.5 c 128,-1,114
 533 51 533 51 533 54 c 2,115,-1
 533 126 l 2,116,117
 533 129 533 129 533.5 138 c 128,-1,118
 534 147 534 147 533.5 154 c 128,-1,119
 533 161 533 161 531 165 c 0,120,121
 528 173 528 173 522.5 175 c 128,-1,122
 517 177 517 177 506 177 c 1,123,-1
 506 187 l 1,93,94
149 492 m 1,124,125
 152 455 152 455 181 447 c 0,126,127
 194 442 194 442 211.5 447 c 128,-1,128
 229 452 229 452 229.5 468.5 c 128,-1,129
 230 485 230 485 207 499 c 0,130,131
 201 503 201 503 186.5 510.5 c 128,-1,132
 172 518 172 518 162 525 c 128,-1,133
 152 532 152 532 144 541 c 0,134,135
 125 566 125 566 140 591 c 128,-1,136
 155 616 155 616 185 619 c 0,137,138
 199 620 199 620 212 616 c 2,139,-1
 219 613 l 2,140,141
 226 610 226 610 229.5 610 c 128,-1,142
 233 610 233 610 234.5 613.5 c 128,-1,143
 236 617 236 617 237 618 c 128,-1,144
 238 619 238 619 250 619 c 1,145,-1
 250 553 l 1,146,-1
 236 553 l 1,147,148
 231 589 231 589 210 598 c 0,149,150
 196 605 196 605 179 598.5 c 128,-1,151
 162 592 162 592 165 574 c 0,152,153
 167 561 167 561 193 545 c 0,154,155
 198 542 198 542 206 538 c 2,156,-1
 218 531 l 2,157,158
 224 528 224 528 231.5 523.5 c 128,-1,159
 239 519 239 519 243 515 c 2,160,-1
 252 506 l 2,161,162
 258 500 258 500 259 494 c 2,163,-1
 262 481 l 2,164,165
 263 473 263 473 259 465 c 0,166,167
 253 444 253 444 232.5 434.5 c 128,-1,168
 212 425 212 425 189 428 c 0,169,170
 186 428 186 428 180 430 c 2,171,-1
 170 434 l 2,172,173
 166 435 166 435 161 435.5 c 128,-1,174
 156 436 156 436 153 434 c 128,-1,175
 150 432 150 432 149 427 c 1,176,-1
 135 427 l 1,177,-1
 135 492 l 1,178,-1
 149 492 l 1,124,125
EndSplineSet
EndChar

StartChar: uni001B
Encoding: 27 27 27
Width: 790
Flags: W
LayerCount: 2
Fore
SplineSet
347 277 m 1,0,1
 350 240 350 240 379 232 c 0,2,3
 392 227 392 227 409.5 232 c 128,-1,4
 427 237 427 237 427.5 253.5 c 128,-1,5
 428 270 428 270 405 284 c 0,6,7
 399 288 399 288 384.5 295.5 c 128,-1,8
 370 303 370 303 359.5 310 c 128,-1,9
 349 317 349 317 342 325 c 0,10,11
 322 350 322 350 338 375.5 c 128,-1,12
 354 401 354 401 383 404 c 0,13,14
 396 405 396 405 411 400 c 2,15,-1
 418 397 l 2,16,17
 425 394 425 394 428 394 c 128,-1,18
 431 394 431 394 432.5 398 c 128,-1,19
 434 402 434 402 435 403 c 128,-1,20
 436 404 436 404 447 404 c 1,21,-1
 447 338 l 1,22,-1
 434 338 l 1,23,24
 429 374 429 374 408 382 c 0,25,26
 394 389 394 389 377 383 c 128,-1,27
 360 377 360 377 362 359 c 0,28,29
 364 346 364 346 391 330 c 0,30,31
 396 327 396 327 403.5 323 c 128,-1,32
 411 319 411 319 416 316 c 2,33,-1
 428 308 l 2,34,35
 436 304 436 304 440.5 300 c 128,-1,36
 445 296 445 296 450 290 c 128,-1,37
 455 284 455 284 456.5 278.5 c 128,-1,38
 458 273 458 273 459.5 265.5 c 128,-1,39
 461 258 461 258 457 250 c 0,40,41
 451 229 451 229 430.5 219.5 c 128,-1,42
 410 210 410 210 387 213 c 0,43,44
 385 213 385 213 373 217 c 128,-1,45
 361 221 361 221 354.5 220.5 c 128,-1,46
 348 220 348 220 347 212 c 1,47,-1
 333 212 l 1,48,-1
 333 277 l 1,49,-1
 347 277 l 1,0,1
655 189 m 1,50,-1
 669 189 l 1,51,-1
 669 125 l 1,52,-1
 655 125 l 1,53,54
 655 151 655 151 631.5 164 c 128,-1,55
 608 177 608 177 585 165 c 128,-1,56
 562 153 562 153 553 125.5 c 128,-1,57
 544 98 544 98 551 70 c 128,-1,58
 558 42 558 42 577 26 c 0,59,60
 602 6 602 6 636 20 c 0,61,62
 648 25 648 25 657 31 c 0,63,64
 665 38 665 38 666 38 c 128,-1,65
 667 38 667 38 674 30 c 1,66,-1
 674 29 l 1,67,68
 649 4 649 4 626 -1 c 0,69,70
 614 -4 614 -4 597 -2 c 0,71,72
 570 1 570 1 550 17.5 c 128,-1,73
 530 34 530 34 520.5 56 c 128,-1,74
 511 78 511 78 513.5 104.5 c 128,-1,75
 516 131 516 131 532 152 c 0,76,77
 547 172 547 172 571 181.5 c 128,-1,78
 595 191 595 191 621 188 c 0,79,80
 626 187 626 187 634.5 183.5 c 128,-1,81
 643 180 643 180 646 179 c 0,82,83
 650 178 650 178 652.5 181 c 128,-1,84
 655 184 655 184 655 189 c 1,50,-1
111 618 m 1,85,-1
 229 618 l 1,86,-1
 258 618 l 1,87,-1
 270 617 l 1,88,-1
 275 603 l 1,89,-1
 286 567 l 1,90,91
 273 567 273 567 271 568 c 2,92,-1
 266 578 l 2,93,94
 256 597 256 597 249 599 c 0,95,96
 246 600 246 600 224 600 c 2,97,-1
 172 600 l 1,98,-1
 172 532 l 1,99,-1
 213 532 l 2,100,101
 229 532 229 532 235 541 c 0,102,103
 238 545 238 545 237 558 c 1,104,-1
 251 558 l 1,105,-1
 251 488 l 1,106,-1
 237 488 l 1,107,108
 237 501 237 501 235 506 c 0,109,110
 229 515 229 515 213 514 c 2,111,-1
 172 514 l 1,112,-1
 172 446 l 1,113,-1
 224 446 l 2,114,115
 246 446 246 446 249 447 c 0,116,117
 257 450 257 450 266 469 c 2,118,-1
 271 478 l 2,119,120
 272 479 272 479 285 479 c 1,121,-1
 274 443 l 1,122,-1
 269 429 l 1,123,-1
 258 428 l 1,124,-1
 228 428 l 1,125,-1
 111 428 l 1,126,-1
 111 438 l 1,127,128
 131 438 131 438 136 451 c 0,129,130
 138 456 138 456 138 462.5 c 128,-1,131
 138 469 138 469 137.5 478.5 c 128,-1,132
 137 488 137 488 137 491 c 2,133,-1
 137 562 l 2,134,135
 137 564 137 564 137.5 572 c 128,-1,136
 138 580 138 580 137.5 585.5 c 128,-1,137
 137 591 137 591 136 595 c 0,138,139
 133 603 133 603 127 605.5 c 128,-1,140
 121 608 121 608 111 608 c 1,141,-1
 111 618 l 1,85,-1
EndSplineSet
EndChar

StartChar: uni001C
Encoding: 28 28 28
Width: 790
Flags: W
LayerCount: 2
Fore
SplineSet
522 296 m 1,0,-1
 535 296 l 1,1,-1
 535 230 l 1,2,-1
 522 230 l 1,3,4
 515 266 515 266 497 274 c 0,5,6
 483 282 483 282 465 276 c 128,-1,7
 447 270 447 270 450 251 c 0,8,9
 451 245 451 245 456.5 239 c 128,-1,10
 462 233 462 233 464.5 231.5 c 128,-1,11
 467 230 467 230 476 224 c 0,12,13
 481 221 481 221 500 210.5 c 128,-1,14
 519 200 519 200 527.5 193.5 c 128,-1,15
 536 187 536 187 543 173.5 c 128,-1,16
 550 160 550 160 546 144 c 0,17,18
 540 122 540 122 520 112 c 128,-1,19
 500 102 500 102 475 105 c 0,20,21
 472 105 472 105 466.5 107 c 128,-1,22
 461 109 461 109 456 110.5 c 128,-1,23
 451 112 451 112 446 112.5 c 128,-1,24
 441 113 441 113 438 111 c 128,-1,25
 435 109 435 109 435 104 c 1,26,-1
 421 104 l 1,27,-1
 421 170 l 1,28,-1
 435 170 l 1,29,30
 436 153 436 153 445 140 c 128,-1,31
 454 127 454 127 469 123 c 0,32,33
 485 119 485 119 500.5 125 c 128,-1,34
 516 131 516 131 515 148 c 128,-1,35
 514 165 514 165 484 181 c 0,36,37
 481 183 481 183 472.5 188 c 128,-1,38
 464 193 464 193 460 195 c 128,-1,39
 456 197 456 197 448 202.5 c 128,-1,40
 440 208 440 208 436.5 211.5 c 128,-1,41
 433 215 433 215 428 221.5 c 128,-1,42
 423 228 423 228 421.5 233.5 c 128,-1,43
 420 239 420 239 420 246 c 128,-1,44
 420 253 420 253 422 261 c 0,45,46
 428 280 428 280 445.5 288.5 c 128,-1,47
 463 297 463 297 484 295 c 0,48,49
 493 294 493 294 507 290 c 0,50,51
 515 287 515 287 517 287 c 0,52,53
 520 288 520 288 522 296 c 1,0,-1
221 510 m 1,54,-1
 338 510 l 1,55,-1
 368 510 l 1,56,-1
 380 509 l 1,57,-1
 385 495 l 1,58,-1
 396 459 l 1,59,-1
 381 459 l 1,60,61
 374 484 374 484 359 491 c 0,62,63
 357 492 357 492 337 492 c 2,64,-1
 282 492 l 1,65,-1
 282 424 l 2,66,67
 285 424 285 424 297 423 c 128,-1,68
 309 422 309 422 316.5 422 c 128,-1,69
 324 422 324 422 333 425 c 128,-1,70
 342 428 342 428 345 434 c 0,71,72
 347 437 347 437 347 451 c 1,73,-1
 361 451 l 1,74,-1
 361 380 l 1,75,-1
 347 380 l 1,76,77
 347 393 347 393 345 397 c 0,78,79
 342 403 342 403 333 405.5 c 128,-1,80
 324 408 324 408 316.5 408.5 c 128,-1,81
 309 409 309 409 297 408 c 128,-1,82
 285 407 285 407 282 407 c 2,83,-1
 282 358 l 2,84,85
 282 339 282 339 291 333 c 0,86,87
 295 330 295 330 308 331 c 1,88,-1
 308 321 l 1,89,-1
 221 321 l 1,90,-1
 221 331 l 1,91,92
 241 331 241 331 246 344 c 0,93,94
 248 348 248 348 248 353.5 c 128,-1,95
 248 359 248 359 247.5 367 c 128,-1,96
 247 375 247 375 247 377 c 2,97,-1
 247 448 l 2,98,99
 247 451 247 451 247.5 460 c 128,-1,100
 248 469 248 469 248 475.5 c 128,-1,101
 248 482 248 482 246 487 c 0,102,103
 241 500 241 500 221 500 c 1,104,-1
 221 510 l 1,54,-1
EndSplineSet
EndChar

StartChar: uni001E
Encoding: 30 30 29
Width: 790
Flags: W
LayerCount: 2
Fore
SplineSet
522 296 m 1,0,-1
 535 296 l 1,1,-1
 535 230 l 1,2,-1
 522 230 l 1,3,4
 515 266 515 266 497 274 c 0,5,6
 483 282 483 282 465 276 c 128,-1,7
 447 270 447 270 450 251 c 0,8,9
 451 245 451 245 456.5 239 c 128,-1,10
 462 233 462 233 464.5 231.5 c 128,-1,11
 467 230 467 230 476 224 c 0,12,13
 481 221 481 221 500 210.5 c 128,-1,14
 519 200 519 200 527.5 194 c 128,-1,15
 536 188 536 188 543 174.5 c 128,-1,16
 550 161 550 161 546 145 c 0,17,18
 541 122 541 122 520.5 112.5 c 128,-1,19
 500 103 500 103 475 105 c 0,20,21
 472 105 472 105 466.5 107 c 128,-1,22
 461 109 461 109 456 110.5 c 128,-1,23
 451 112 451 112 446 112.5 c 128,-1,24
 441 113 441 113 438 111 c 128,-1,25
 435 109 435 109 435 104 c 1,26,-1
 421 104 l 1,27,-1
 421 170 l 1,28,-1
 435 170 l 1,29,30
 436 153 436 153 444.5 140 c 128,-1,31
 453 127 453 127 468 124 c 0,32,33
 485 120 485 120 500.5 125.5 c 128,-1,34
 516 131 516 131 515 148 c 0,35,36
 515 156 515 156 509.5 162.5 c 128,-1,37
 504 169 504 169 499 172 c 128,-1,38
 494 175 494 175 485 181 c 0,39,40
 482 183 482 183 474 187 c 2,41,-1
 463 193 l 2,42,43
 459 195 459 195 452 199.5 c 128,-1,44
 445 204 445 204 441.5 207.5 c 128,-1,45
 438 211 438 211 433 215.5 c 128,-1,46
 428 220 428 220 425.5 225 c 128,-1,47
 423 230 423 230 421 235.5 c 128,-1,48
 419 241 419 241 419.5 247.5 c 128,-1,49
 420 254 420 254 422 261 c 0,50,51
 428 280 428 280 445.5 288.5 c 128,-1,52
 463 297 463 297 484 295 c 0,53,54
 493 294 493 294 507 289 c 0,55,56
 515 286 515 286 517 287 c 0,57,58
 520 288 520 288 522 296 c 1,0,-1
270 490 m 1,59,-1
 270 445 l 2,60,61
 270 429 270 429 271 428 c 0,62,63
 274 425 274 425 294 425 c 0,64,65
 320 425 320 425 332 436 c 0,66,67
 342 446 342 446 340 462 c 128,-1,68
 338 478 338 478 326 485 c 0,69,70
 317 490 317 490 305 492 c 0,71,72
 297 493 297 493 293.5 492.5 c 128,-1,73
 290 492 290 492 282 491 c 128,-1,74
 274 490 274 490 270 490 c 1,59,-1
208 510 m 1,75,-1
 288 510 l 2,76,77
 335 510 335 510 355 497 c 0,78,79
 371 487 371 487 374.5 467 c 128,-1,80
 378 447 378 447 367.5 429.5 c 128,-1,81
 357 412 357 412 337 411 c 1,82,-1
 368 358 l 2,83,84
 380 337 380 337 388 333 c 0,85,86
 392 331 392 331 407 331 c 1,87,-1
 407 321 l 1,88,-1
 318 321 l 1,89,-1
 318 331 l 1,90,91
 332 331 332 331 334 333 c 0,92,93
 338 339 338 339 330 353 c 0,94,95
 327 359 327 359 320 371 c 128,-1,96
 313 383 313 383 310 389 c 0,97,98
 301 405 301 405 299 406 c 0,99,100
 296 408 296 408 291 408 c 128,-1,101
 286 408 286 408 278.5 407.5 c 128,-1,102
 271 407 271 407 270 407 c 2,103,-1
 270 358 l 2,104,105
 270 339 270 339 279 333 c 0,106,107
 283 330 283 330 296 331 c 1,108,-1
 296 321 l 1,109,-1
 208 321 l 1,110,-1
 208 331 l 1,111,112
 228 331 228 331 233 344 c 0,113,114
 235 348 235 348 235.5 353.5 c 128,-1,115
 236 359 236 359 235.5 367 c 128,-1,116
 235 375 235 375 235 377 c 2,117,-1
 235 448 l 2,118,119
 235 451 235 451 235.5 460 c 128,-1,120
 236 469 236 469 235.5 475.5 c 128,-1,121
 235 482 235 482 233 487 c 0,122,123
 228 500 228 500 208 500 c 1,124,-1
 208 510 l 1,75,-1
EndSplineSet
EndChar

StartChar: uni001F
Encoding: 31 31 30
Width: 790
Flags: W
LayerCount: 2
Fore
SplineSet
522 296 m 1,0,-1
 535 296 l 1,1,-1
 535 230 l 1,2,-1
 522 230 l 1,3,4
 515 266 515 266 497 274 c 0,5,6
 483 282 483 282 465 276 c 128,-1,7
 447 270 447 270 450 251 c 0,8,9
 451 245 451 245 456.5 239 c 128,-1,10
 462 233 462 233 464.5 231.5 c 128,-1,11
 467 230 467 230 476 224 c 0,12,13
 481 221 481 221 500 210.5 c 128,-1,14
 519 200 519 200 527.5 194 c 128,-1,15
 536 188 536 188 543 174.5 c 128,-1,16
 550 161 550 161 546 145 c 0,17,18
 541 122 541 122 520.5 112.5 c 128,-1,19
 500 103 500 103 475 105 c 0,20,21
 472 105 472 105 466.5 107 c 128,-1,22
 461 109 461 109 456 110.5 c 128,-1,23
 451 112 451 112 446 112.5 c 128,-1,24
 441 113 441 113 438 111 c 128,-1,25
 435 109 435 109 435 104 c 1,26,-1
 421 104 l 1,27,-1
 421 170 l 1,28,-1
 435 170 l 1,29,30
 436 153 436 153 444.5 140 c 128,-1,31
 453 127 453 127 468 124 c 0,32,33
 485 120 485 120 500.5 125.5 c 128,-1,34
 516 131 516 131 515 148 c 0,35,36
 515 156 515 156 509.5 162.5 c 128,-1,37
 504 169 504 169 499 172 c 128,-1,38
 494 175 494 175 485 181 c 0,39,40
 482 183 482 183 474 187 c 2,41,-1
 463 193 l 2,42,43
 459 195 459 195 452 199.5 c 128,-1,44
 445 204 445 204 441.5 207.5 c 128,-1,45
 438 211 438 211 433 215.5 c 128,-1,46
 428 220 428 220 425.5 225 c 128,-1,47
 423 230 423 230 421 235.5 c 128,-1,48
 419 241 419 241 419.5 247.5 c 128,-1,49
 420 254 420 254 422 261 c 0,50,51
 428 280 428 280 445.5 288.5 c 128,-1,52
 463 297 463 297 484 295 c 0,53,54
 493 294 493 294 507 289 c 0,55,56
 515 286 515 286 517 287 c 0,57,58
 520 288 520 288 522 296 c 1,0,-1
204 510 m 1,59,-1
 293 510 l 1,60,-1
 293 500 l 1,61,62
 272 500 272 500 267 488 c 0,63,64
 265 483 265 483 265 476 c 128,-1,65
 265 469 265 469 265.5 459.5 c 128,-1,66
 266 450 266 450 266 447 c 2,67,-1
 266 430 l 1,68,-1
 266 409 l 2,69,70
 266 402 266 402 267 389 c 128,-1,71
 268 376 268 376 272 369 c 2,72,-1
 280 354 l 2,73,74
 284 345 284 345 293 341.5 c 128,-1,75
 302 338 302 338 313 338 c 128,-1,76
 324 338 324 338 333 343 c 0,77,78
 344 349 344 349 350.5 357.5 c 128,-1,79
 357 366 357 366 359.5 379 c 128,-1,80
 362 392 362 392 362.5 400 c 128,-1,81
 363 408 363 408 362.5 425.5 c 128,-1,82
 362 443 362 443 362 448 c 0,83,84
 362 450 362 450 362.5 460.5 c 128,-1,85
 363 471 363 471 363 477 c 128,-1,86
 363 483 363 483 360 490 c 128,-1,87
 357 497 357 497 351 499 c 0,88,89
 349 500 349 500 336 500 c 1,90,-1
 336 510 l 1,91,-1
 411 510 l 1,92,-1
 411 500 l 1,93,94
 398 500 398 500 396 499 c 0,95,96
 390 496 390 496 387 488 c 128,-1,97
 384 480 384 480 384 473 c 128,-1,98
 384 466 384 466 384.5 454.5 c 128,-1,99
 385 443 385 443 385 441 c 0,100,101
 385 437 385 437 385.5 422.5 c 128,-1,102
 386 408 386 408 385.5 402 c 128,-1,103
 385 396 385 396 383.5 384 c 128,-1,104
 382 372 382 372 379.5 365 c 128,-1,105
 377 358 377 358 371.5 349.5 c 128,-1,106
 366 341 366 341 358 335 c 0,107,108
 349 328 349 328 341 325 c 0,109,110
 329 320 329 320 317 320 c 0,111,112
 286 320 286 320 263.5 333 c 128,-1,113
 241 346 241 346 233 375 c 0,114,115
 230 386 230 386 230 423 c 2,116,-1
 230 473 l 2,117,118
 230 492 230 492 221 498 c 0,119,120
 218 500 218 500 204 500 c 1,121,-1
 204 510 l 1,59,-1
EndSplineSet
EndChar

StartChar: exclam
Encoding: 33 33 32
Width: 187
Flags: W
LayerCount: 2
Fore
SplineSet
120 58 m 0,0,1
 139 49 139 49 138 47 c 0,2,3
 130 39 130 39 114 18 c 0,4,5
 90 -13 90 -13 88 -18 c 1,6,-1
 58 20 l 1,7,-1
 34 45 l 1,8,9
 62 60 62 60 78 99 c 1,10,11
 83 98 83 98 100.5 79 c 128,-1,12
 118 60 118 60 120 58 c 0,0,1
63 474 m 1,13,14
 113 505 113 505 158 509 c 1,15,16
 157 457 157 457 137.5 360 c 128,-1,17
 118 263 118 263 114 231 c 0,18,19
 114 227 114 227 113 214 c 128,-1,20
 112 201 112 201 111.5 191.5 c 128,-1,21
 111 182 111 182 108 171 c 128,-1,22
 105 160 105 160 99.5 154 c 128,-1,23
 94 148 94 148 85 147 c 1,24,25
 85 184 85 184 86.5 256 c 128,-1,26
 88 328 88 328 88 364 c 2,27,-1
 88 384 l 1,28,-1
 88 404 l 2,29,30
 88 409 88 409 87 420.5 c 128,-1,31
 86 432 86 432 83 439 c 128,-1,32
 80 446 80 446 75 454.5 c 128,-1,33
 70 463 70 463 63 471 c 1,34,-1
 63 474 l 1,13,14
EndSplineSet
EndChar

StartChar: quotedbl
Encoding: 34 34 33
Width: 260
Flags: W
LayerCount: 2
Fore
SplineSet
219 483 m 0,0,1
 219 471 219 471 218 461 c 2,2,-1
 205 362 l 2,3,4
 204 349 204 349 200 327 c 0,5,6
 200 324 200 324 189 324 c 0,7,8
 177 326 177 326 176 327 c 0,9,10
 174 348 174 348 174 357 c 2,11,-1
 156 474 l 1,12,-1
 156 483 l 2,13,14
 156 512 156 512 188 512 c 0,15,16
 219 512 219 512 219 483 c 0,0,1
108 483 m 2,17,-1
 87 327 l 2,18,19
 87 324 87 324 75 324 c 0,20,21
 64 325 64 325 63 327 c 0,22,23
 60 355 60 355 50 409 c 0,24,25
 40 462 40 462 42 483 c 0,26,27
 42 512 42 512 75 512 c 128,-1,28
 108 512 108 512 108 483 c 2,17,-1
EndSplineSet
EndChar

StartChar: numbersign
Encoding: 35 35 34
Width: 633
Flags: W
LayerCount: 2
Fore
SplineSet
185 226 m 1,0,-1
 412 226 l 1,1,-1
 453 426 l 1,2,-1
 290 426 l 1,3,-1
 229 422 l 1,4,-1
 214 374 l 1,5,-1
 185 226 l 1,0,-1
238 678 m 1,6,-1
 278 678 l 1,7,8
 261 554 261 554 230 470 c 1,9,-1
 397 470 l 1,10,-1
 457 477 l 1,11,-1
 471 522 l 1,12,-1
 494 634 l 1,13,-1
 507 674 l 1,14,-1
 545 678 l 1,15,-1
 501 470 l 1,16,-1
 609 470 l 1,17,-1
 609 426 l 1,18,-1
 494 426 l 1,19,-1
 453 226 l 1,20,-1
 609 226 l 1,21,-1
 609 181 l 1,22,-1
 442 181 l 1,23,-1
 414 32 l 1,24,-1
 399 -19 l 1,25,-1
 360 -23 l 1,26,-1
 401 181 l 1,27,-1
 238 181 l 1,28,-1
 177 175 l 1,29,-1
 163 129 l 1,30,-1
 141 22 l 1,31,-1
 127 -19 l 1,32,-1
 89 -23 l 1,33,-1
 130 181 l 1,34,-1
 26 181 l 1,35,-1
 26 226 l 1,36,-1
 141 226 l 1,37,-1
 181 426 l 1,38,-1
 26 426 l 1,39,-1
 26 470 l 1,40,-1
 193 470 l 1,41,-1
 238 678 l 1,6,-1
EndSplineSet
EndChar

StartChar: dollar
Encoding: 36 36 35
Width: 465
Flags: W
LayerCount: 2
Fore
SplineSet
218 363 m 1,0,-1
 226 571 l 1,1,2
 172 568 172 568 140 531.5 c 128,-1,3
 108 495 108 495 130 445 c 0,4,5
 150 401 150 401 218 363 c 1,0,-1
241 274 m 1,6,-1
 241 22 l 1,7,8
 279 25 279 25 314 46 c 128,-1,9
 349 67 349 67 365 101 c 128,-1,10
 381 135 381 135 362 178 c 0,11,12
 334 235 334 235 241 274 c 1,6,-1
218 637 m 1,13,-1
 245 637 l 1,14,-1
 245 593 l 1,15,16
 285 593 285 593 326.5 579.5 c 128,-1,17
 368 566 368 566 389 540 c 0,18,19
 399 528 399 528 376.5 498 c 128,-1,20
 354 468 354 468 337 466 c 1,21,22
 336 544 336 544 245 571 c 1,23,-1
 245 419 l 2,24,25
 245 414 245 414 243.5 398.5 c 128,-1,26
 242 383 242 383 243 371.5 c 128,-1,27
 244 360 244 360 247 352 c 0,28,29
 251 344 251 344 259.5 338 c 128,-1,30
 268 332 268 332 283.5 324 c 128,-1,31
 299 316 299 316 300 315 c 0,32,33
 357 283 357 283 388 244 c 0,34,35
 420 202 420 202 416.5 159 c 128,-1,36
 413 116 413 116 389 81 c 128,-1,37
 365 46 365 46 323 23 c 0,38,39
 282 0 282 0 238 -1 c 1,40,-1
 238 -71 l 1,41,-1
 218 -71 l 1,42,-1
 218 -1 l 1,43,44
 207 0 207 0 195 3 c 2,45,-1
 174 8 l 2,46,47
 164 11 164 11 153 18 c 128,-1,48
 142 25 142 25 135 28.5 c 128,-1,49
 128 32 128 32 116.5 42 c 128,-1,50
 105 52 105 52 100 56 c 128,-1,51
 95 60 95 60 83 72 c 2,52,-1
 68 88 l 2,53,54
 65 91 65 91 52.5 105 c 128,-1,55
 40 119 40 119 37 122 c 2,56,-1
 37 125 l 1,57,-1
 89 196 l 1,58,-1
 93 196 l 1,59,60
 100 185 100 185 102 161 c 128,-1,61
 104 137 104 137 105 129 c 0,62,63
 117 88 117 88 147.5 60.5 c 128,-1,64
 178 33 178 33 218 26 c 1,65,-1
 218 200 l 2,66,67
 218 206 218 206 219.5 223.5 c 128,-1,68
 221 241 221 241 220.5 254.5 c 128,-1,69
 220 268 220 268 217 277 c 0,70,71
 214 284 214 284 208.5 288.5 c 128,-1,72
 203 293 203 293 191 300 c 2,73,-1
 179 306 l 2,74,75
 125 336 125 336 102 363 c 0,76,77
 72 399 72 399 69 439.5 c 128,-1,78
 66 480 66 480 85 512 c 128,-1,79
 104 544 104 544 140 567 c 128,-1,80
 176 590 176 590 218 593 c 1,81,-1
 218 637 l 1,13,-1
EndSplineSet
EndChar

StartChar: percent
Encoding: 37 37 36
Width: 731
Flags: W
LayerCount: 2
Fore
SplineSet
538 257 m 0,0,1
 486 245 486 245 472 175 c 0,2,3
 458 108 458 108 490 50 c 0,4,5
 522 -11 522 -11 580 2 c 0,6,7
 609 9 609 9 625.5 34.5 c 128,-1,8
 642 60 642 60 643.5 92 c 128,-1,9
 645 124 645 124 639.5 156 c 128,-1,10
 634 188 634 188 623 211 c 0,11,12
 609 237 609 237 587 250 c 128,-1,13
 565 263 565 263 538 257 c 0,0,1
542 275 m 0,14,15
 625 289 625 289 668 221 c 0,16,17
 706 163 706 163 690 92 c 0,18,19
 674 17 674 17 610 -8 c 0,20,21
 596 -14 596 -14 580 -17 c 0,22,23
 494 -31 494 -31 450 37 c 0,24,25
 412 95 412 95 428 166 c 0,26,27
 444 241 444 241 508 266 c 0,28,29
 524 272 524 272 542 275 c 0,14,15
162 560 m 0,30,31
 132 554 132 554 115.5 528.5 c 128,-1,32
 99 503 99 503 96 471.5 c 128,-1,33
 93 440 93 440 98 408.5 c 128,-1,34
 103 377 103 377 113 355 c 0,35,36
 127 327 127 327 150 312 c 128,-1,37
 173 297 173 297 201 304 c 0,38,39
 229 310 229 310 245 335.5 c 128,-1,40
 261 361 261 361 263.5 392.5 c 128,-1,41
 266 424 266 424 261 455 c 128,-1,42
 256 486 256 486 246 509 c 0,43,44
 234 536 234 536 211.5 551 c 128,-1,45
 189 566 189 566 162 560 c 0,30,31
162 578 m 0,46,47
 244 592 244 592 288 526 c 0,48,49
 326 469 326 469 311 396 c 0,50,51
 296 320 296 320 232 293 c 0,52,53
 218 288 218 288 204 285 c 0,54,55
 119 270 119 270 75 337 c 0,56,57
 37 394 37 394 50 464 c 0,58,59
 64 540 64 540 130 569 c 0,60,61
 144 575 144 575 162 578 c 0,46,47
155 -40 m 1,62,63
 164 -15 164 -15 181 12 c 128,-1,64
 198 39 198 39 221 71 c 128,-1,65
 244 103 244 103 254 119 c 0,66,67
 366 296 366 296 448 442 c 0,68,69
 454 454 454 454 470 488.5 c 128,-1,70
 486 523 486 523 501 548.5 c 128,-1,71
 516 574 516 574 533 587 c 0,72,73
 538 591 538 591 545 592.5 c 128,-1,74
 552 594 552 594 562.5 595.5 c 128,-1,75
 573 597 573 597 577 597 c 1,76,77
 525 500 525 500 416 325 c 2,78,-1
 278 101 l 2,79,80
 273 93 273 93 262 70.5 c 128,-1,81
 251 48 251 48 241 30.5 c 128,-1,82
 231 13 231 13 218 -5.5 c 128,-1,83
 205 -24 205 -24 188.5 -33.5 c 128,-1,84
 172 -43 172 -43 155 -40 c 1,62,63
EndSplineSet
EndChar

StartChar: ampersand
Encoding: 38 38 37
Width: 565
Flags: W
LayerCount: 2
Fore
SplineSet
164 302 m 1,0,1
 71 264 71 264 72 182 c 0,2,3
 72 114 72 114 102 82 c 0,4,5
 144 37 144 37 202 37 c 0,6,7
 228 37 228 37 254.5 51 c 128,-1,8
 281 65 281 65 294 79 c 2,9,-1
 326 115 l 1,10,11
 283 210 283 210 255 241.5 c 128,-1,12
 227 273 227 273 164 302 c 1,0,1
160 500 m 0,13,14
 138 500 138 500 117 483 c 128,-1,15
 96 466 96 466 96 441 c 0,16,17
 96 427 96 427 102 414.5 c 128,-1,18
 108 402 108 402 121 391 c 128,-1,19
 134 380 134 380 142.5 374.5 c 128,-1,20
 151 369 151 369 170.5 358 c 128,-1,21
 190 347 190 347 193 345 c 0,22,23
 247 379 247 379 247 407 c 0,24,25
 247 446 247 446 222.5 473 c 128,-1,26
 198 500 198 500 160 500 c 0,13,14
193 545 m 1,27,28
 299 508 299 508 292 416 c 1,29,30
 278 379 278 379 212 335 c 1,31,32
 270 313 270 313 302 274 c 128,-1,33
 334 235 334 235 359 176 c 1,34,35
 383 214 383 214 409 277 c 128,-1,36
 435 340 435 340 443 378 c 0,37,38
 446 391 446 391 438 399 c 0,39,40
 428 409 428 409 407 417 c 0,41,42
 400 419 400 419 404 425 c 0,43,44
 407 433 407 433 412 431 c 0,45,46
 431 423 431 423 473 415 c 0,47,48
 508 409 508 409 527 410 c 0,49,50
 534 410 534 410 533 404 c 0,51,52
 533 395 533 395 527 395 c 0,53,54
 511 395 511 395 502 391 c 0,55,56
 484 385 484 385 472 354 c 0,57,58
 416 224 416 224 373 150 c 1,59,60
 397 89 397 89 423.5 59 c 128,-1,61
 450 29 450 29 474 29 c 0,62,63
 510 29 510 29 540 96 c 0,64,65
 545 105 545 105 553 101 c 0,66,67
 562 97 562 97 561 91 c 0,68,69
 545 55 545 55 522 27 c 0,70,71
 509 13 509 13 484.5 4.5 c 128,-1,72
 460 -4 460 -4 442 -4 c 0,73,74
 411 -4 411 -4 383.5 22.5 c 128,-1,75
 356 49 356 49 338 91 c 1,76,77
 334 87 334 87 316 65.5 c 128,-1,78
 298 44 298 44 283 30.5 c 128,-1,79
 268 17 268 17 236 4 c 128,-1,80
 204 -9 204 -9 165 -9 c 0,81,82
 95 -9 95 -9 55 37 c 128,-1,83
 15 83 15 83 15 143.5 c 128,-1,84
 15 204 15 204 50.5 248.5 c 128,-1,85
 86 293 86 293 141 316 c 1,86,87
 67 356 67 356 67 422 c 0,88,89
 67 440 67 440 73 455 c 128,-1,90
 79 470 79 470 86 479.5 c 128,-1,91
 93 489 93 489 109 500 c 128,-1,92
 125 511 125 511 133.5 516 c 128,-1,93
 142 521 142 521 163.5 531 c 128,-1,94
 185 541 185 541 193 545 c 1,27,28
EndSplineSet
EndChar

StartChar: quotesingle
Encoding: 39 39 38
Width: 144
Flags: W
LayerCount: 2
Fore
SplineSet
106 483 m 2,0,-1
 85 327 l 2,1,2
 85 324 85 324 73 324 c 0,3,4
 62 325 62 325 61 327 c 0,5,6
 60 334 60 334 59 344 c 128,-1,7
 58 354 58 354 58 357 c 2,8,-1
 42 474 l 1,9,-1
 42 483 l 2,10,11
 42 512 42 512 74 512 c 128,-1,12
 106 512 106 512 106 483 c 2,0,-1
EndSplineSet
EndChar

StartChar: parenleft
Encoding: 40 40 39
Width: 231
Flags: W
LayerCount: 2
Fore
SplineSet
224 -113 m 0,0,1
 224 -116 224 -116 216 -121 c 2,2,-1
 211 -124 l 1,3,4
 203 -124 203 -124 196 -116 c 0,5,6
 128 -56 128 -56 95 10 c 0,7,8
 53 96 53 96 55 203 c 0,9,10
 55 291 55 291 103 396 c 0,11,12
 136 467 136 467 196 525 c 0,13,14
 202 531 202 531 211 530 c 0,15,16
 219 530 219 530 221 525 c 0,17,18
 224 522 224 522 224 520 c 0,19,20
 224 515 224 515 216 508 c 0,21,22
 102 390 102 390 104 203 c 0,23,24
 104 21 104 21 218 -100 c 0,25,26
 224 -105 224 -105 224 -113 c 0,0,1
EndSplineSet
Substitution2: "'rtla' Right to Left Alternates lookup 0 subtable" parenright
EndChar

StartChar: parenright
Encoding: 41 41 40
Width: 222
Flags: W
LayerCount: 2
Fore
SplineSet
176 203 m 0,0,1
 176 111 176 111 130 10 c 0,2,3
 99 -60 99 -60 37 -116 c 0,4,5
 30 -123 30 -123 22 -124 c 0,6,7
 13 -124 13 -124 10 -116 c 0,8,9
 8 -114 8 -114 9 -113 c 0,10,11
 9 -107 9 -107 13 -100 c 0,12,13
 126 16 126 16 129 203 c 0,14,15
 129 385 129 385 13 507 c 0,16,17
 8 512 8 512 9 520 c 0,18,19
 9 523 9 523 16 527 c 0,20,21
 19 530 19 530 22 530 c 0,22,23
 31 530 31 530 37 525 c 0,24,25
 102 465 102 465 134 396 c 0,26,27
 176 311 176 311 176 203 c 0,0,1
EndSplineSet
Substitution2: "'rtla' Right to Left Alternates lookup 0 subtable" parenleft
EndChar

StartChar: asterisk
Encoding: 42 42 41
Width: 336
Flags: W
LayerCount: 2
Fore
SplineSet
152 505 m 0,0,1
 131 500 131 500 119 484.5 c 128,-1,2
 107 469 107 469 108 450.5 c 128,-1,3
 109 432 109 432 116.5 415.5 c 128,-1,4
 124 399 124 399 142.5 390.5 c 128,-1,5
 161 382 161 382 181 388 c 0,6,7
 203 393 203 393 214.5 408.5 c 128,-1,8
 226 424 226 424 225 442 c 128,-1,9
 224 460 224 460 216.5 476.5 c 128,-1,10
 209 493 209 493 191.5 502 c 128,-1,11
 174 511 174 511 152 505 c 0,0,1
160 619 m 1,12,-1
 179 619 l 1,13,-1
 204 515 l 1,14,-1
 315 542 l 1,15,16
 316 528 316 528 306 515 c 128,-1,17
 296 502 296 502 284 493.5 c 128,-1,18
 272 485 272 485 261 472.5 c 128,-1,19
 250 460 250 460 250 446.5 c 128,-1,20
 250 433 250 433 261 420.5 c 128,-1,21
 272 408 272 408 284 399 c 128,-1,22
 296 390 296 390 306 378 c 128,-1,23
 316 366 316 366 315 352 c 1,24,25
 310 353 310 353 272 366 c 128,-1,26
 234 379 234 379 216 374 c 0,27,28
 211 372 211 372 206.5 369.5 c 128,-1,29
 202 367 202 367 199.5 361 c 128,-1,30
 197 355 197 355 194 350 c 128,-1,31
 191 345 191 345 189 337 c 2,32,-1
 186 324 l 2,33,34
 184 318 184 318 182.5 308.5 c 128,-1,35
 181 299 181 299 180.5 295.5 c 128,-1,36
 180 292 180 292 179.5 283.5 c 128,-1,37
 179 275 179 275 179 274 c 2,38,-1
 160 274 l 2,39,40
 160 277 160 277 156.5 297.5 c 128,-1,41
 153 318 153 318 150.5 329.5 c 128,-1,42
 148 341 148 341 141 355 c 128,-1,43
 134 369 134 369 125 373 c 0,44,45
 108 382 108 382 65 367 c 128,-1,46
 22 352 22 352 19 352 c 0,47,48
 17 365 17 365 27 377.5 c 128,-1,49
 37 390 37 390 50 399 c 128,-1,50
 63 408 63 408 73.5 420.5 c 128,-1,51
 84 433 84 433 84 446.5 c 128,-1,52
 84 460 84 460 73 472.5 c 128,-1,53
 62 485 62 485 49.5 493.5 c 128,-1,54
 37 502 37 502 27 514 c 0,55,56
 17 528 17 528 19 542 c 1,57,58
 25 541 25 541 64.5 526 c 128,-1,59
 104 511 104 511 122 518 c 0,60,61
 131 521 131 521 136.5 529.5 c 128,-1,62
 142 538 142 538 146 551 c 128,-1,63
 150 564 150 564 152.5 574.5 c 128,-1,64
 155 585 155 585 157 600 c 128,-1,65
 159 615 159 615 160 619 c 1,12,-1
EndSplineSet
EndChar

StartChar: plus
Encoding: 43 43 42
Width: 351
Flags: W
LayerCount: 2
Fore
SplineSet
315 129 m 1,0,-1
 199 129 l 1,1,-1
 199 0 l 1,2,-1
 158 0 l 1,3,-1
 158 129 l 1,4,-1
 42 129 l 1,5,-1
 42 162 l 1,6,-1
 158 162 l 1,7,-1
 158 280 l 1,8,-1
 199 280 l 1,9,-1
 199 162 l 1,10,-1
 315 162 l 1,11,-1
 315 129 l 1,0,-1
EndSplineSet
EndChar

StartChar: comma
Encoding: 44 44 43
Width: 186
Flags: W
LayerCount: 2
Fore
SplineSet
29 -96 m 1,0,-1
 37 -107 l 1,1,-1
 29 -96 l 1,0,-1
88 109 m 1,2,3
 93 108 93 108 97 105.5 c 128,-1,4
 101 103 101 103 102 101 c 2,5,-1
 108 94 l 1,6,-1
 115 88 l 2,7,8
 118 84 118 84 126 79 c 128,-1,9
 134 74 134 74 140 69 c 128,-1,10
 146 64 146 64 148 57 c 128,-1,11
 150 50 150 50 143.5 37 c 128,-1,12
 137 24 137 24 137 22 c 0,13,14
 114 -73 114 -73 37 -107 c 1,15,-1
 29 -89 l 1,16,17
 60 -71 60 -71 77.5 -47.5 c 128,-1,18
 95 -24 95 -24 81 3 c 0,19,20
 77 10 77 10 62 25.5 c 128,-1,21
 47 41 47 41 44 55 c 1,22,23
 72 70 72 70 88 109 c 1,2,3
EndSplineSet
EndChar

StartChar: hyphen
Encoding: 45 45 44
Width: 284
Flags: W
LayerCount: 2
Fore
SplineSet
245 208 m 2,0,1
 250 208 250 208 251 191 c 0,2,3
 251 169 251 169 245 169 c 2,4,-1
 40 169 l 2,5,6
 36 169 36 169 34 188 c 0,7,8
 34 208 34 208 40 208 c 2,9,-1
 245 208 l 2,0,1
EndSplineSet
EndChar

StartChar: period
Encoding: 46 46 45
Width: 186
Flags: W
LayerCount: 2
Fore
SplineSet
130 68 m 0,0,1
 149 59 149 59 148 57 c 0,2,3
 140 49 140 49 124 28 c 0,4,5
 100 -3 100 -3 98 -8 c 1,6,-1
 68 30 l 1,7,-1
 44 55 l 1,8,9
 72 70 72 70 88 109 c 1,10,11
 93 108 93 108 110.5 89 c 128,-1,12
 128 70 128 70 130 68 c 0,0,1
EndSplineSet
EndChar

StartChar: slash
Encoding: 47 47 46
Width: 245
Flags: W
LayerCount: 2
Fore
SplineSet
37 -3 m 2,0,1
 37 -5 37 -5 32 -5 c 128,-1,2
 27 -5 27 -5 15 0 c 0,3,4
 10 2 10 2 7 4.5 c 128,-1,5
 4 7 4 7 2.5 8 c 128,-1,6
 1 9 1 9 2 10 c 2,7,-1
 2 12 l 1,8,-1
 214 510 l 2,9,10
 214 511 214 511 216 512 c 0,11,12
 221 512 221 512 233 510 c 0,13,14
 248 503 248 503 248 496 c 2,15,-1
 248 495 l 1,16,-1
 37 -3 l 2,0,1
EndSplineSet
EndChar

StartChar: zero
Encoding: 48 48 47
Width: 411
Flags: W
LayerCount: 2
Fore
SplineSet
177 303 m 0,0,1
 145 296 145 296 123.5 276 c 128,-1,2
 102 256 102 256 94 228.5 c 128,-1,3
 86 201 86 201 87 169.5 c 128,-1,4
 88 138 88 138 101 108.5 c 128,-1,5
 114 79 114 79 131.5 56 c 128,-1,6
 149 33 149 33 176.5 21.5 c 128,-1,7
 204 10 204 10 235 15 c 0,8,9
 302 26 302 26 319 98 c 0,10,11
 336 166 336 166 300 232 c 0,12,13
 263 302 263 302 199 305 c 0,14,15
 188 305 188 305 177 303 c 0,0,1
183 324 m 0,16,17
 223 331 223 331 260 319 c 128,-1,18
 297 307 297 307 322.5 283.5 c 128,-1,19
 348 260 348 260 363 227.5 c 128,-1,20
 378 195 378 195 379.5 160.5 c 128,-1,21
 381 126 381 126 365 91 c 128,-1,22
 349 56 349 56 316 30 c 0,23,24
 279 1 279 1 224 -7 c 0,25,26
 185 -13 185 -13 148.5 -0.5 c 128,-1,27
 112 12 112 12 87 36.5 c 128,-1,28
 62 61 62 61 47.5 94.5 c 128,-1,29
 33 128 33 128 32.5 162 c 128,-1,30
 32 196 32 196 49 230.5 c 128,-1,31
 66 265 66 265 99 290 c 0,32,33
 137 316 137 316 183 324 c 0,16,17
EndSplineSet
EndChar

StartChar: one
Encoding: 49 49 48
Width: 264
Flags: W
LayerCount: 2
Fore
SplineSet
66 -1 m 1,0,-1
 66 -5 l 1,1,-1
 206 -5 l 1,2,3
 189 3 189 3 165 4 c 128,-1,4
 141 5 141 5 109 2 c 128,-1,5
 77 -1 77 -1 66 -1 c 1,0,-1
48 326 m 1,6,-1
 210 348 l 1,7,-1
 213 330 l 1,8,9
 199 321 199 321 189 308 c 128,-1,10
 179 295 179 295 173 278.5 c 128,-1,11
 167 262 167 262 163.5 248 c 128,-1,12
 160 234 160 234 158.5 212.5 c 128,-1,13
 157 191 157 191 157 178 c 128,-1,14
 157 165 157 165 157.5 141.5 c 128,-1,15
 158 118 158 118 158 109 c 0,16,17
 158 106 158 106 157.5 94 c 128,-1,18
 157 82 157 82 157.5 75 c 128,-1,19
 158 68 158 68 159 57.5 c 128,-1,20
 160 47 160 47 162.5 39.5 c 128,-1,21
 165 32 165 32 171 26 c 0,22,23
 182 12 182 12 231 10 c 1,24,-1
 231 -5 l 1,25,-1
 40 -5 l 1,26,-1
 40 10 l 1,27,28
 59 12 59 12 72.5 19.5 c 128,-1,29
 86 27 86 27 94 41 c 128,-1,30
 102 55 102 55 106 69.5 c 128,-1,31
 110 84 110 84 111 104.5 c 128,-1,32
 112 125 112 125 112 140 c 128,-1,33
 112 155 112 155 111 176.5 c 128,-1,34
 110 198 110 198 110 209 c 0,35,36
 110 212 110 212 110.5 228.5 c 128,-1,37
 111 245 111 245 111 254.5 c 128,-1,38
 111 264 111 264 108 276.5 c 128,-1,39
 105 289 105 289 100 295 c 0,40,41
 98 298 98 298 94.5 300.5 c 128,-1,42
 91 303 91 303 86.5 304 c 128,-1,43
 82 305 82 305 78.5 305.5 c 128,-1,44
 75 306 75 306 69 306.5 c 128,-1,45
 63 307 63 307 60 307 c 2,46,-1
 51 307 l 1,47,-1
 44 307 l 1,48,-1
 48 326 l 1,6,-1
EndSplineSet
EndChar

StartChar: two
Encoding: 50 50 49
Width: 391
Flags: W
LayerCount: 2
Fore
SplineSet
73 274 m 1,0,1
 65 297 65 297 99 323 c 0,2,3
 126 344 126 344 164 350 c 128,-1,4
 202 356 202 356 235 345 c 0,5,6
 276 333 276 333 291 297 c 128,-1,7
 306 261 306 261 285 224 c 0,8,9
 267 192 267 192 239 162.5 c 128,-1,10
 211 133 211 133 171.5 101 c 128,-1,11
 132 69 132 69 114 51 c 1,12,-1
 227 46 l 1,13,-1
 312 48 l 1,14,-1
 356 102 l 1,15,-1
 371 95 l 1,16,17
 369 91 369 91 362 76 c 128,-1,18
 355 61 355 61 352 53.5 c 128,-1,19
 349 46 349 46 341.5 32.5 c 128,-1,20
 334 19 334 19 327.5 10.5 c 128,-1,21
 321 2 321 2 313.5 -6.5 c 128,-1,22
 306 -15 306 -15 297 -19 c 1,23,24
 291 -12 291 -12 284 -8 c 128,-1,25
 277 -4 277 -4 267.5 -2.5 c 128,-1,26
 258 -1 258 -1 252 -0.5 c 128,-1,27
 246 0 246 0 233.5 -0.5 c 128,-1,28
 221 -1 221 -1 216 -1 c 2,29,-1
 25 -1 l 1,30,31
 31 10 31 10 42.5 20.5 c 128,-1,32
 54 31 54 31 70 43 c 128,-1,33
 86 55 86 55 92 59 c 0,34,35
 93 60 93 60 106.5 72 c 128,-1,36
 120 84 120 84 122.5 86 c 128,-1,37
 125 88 125 88 137 99 c 128,-1,38
 149 110 149 110 153 114 c 128,-1,39
 157 118 157 118 168 128 c 128,-1,40
 179 138 179 138 183 143.5 c 128,-1,41
 187 149 187 149 195 159 c 128,-1,42
 203 169 203 169 207.5 176.5 c 128,-1,43
 212 184 212 184 217 193.5 c 128,-1,44
 222 203 222 203 226 212 c 0,45,46
 242 254 242 254 222 293 c 128,-1,47
 202 332 202 332 154 325 c 0,48,49
 139 322 139 322 123.5 313.5 c 128,-1,50
 108 305 108 305 100.5 298 c 128,-1,51
 93 291 93 291 77 274 c 1,52,-1
 73 274 l 1,0,1
EndSplineSet
EndChar

StartChar: three
Encoding: 51 51 50
Width: 294
Flags: W
LayerCount: 2
Fore
SplineSet
44 290 m 1,0,1
 77 319 77 319 110 330 c 0,2,3
 161 347 161 347 202.5 321.5 c 128,-1,4
 244 296 244 296 238 242 c 0,5,6
 234 212 234 212 208.5 181.5 c 128,-1,7
 183 151 183 151 154 139 c 1,8,-1
 154 132 l 1,9,10
 199 112 199 112 226.5 71.5 c 128,-1,11
 254 31 254 31 253 -17.5 c 128,-1,12
 252 -66 252 -66 219 -103 c 0,13,14
 187 -141 187 -141 141.5 -163 c 128,-1,15
 96 -185 96 -185 33 -203 c 1,16,-1
 29 -188 l 1,17,18
 38 -183 38 -183 60 -172 c 2,19,-1
 96 -155 l 2,20,21
 110 -148 110 -148 129.5 -135.5 c 128,-1,22
 149 -123 149 -123 161.5 -112.5 c 128,-1,23
 174 -102 174 -102 185.5 -86 c 128,-1,24
 197 -70 197 -70 200 -54.5 c 128,-1,25
 203 -39 203 -39 199.5 -19.5 c 128,-1,26
 196 0 196 0 183 22 c 0,27,28
 169 45 169 45 150 60 c 0,29,30
 117 88 117 88 96 90 c 0,31,32
 88 90 88 90 80.5 88 c 128,-1,33
 73 86 73 86 68 84 c 128,-1,34
 63 82 63 82 56.5 83.5 c 128,-1,35
 50 85 50 85 44 91 c 1,36,37
 50 94 50 94 73.5 107 c 128,-1,38
 97 120 97 120 106 126 c 2,39,-1
 132 145 l 2,40,41
 149 157 149 157 160.5 169.5 c 128,-1,42
 172 182 172 182 181 197 c 0,43,44
 199 227 199 227 189.5 259.5 c 128,-1,45
 180 292 180 292 147 306 c 0,46,47
 130 314 130 314 111.5 306 c 128,-1,48
 93 298 93 298 75.5 289.5 c 128,-1,49
 58 281 58 281 44 286 c 1,50,-1
 44 290 l 1,0,1
EndSplineSet
EndChar

StartChar: four
Encoding: 52 52 51
Width: 440
Flags: W
LayerCount: 2
Fore
SplineSet
243 245 m 1,0,-1
 132 117 l 1,1,-1
 77 47 l 1,2,-1
 250 43 l 1,3,4
 250 57 250 57 253.5 104.5 c 128,-1,5
 257 152 257 152 255.5 186.5 c 128,-1,6
 254 221 254 221 243 245 c 1,0,-1
305 370 m 1,7,-1
 320 367 l 1,8,-1
 305 39 l 1,9,10
 318 43 318 43 341.5 45 c 128,-1,11
 365 47 365 47 379.5 54 c 128,-1,12
 394 61 394 61 408 80 c 1,13,-1
 422 76 l 1,14,-1
 384 -1 l 1,15,-1
 301 -1 l 1,16,-1
 305 -115 l 1,17,-1
 305 -152 l 1,18,-1
 231 -210 l 1,19,-1
 220 -203 l 1,20,-1
 220 -199 l 1,21,22
 231 -183 231 -183 238 -164.5 c 128,-1,23
 245 -146 245 -146 247.5 -122 c 128,-1,24
 250 -98 250 -98 250.5 -82.5 c 128,-1,25
 251 -67 251 -67 250.5 -37.5 c 128,-1,26
 250 -8 250 -8 250 3 c 1,27,28
 231 3 231 3 194.5 4 c 128,-1,29
 158 5 158 5 129 5 c 128,-1,30
 100 5 100 5 73 2 c 0,31,32
 70 2 70 2 60.5 0 c 128,-1,33
 51 -2 51 -2 42.5 -3.5 c 128,-1,34
 34 -5 34 -5 26 -4 c 128,-1,35
 18 -3 18 -3 15 2 c 0,36,37
 11 10 11 10 26 28 c 2,38,-1
 84 95 l 1,39,-1
 140 160 l 1,40,-1
 202 230 l 1,41,-1
 253 295 l 2,42,43
 283 334 283 334 305 370 c 1,7,-1
EndSplineSet
EndChar

StartChar: five
Encoding: 53 53 52
Width: 303
Flags: W
LayerCount: 2
Fore
SplineSet
77 322 m 1,0,-1
 224 328 l 1,1,-1
 283 367 l 1,2,-1
 237 278 l 1,3,-1
 169 276 l 1,4,-1
 92 271 l 1,5,6
 91 264 91 264 87 245 c 128,-1,7
 83 226 83 226 82 215.5 c 128,-1,8
 81 205 81 205 85 190 c 0,9,10
 90 182 90 182 100.5 176.5 c 128,-1,11
 111 171 111 171 129.5 167 c 128,-1,12
 148 163 148 163 150 162 c 0,13,14
 221 138 221 138 248 91 c 0,15,16
 275 41 275 41 261 -8 c 128,-1,17
 247 -57 247 -57 209 -96 c 128,-1,18
 171 -135 171 -135 120.5 -160.5 c 128,-1,19
 70 -186 70 -186 25 -188 c 1,20,-1
 25 -169 l 1,21,22
 89 -157 89 -157 134 -122.5 c 128,-1,23
 179 -88 179 -88 197 -30 c 0,24,25
 210 14 210 14 194 53.5 c 128,-1,26
 178 93 178 93 139.5 112.5 c 128,-1,27
 101 132 101 132 55 120 c 1,28,-1
 77 322 l 1,0,-1
EndSplineSet
EndChar

StartChar: six
Encoding: 54 54 53
Width: 391
Flags: W
LayerCount: 2
Fore
SplineSet
133 242 m 1,0,1
 132 254 132 254 140.5 264.5 c 128,-1,2
 149 275 149 275 157 281 c 128,-1,3
 165 287 165 287 180 293 c 0,4,5
 225 315 225 315 267.5 301.5 c 128,-1,6
 310 288 310 288 337 245 c 0,7,8
 355 214 355 214 358.5 178 c 128,-1,9
 362 142 362 142 352 110.5 c 128,-1,10
 342 79 342 79 322 51 c 128,-1,11
 302 23 302 23 273 7.5 c 128,-1,12
 244 -8 244 -8 210.5 -11 c 128,-1,13
 177 -14 177 -14 139 4 c 0,14,15
 89 28 89 28 64.5 82 c 128,-1,16
 40 136 40 136 40 197 c 0,17,18
 40 268 40 268 76.5 340 c 128,-1,19
 113 412 113 412 175 462.5 c 128,-1,20
 237 513 237 513 308 525 c 1,21,-1
 312 513 l 1,22,23
 267 486 267 486 231.5 457.5 c 128,-1,24
 196 429 196 429 164.5 392 c 128,-1,25
 133 355 133 355 115.5 310.5 c 128,-1,26
 98 266 98 266 96 216 c 0,27,28
 94 184 94 184 103.5 147.5 c 128,-1,29
 113 111 113 111 131 78.5 c 128,-1,30
 149 46 149 46 180.5 28 c 128,-1,31
 212 10 212 10 250 20 c 0,32,33
 284 28 284 28 301.5 53 c 128,-1,34
 319 78 319 78 317 109.5 c 128,-1,35
 315 141 315 141 303.5 173 c 128,-1,36
 292 205 292 205 270 231 c 128,-1,37
 248 257 248 257 224 266 c 0,38,39
 214 270 214 270 204 270.5 c 128,-1,40
 194 271 194 271 184.5 267.5 c 128,-1,41
 175 264 175 264 168 260.5 c 128,-1,42
 161 257 161 257 150.5 251 c 128,-1,43
 140 245 140 245 133 242 c 1,0,1
EndSplineSet
EndChar

StartChar: seven
Encoding: 55 55 54
Width: 411
Flags: W
LayerCount: 2
Fore
SplineSet
62 348 m 1,0,-1
 102 331 l 1,1,-1
 206 330 l 1,2,-1
 393 334 l 1,3,4
 392 318 392 318 380 296.5 c 128,-1,5
 368 275 368 275 350 250.5 c 128,-1,6
 332 226 332 226 326 216 c 2,7,-1
 261 95 l 1,8,-1
 402 95 l 1,9,-1
 392 71 l 1,10,-1
 248 71 l 1,11,-1
 188 -41 l 2,12,13
 184 -49 184 -49 173.5 -75.5 c 128,-1,14
 163 -102 163 -102 152.5 -120.5 c 128,-1,15
 142 -139 142 -139 130 -148 c 0,16,17
 125 -151 125 -151 117 -152 c 128,-1,18
 109 -153 109 -153 98.5 -153.5 c 128,-1,19
 88 -154 88 -154 85 -155 c 2,20,-1
 81 -151 l 1,21,-1
 172 7 l 1,22,-1
 208 71 l 1,23,-1
 69 71 l 1,24,-1
 79 95 l 1,25,-1
 222 95 l 1,26,-1
 323 274 l 1,27,28
 157 296 157 296 77 272 c 0,29,30
 66 269 66 269 50.5 252.5 c 128,-1,31
 35 236 35 236 22 234 c 1,32,-1
 62 348 l 1,0,-1
EndSplineSet
EndChar

StartChar: eight
Encoding: 56 56 55
Width: 391
Flags: W
LayerCount: 2
Fore
SplineSet
165 511 m 0,0,1
 128 504 128 504 115 481.5 c 128,-1,2
 102 459 102 459 109.5 432 c 128,-1,3
 117 405 117 405 133 379 c 128,-1,4
 149 353 149 353 169 337 c 0,5,6
 171 336 171 336 177.5 330.5 c 128,-1,7
 184 325 184 325 189 322 c 2,8,-1
 200 314 l 2,9,10
 207 309 207 309 213 307.5 c 128,-1,11
 219 306 219 306 224 307 c 0,12,13
 246 313 246 313 260 337 c 128,-1,14
 274 361 274 361 275 384 c 0,15,16
 278 436 278 436 246.5 478.5 c 128,-1,17
 215 521 215 521 165 511 c 0,0,1
180 253 m 0,18,19
 115 234 115 234 103 166 c 0,20,21
 93 105 93 105 130 55 c 0,22,23
 172 -3 172 -3 238 12 c 0,24,25
 240 13 240 13 243 14 c 0,26,27
 276 23 276 23 289.5 51 c 128,-1,28
 303 79 303 79 298 111 c 128,-1,29
 293 143 293 143 277.5 173.5 c 128,-1,30
 262 204 262 204 243 221 c 0,31,32
 241 223 241 223 235 227.5 c 128,-1,33
 229 232 229 232 227 234 c 128,-1,34
 225 236 225 236 218.5 240.5 c 128,-1,35
 212 245 212 245 209 246 c 2,36,-1
 200 252 l 2,37,38
 193 255 193 255 190 254 c 128,-1,39
 187 253 187 253 180 253 c 0,18,19
169 271 m 1,40,41
 116 307 116 307 99 330 c 0,42,43
 75 362 75 362 73 400 c 0,44,45
 72 439 72 439 86 469 c 0,46,47
 116 535 116 535 189 536 c 0,48,49
 251 536 251 536 294 493 c 0,50,51
 345 441 345 441 316 377 c 0,52,53
 312 369 312 369 308 363 c 0,54,55
 301 353 301 353 291.5 342 c 128,-1,56
 282 331 282 331 277 326 c 128,-1,57
 272 321 272 321 256.5 307.5 c 128,-1,58
 241 294 241 294 239 293 c 1,59,60
 287 265 287 265 321 220 c 0,61,62
 348 181 348 181 352 146 c 0,63,64
 355 120 355 120 344 87 c 0,65,66
 320 16 320 16 239 -2 c 0,67,68
 166 -19 166 -19 103 18 c 0,69,70
 34 57 34 57 43 129 c 0,71,72
 45 144 45 144 52 161 c 0,73,74
 61 187 61 187 85 212 c 0,75,76
 116 247 116 247 169 271 c 1,40,41
EndSplineSet
EndChar

StartChar: nine
Encoding: 57 57 56
Width: 411
Flags: W
LayerCount: 2
Fore
SplineSet
290 55 m 1,0,1
 259 22 259 22 235 10 c 0,2,3
 179 -16 179 -16 122 15 c 128,-1,4
 65 46 65 46 47 105 c 0,5,6
 33 151 33 151 45.5 199.5 c 128,-1,7
 58 248 58 248 92 281 c 0,8,9
 132 320 132 320 180.5 325.5 c 128,-1,10
 229 331 229 331 269 309 c 128,-1,11
 309 287 309 287 338.5 245 c 128,-1,12
 368 203 368 203 373 153 c 0,13,14
 381 86 381 86 361 25.5 c 128,-1,15
 341 -35 341 -35 300 -80.5 c 128,-1,16
 259 -126 259 -126 205 -159 c 128,-1,17
 151 -192 151 -192 88 -210 c 1,18,-1
 81 -196 l 1,19,20
 133 -169 133 -169 168.5 -143.5 c 128,-1,21
 204 -118 204 -118 238.5 -84 c 128,-1,22
 273 -50 273 -50 292.5 -6 c 128,-1,23
 312 38 312 38 319 91 c 0,24,25
 323 123 323 123 314 164 c 128,-1,26
 305 205 305 205 284 241.5 c 128,-1,27
 263 278 263 278 231.5 294.5 c 128,-1,28
 200 311 200 311 158 293 c 0,29,30
 95 265 95 265 94 189 c 0,31,32
 92 122 92 122 135 73 c 0,33,34
 184 18 184 18 246 45 c 0,35,36
 263 52 263 52 279 66 c 1,37,-1
 283 66 l 1,38,-1
 290 58 l 1,39,-1
 290 55 l 1,0,1
EndSplineSet
EndChar

StartChar: colon
Encoding: 58 58 57
Width: 178
Flags: W
LayerCount: 2
Fore
SplineSet
130 304 m 0,0,1
 149 295 149 295 148 293 c 0,2,3
 140 285 140 285 124 264 c 0,4,5
 100 233 100 233 98 228 c 1,6,-1
 68 266 l 1,7,-1
 44 291 l 1,8,9
 72 306 72 306 88 345 c 1,10,11
 93 344 93 344 110.5 325 c 128,-1,12
 128 306 128 306 130 304 c 0,0,1
130 68 m 0,13,14
 149 59 149 59 148 57 c 0,15,16
 140 49 140 49 124 28 c 0,17,18
 100 -3 100 -3 98 -8 c 1,19,-1
 68 30 l 1,20,-1
 44 55 l 1,21,22
 72 70 72 70 88 109 c 1,23,24
 93 108 93 108 110.5 89 c 128,-1,25
 128 70 128 70 130 68 c 0,13,14
EndSplineSet
EndChar

StartChar: semicolon
Encoding: 59 59 58
Width: 187
Flags: W
LayerCount: 2
Fore
SplineSet
130 309 m 0,0,1
 149 300 149 300 148 298 c 0,2,3
 140 290 140 290 124 269 c 0,4,5
 100 238 100 238 98 233 c 1,6,-1
 68 271 l 1,7,-1
 44 296 l 1,8,9
 72 311 72 311 88 350 c 1,10,11
 93 349 93 349 110.5 330 c 128,-1,12
 128 311 128 311 130 309 c 0,0,1
29 -96 m 1,13,-1
 37 -107 l 1,14,-1
 29 -96 l 1,13,-1
88 109 m 1,15,16
 93 108 93 108 97 105.5 c 128,-1,17
 101 103 101 103 102 101 c 2,18,-1
 108 94 l 1,19,-1
 115 88 l 2,20,21
 118 84 118 84 126 79 c 128,-1,22
 134 74 134 74 140 69 c 128,-1,23
 146 64 146 64 148 57 c 128,-1,24
 150 50 150 50 143.5 37 c 128,-1,25
 137 24 137 24 137 22 c 0,26,27
 114 -73 114 -73 37 -107 c 1,28,-1
 29 -89 l 1,29,30
 60 -71 60 -71 77.5 -47.5 c 128,-1,31
 95 -24 95 -24 81 3 c 0,32,33
 77 10 77 10 62 25.5 c 128,-1,34
 47 41 47 41 44 55 c 1,35,36
 72 70 72 70 88 109 c 1,15,16
EndSplineSet
EndChar

StartChar: less
Encoding: 60 60 59
Width: 351
Flags: W
LayerCount: 2
Fore
SplineSet
317 0 m 1,0,-1
 40 130 l 1,1,-1
 40 162 l 1,2,-1
 317 292 l 1,3,-1
 317 251 l 1,4,-1
 90 147 l 1,5,-1
 90 146 l 1,6,-1
 317 40 l 1,7,-1
 317 0 l 1,0,-1
EndSplineSet
Substitution2: "'rtla' Right to Left Alternates lookup 0 subtable" greater
EndChar

StartChar: equal
Encoding: 61 61 60
Width: 351
Flags: W
LayerCount: 2
Fore
SplineSet
315 206 m 1,0,-1
 42 206 l 1,1,-1
 42 241 l 1,2,-1
 315 241 l 1,3,-1
 315 206 l 1,0,-1
315 114 m 1,4,-1
 42 114 l 1,5,-1
 42 148 l 1,6,-1
 315 148 l 1,7,-1
 315 114 l 1,4,-1
EndSplineSet
EndChar

StartChar: greater
Encoding: 62 62 61
Width: 351
Flags: W
LayerCount: 2
Fore
SplineSet
315 130 m 1,0,-1
 40 0 l 1,1,-1
 40 40 l 1,2,-1
 264 146 l 1,3,-1
 264 147 l 1,4,-1
 40 251 l 1,5,-1
 40 292 l 1,6,-1
 315 162 l 1,7,-1
 315 130 l 1,0,-1
EndSplineSet
Substitution2: "'rtla' Right to Left Alternates lookup 0 subtable" less
EndChar

StartChar: question
Encoding: 63 63 62
Width: 264
Flags: W
LayerCount: 2
Fore
SplineSet
150 58 m 0,0,1
 169 49 169 49 168 47 c 0,2,3
 160 39 160 39 144 18 c 0,4,5
 120 -13 120 -13 118 -18 c 1,6,-1
 88 20 l 1,7,-1
 64 45 l 1,8,9
 92 60 92 60 108 99 c 1,10,11
 113 98 113 98 130.5 79 c 128,-1,12
 148 60 148 60 150 58 c 0,0,1
121 143 m 1,13,14
 103 146 103 146 102.5 189.5 c 128,-1,15
 102 233 102 233 114 248 c 0,16,17
 121 257 121 257 145 263 c 128,-1,18
 169 269 169 269 173 271 c 0,19,20
 217 293 217 293 204 367 c 0,21,22
 193 430 193 430 99 446 c 0,23,24
 95 447 95 447 82.5 448 c 128,-1,25
 70 449 70 449 61 451.5 c 128,-1,26
 52 454 52 454 46 459 c 0,27,28
 36 468 36 468 42 507 c 128,-1,29
 48 546 48 546 58 554 c 1,30,31
 65 537 65 537 75.5 527 c 128,-1,32
 86 517 86 517 95 513.5 c 128,-1,33
 104 510 104 510 121.5 505 c 128,-1,34
 139 500 139 500 150 495 c 0,35,36
 197 474 197 474 219 429 c 0,37,38
 238 389 238 389 231.5 336.5 c 128,-1,39
 225 284 225 284 196 249 c 0,40,41
 187 236 187 236 172 223 c 128,-1,42
 157 210 157 210 147.5 202.5 c 128,-1,43
 138 195 138 195 130.5 179.5 c 128,-1,44
 123 164 123 164 121 143 c 1,13,14
EndSplineSet
EndChar

StartChar: at
Encoding: 64 64 63
Width: 536
Flags: W
LayerCount: 2
Fore
SplineSet
407 33 m 128,-1,1
 410 26 410 26 408 26 c 0,2,3
 349 -12 349 -12 272 -12 c 0,4,5
 174 -12 174 -12 108 42 c 0,6,7
 34 101 34 101 32 208 c 0,8,9
 32 326 32 326 116 405 c 0,10,11
 197 480 197 480 312 480 c 0,12,13
 409 480 409 480 468 422 c 0,14,15
 523 373 523 373 521 295 c 0,16,17
 521 224 521 224 473 176 c 0,18,19
 424 127 424 127 337 125 c 0,20,21
 306 125 306 125 299 132 c 0,22,23
 297 135 297 135 295 146 c 0,24,25
 295 154 295 154 311 201 c 0,26,27
 310 204 310 204 312 206 c 2,28,-1
 309 208 l 1,29,30
 246 124 246 124 205 125 c 0,31,32
 174 125 174 125 172 169 c 0,33,34
 172 224 172 224 216 283 c 1,35,36
 259 350 259 350 312 351 c 0,37,38
 327 351 327 351 347 336 c 1,39,-1
 354 356 l 2,40,41
 356 364 356 364 369 361 c 1,42,43
 386 363 386 363 386 356 c 2,44,-1
 335 185 l 2,45,46
 332 172 332 172 332 162 c 0,47,48
 332 146 332 146 347 147 c 0,49,50
 407 147 407 147 448 187 c 0,51,52
 491 229 491 229 491 292 c 0,53,54
 491 365 491 365 438 411 c 0,55,56
 388 455 388 455 312 454 c 0,57,58
 202 454 202 454 140 380 c 0,59,60
 80 308 80 308 79 208 c 0,61,62
 79 134 79 134 125 78 c 0,63,64
 182 12 182 12 292 13 c 0,65,66
 341 13 341 13 402 38 c 0,67,0
 404 40 404 40 407 33 c 128,-1,1
339 312 m 1,68,69
 339 333 339 333 306 333 c 0,70,71
 269 333 269 333 237 272 c 0,72,73
 211 214 211 214 211 177 c 0,74,75
 211 153 211 153 225 154 c 0,76,77
 241 154 241 154 283 199 c 0,78,79
 297 216 297 216 306 225 c 0,80,81
 321 247 321 247 332 285 c 2,82,-1
 339 312 l 1,68,69
EndSplineSet
EndChar

StartChar: A
Encoding: 65 65 64
Width: 600
Flags: W
LayerCount: 2
Fore
SplineSet
285 471 m 1,0,-1
 191 238 l 1,1,2
 216 235 216 235 251 234 c 128,-1,3
 286 233 286 233 316 233.5 c 128,-1,4
 346 234 346 234 379 233 c 1,5,6
 329 367 329 367 285 471 c 1,0,-1
309.5 592 m 128,-1,8
 318 592 318 592 320 583 c 0,9,10
 339 520 339 520 414.5 323.5 c 128,-1,11
 490 127 490 127 515 72 c 0,12,13
 532 37 532 37 542.5 26.5 c 128,-1,14
 553 16 553 16 576 14 c 0,15,16
 583 13 583 13 582.5 5.5 c 128,-1,17
 582 -2 582 -2 579 -2 c 2,18,-1
 513 -2 l 2,19,20
 453 -2 453 -2 408 -6 c 0,21,22
 400 -7 400 -7 399 -1 c 0,23,24
 397 8 397 8 403 9 c 2,25,-1
 408 9 l 2,26,27
 413 10 413 10 417.5 11 c 128,-1,28
 422 12 422 12 428.5 14.5 c 128,-1,29
 435 17 435 17 438 21.5 c 128,-1,30
 441 26 441 26 444 33 c 128,-1,31
 447 40 447 40 444 49 c 0,32,33
 435 93 435 93 390 202 c 1,34,35
 244 208 244 208 178 206 c 1,36,37
 155 157 155 157 127 81 c 0,38,39
 116 46 116 46 126 35 c 128,-1,40
 136 24 136 24 191 9 c 0,41,42
 195 8 195 8 193 0 c 0,43,44
 192 -5 192 -5 191 -7 c 128,-1,45
 190 -9 190 -9 187 -8 c 0,46,47
 157 -3 157 -3 100 -1 c 0,48,49
 60 1 60 1 27 -2 c 0,50,51
 18 -3 18 -3 19 5 c 0,52,53
 19 14 19 14 24 14 c 0,54,55
 47 18 47 18 61.5 33 c 128,-1,56
 76 48 76 48 92 85 c 0,57,58
 115 133 115 133 200.5 339 c 128,-1,59
 286 545 286 545 298 582 c 0,60,7
 301 592 301 592 309.5 592 c 128,-1,8
EndSplineSet
EndChar

StartChar: B
Encoding: 66 66 65
Width: 479
Flags: W
LayerCount: 2
Fore
SplineSet
169 302 m 0,0,1
 156 302 156 302 156 292 c 0,2,3
 154 111 154 111 156 70 c 0,4,5
 157 39 157 39 164 34 c 0,6,7
 183 20 183 20 230 20 c 0,8,9
 300 20 300 20 344 53.5 c 128,-1,10
 388 87 388 87 388 148 c 0,11,12
 388 203 388 203 357.5 243.5 c 128,-1,13
 327 284 327 284 271 296 c 0,14,15
 234 303 234 303 169 302 c 0,0,1
200 565 m 0,16,17
 180 565 180 565 172.5 560 c 128,-1,18
 165 555 165 555 162 539 c 0,19,20
 159 526 159 526 156.5 440 c 128,-1,21
 154 354 154 354 156 320 c 1,22,23
 202 320 202 320 229 325 c 0,24,25
 272 332 272 332 300.5 360.5 c 128,-1,26
 329 389 329 389 329 440 c 0,27,28
 329 495 329 495 294 530 c 128,-1,29
 259 565 259 565 200 565 c 0,16,17
32 585 m 0,30,31
 70 578 70 578 121 579 c 0,32,33
 143 579 143 579 178.5 582.5 c 128,-1,34
 214 586 214 586 236 586 c 0,35,36
 300 586 300 586 352 548 c 128,-1,37
 404 510 404 510 404 446 c 0,38,39
 404 399 404 399 369.5 364.5 c 128,-1,40
 335 330 335 330 272 320 c 1,41,42
 349 311 349 311 404.5 268 c 128,-1,43
 460 225 460 225 460 156 c 0,44,45
 460 112 460 112 441.5 79 c 128,-1,46
 423 46 423 46 390 28.5 c 128,-1,47
 357 11 357 11 321.5 3.5 c 128,-1,48
 286 -4 286 -4 246 -4 c 2,49,-1
 124 -1 l 2,50,51
 72 0 72 0 33 -6 c 0,52,53
 25 -7 25 -7 24 3 c 0,54,55
 23 12 23 12 28 11 c 0,56,57
 85 13 85 13 90 72 c 0,58,59
 94 132 94 132 95 288.5 c 128,-1,60
 96 445 96 445 94 489 c 0,61,62
 92 536 92 536 79 550.5 c 128,-1,63
 66 565 66 565 29 569 c 0,64,65
 23 570 23 570 24 578.5 c 128,-1,66
 25 587 25 587 32 585 c 0,30,31
EndSplineSet
EndChar

StartChar: C
Encoding: 67 67 66
Width: 555
Flags: W
LayerCount: 2
Fore
SplineSet
348 606 m 0,0,1
 407 606 407 606 486 578 c 0,2,3
 505 571 505 571 521 573 c 0,4,5
 533 576 533 576 536 576 c 0,6,7
 545 576 545 576 541 568 c 0,8,9
 523 527 523 527 517 466 c 0,10,11
 516 458 516 458 511 458 c 0,12,13
 500 458 500 458 501 474 c 0,14,15
 504 501 504 501 494.5 516 c 128,-1,16
 485 531 485 531 460 546 c 0,17,18
 440 558 440 558 402.5 569.5 c 128,-1,19
 365 581 365 581 333 581 c 0,20,21
 286 581 286 581 268 576 c 0,22,23
 208 558 208 558 164 510 c 0,24,25
 127 468 127 468 111 419 c 128,-1,26
 95 370 95 370 95 295 c 0,27,28
 95 229 95 229 112 186 c 0,29,30
 144 105 144 105 212 58 c 128,-1,31
 280 11 280 11 349 11 c 0,32,33
 413 11 413 11 460.5 44.5 c 128,-1,34
 508 78 508 78 520 126 c 0,35,36
 522 134 522 134 530 131 c 0,37,38
 539 130 539 130 537 122 c 0,39,40
 533 108 533 108 522 73 c 128,-1,41
 511 38 511 38 507 17 c 1,42,43
 388 -10 388 -10 332 -10 c 0,44,45
 202 -10 202 -10 110.5 75.5 c 128,-1,46
 19 161 19 161 19 287 c 0,47,48
 19 361 19 361 38 412.5 c 128,-1,49
 57 464 57 464 99 510 c 0,50,51
 156 569 156 569 256 594 c 0,52,53
 302 606 302 606 348 606 c 0,0,1
EndSplineSet
EndChar

StartChar: D
Encoding: 68 68 67
Width: 664
Flags: W
LayerCount: 2
Fore
SplineSet
296 578 m 0,0,1
 225 578 225 578 178 559 c 0,2,3
 172 557 172 557 171 541 c 0,4,5
 164 472 164 472 161.5 287 c 128,-1,6
 159 102 159 102 164 49 c 0,7,8
 165 39 165 39 175 36 c 0,9,10
 239 15 239 15 295 15 c 0,11,12
 379 15 379 15 435 44 c 128,-1,13
 491 73 491 73 528 133 c 0,14,15
 570 200 570 200 570 302 c 0,16,17
 570 408 570 408 499 486 c 0,18,19
 456 532 456 532 401 555 c 128,-1,20
 346 578 346 578 296 578 c 0,0,1
293 595 m 0,21,22
 443 595 443 595 544.5 516 c 128,-1,23
 646 437 646 437 646 294 c 0,24,25
 646 231 646 231 623.5 178.5 c 128,-1,26
 601 126 601 126 566.5 93 c 128,-1,27
 532 60 532 60 487 36.5 c 128,-1,28
 442 13 442 13 399 3.5 c 128,-1,29
 356 -6 356 -6 315 -6 c 0,30,31
 275 -6 275 -6 223.5 -3 c 128,-1,32
 172 0 172 0 144 0 c 0,33,34
 76 0 76 0 32 -3 c 0,35,36
 24 -3 24 -3 24 3 c 0,37,38
 21 13 21 13 34 13 c 0,39,40
 62 13 62 13 75.5 21.5 c 128,-1,41
 89 30 89 30 92 62 c 0,42,43
 97 111 97 111 99 285 c 128,-1,44
 101 459 101 459 95 531 c 0,45,46
 92 557 92 557 79 564 c 128,-1,47
 66 571 66 571 38 573 c 0,48,49
 31 573 31 573 31 581 c 0,50,51
 31 587 31 587 33 589.5 c 128,-1,52
 35 592 35 592 39 591 c 0,53,54
 55 589 55 589 112 589 c 0,55,56
 122 589 122 589 191.5 592 c 128,-1,57
 261 595 261 595 293 595 c 0,21,22
EndSplineSet
EndChar

StartChar: E
Encoding: 69 69 68
Width: 534
Flags: W
LayerCount: 2
Fore
SplineSet
416 209 m 0,0,1
 411 248 411 248 404 263 c 0,2,3
 395 277 395 277 381 280 c 0,4,5
 320 289 320 289 242 289 c 0,6,7
 185 289 185 289 170 288 c 0,8,9
 161 288 161 288 161 282 c 0,10,11
 161 88 161 88 168 45 c 0,12,13
 169 38 169 38 175 37 c 0,14,15
 206 23 206 23 302 23 c 0,16,17
 399 23 399 23 452 60 c 0,18,19
 484 83 484 83 505 135 c 0,20,21
 506 139 506 139 509.5 139 c 128,-1,22
 513 139 513 139 515 137 c 0,23,24
 520 132 520 132 519 130 c 0,25,26
 481 12 481 12 475 0 c 0,27,28
 475 -5 475 -5 468 -4 c 0,29,30
 449 0 449 0 257 0 c 2,31,-1
 116 0 l 2,32,33
 85 0 85 0 32 -7 c 0,34,35
 25 -8 25 -8 23.5 0 c 128,-1,36
 22 8 22 8 26 9 c 0,37,38
 59 15 59 15 75 23 c 0,39,40
 83 28 83 28 84 43 c 0,41,42
 95 129 95 129 97.5 270.5 c 128,-1,43
 100 412 100 412 92 530 c 0,44,45
 91 555 91 555 70 565 c 0,46,47
 58 571 58 571 41 574 c 0,48,49
 33 576 33 576 33 581.5 c 128,-1,50
 33 587 33 587 39 587 c 0,51,52
 417 584 417 584 456 590 c 0,53,54
 460 591 460 591 472 591 c 0,55,56
 481 591 481 591 477 583 c 0,57,58
 473 571 473 571 462 478 c 0,59,60
 460 468 460 468 455 468 c 0,61,62
 445 468 445 468 446.5 477.5 c 128,-1,63
 448 487 448 487 448 495 c 0,64,65
 449 534 449 534 430 544 c 0,66,67
 385 567 385 567 285 567 c 0,68,69
 228 567 228 567 179 557 c 0,70,71
 172 555 172 555 171 550 c 0,72,73
 167 524 167 524 161 323 c 0,74,75
 161 312 161 312 167 311 c 2,76,-1
 249 311 l 2,77,78
 335 311 335 311 384 318 c 0,79,80
 395 319 395 319 402 331 c 0,81,82
 414 357 414 357 419 373 c 0,83,84
 420 377 420 377 427.5 377 c 128,-1,85
 435 377 435 377 433 372 c 0,86,87
 422 290 422 290 431 212 c 0,88,89
 433 203 433 203 424.5 203 c 128,-1,90
 416 203 416 203 416 209 c 0,0,1
EndSplineSet
EndChar

StartChar: F
Encoding: 70 70 69
Width: 491
Flags: W
LayerCount: 2
Fore
SplineSet
30 586 m 0,0,1
 33 586 33 586 60.5 585 c 128,-1,2
 88 584 88 584 139.5 583 c 128,-1,3
 191 582 191 582 251 582 c 0,4,5
 270 582 270 582 312 581.5 c 128,-1,6
 354 581 354 581 372 581 c 128,-1,7
 390 581 390 581 415.5 583.5 c 128,-1,8
 441 586 441 586 458 591 c 0,9,10
 463 593 463 593 466 591.5 c 128,-1,11
 469 590 469 590 468 584 c 0,12,13
 460 554 460 554 460 478 c 0,14,15
 460 467 460 467 454 467 c 0,16,17
 442 467 442 467 441 476 c 0,18,19
 441 526 441 526 418 538 c 0,20,21
 374 558 374 558 277 558 c 0,22,23
 197 558 197 558 179 555 c 0,24,25
 173 554 173 554 173 546 c 0,26,27
 167 484 167 484 165 320 c 0,28,29
 165 315 165 315 169 315 c 0,30,31
 266 308 266 308 371 318 c 0,32,33
 380 319 380 319 385 320.5 c 128,-1,34
 390 322 390 322 395.5 334 c 128,-1,35
 401 346 401 346 402 368 c 0,36,37
 402 375 402 375 411 374 c 0,38,39
 421 374 421 374 421 366 c 0,40,41
 419 352 419 352 419 226 c 0,42,43
 419 215 419 215 410 215 c 0,44,45
 399 215 399 215 399 225 c 0,46,47
 404 273 404 273 372 278 c 0,48,49
 334 284 334 284 173 292 c 0,50,51
 167 292 167 292 167 289 c 0,52,53
 165 258 165 258 164 78 c 0,54,55
 164 57 164 57 172 44 c 128,-1,56
 180 31 180 31 196 25.5 c 128,-1,57
 212 20 212 20 223 18 c 128,-1,58
 234 16 234 16 255 15 c 0,59,60
 267 15 267 15 264 0 c 0,61,62
 263 -6 263 -6 260.5 -8 c 128,-1,63
 258 -10 258 -10 254 -9 c 0,64,65
 204 0 204 0 125 0 c 0,66,67
 76 0 76 0 40 -3 c 0,68,69
 31 -3 31 -3 30 5 c 0,70,71
 29 14 29 14 33 15 c 0,72,73
 67 21 67 21 77.5 30.5 c 128,-1,74
 88 40 88 40 92 74 c 0,75,76
 101 166 101 166 101 305.5 c 128,-1,77
 101 445 101 445 93 525 c 0,78,79
 90 550 90 550 78.5 559.5 c 128,-1,80
 67 569 67 569 30 570 c 0,81,82
 23 570 23 570 24 577 c 0,83,84
 23 586 23 586 30 586 c 0,0,1
EndSplineSet
EndChar

StartChar: G
Encoding: 71 71 70
Width: 624
Flags: W
LayerCount: 2
Fore
SplineSet
359 592 m 0,0,1
 390 592 390 592 413.5 588 c 128,-1,2
 437 584 437 584 464.5 576 c 128,-1,3
 492 568 492 568 495 567 c 0,4,5
 508 565 508 565 513 568 c 0,6,7
 519 572 519 572 527 584 c 0,8,9
 529 588 529 588 534 587.5 c 128,-1,10
 539 587 539 587 538 582 c 0,11,12
 536 567 536 567 541.5 520.5 c 128,-1,13
 547 474 547 474 554 455 c 0,14,15
 555 451 555 451 552.5 448.5 c 128,-1,16
 550 446 550 446 547 446 c 0,17,18
 539 446 539 446 538 452 c 0,19,20
 520 498 520 498 471.5 532 c 128,-1,21
 423 566 423 566 340 566 c 0,22,23
 283 566 283 566 245 549 c 0,24,25
 176 518 176 518 134.5 452.5 c 128,-1,26
 93 387 93 387 93 299 c 0,27,28
 93 190 93 190 172.5 103 c 128,-1,29
 252 16 252 16 364 16 c 0,30,31
 434 16 434 16 490 51 c 0,32,33
 503 60 503 60 504 79 c 0,34,35
 508 147 508 147 501 225 c 0,36,37
 499 251 499 251 481 260 c 128,-1,38
 463 269 463 269 398 268 c 0,39,40
 391 268 391 268 391 277 c 128,-1,41
 391 286 391 286 399 286 c 0,42,43
 433 284 433 284 478 285 c 0,44,45
 548 285 548 285 596 290 c 0,46,47
 605 292 605 292 606 282 c 0,48,49
 606 275 606 275 600 273 c 0,50,51
 583 269 583 269 577.5 259 c 128,-1,52
 572 249 572 249 571 226 c 0,53,54
 569 79 569 79 569 68 c 0,55,56
 569 51 569 51 586 36 c 0,57,58
 589 33 589 33 589 29 c 128,-1,59
 589 25 589 25 585 24 c 0,60,61
 560 20 560 20 512.5 11 c 128,-1,62
 465 2 465 2 427 -3.5 c 128,-1,63
 389 -9 389 -9 355 -9 c 0,64,65
 212 -9 212 -9 116 73.5 c 128,-1,66
 20 156 20 156 20 298 c 0,67,68
 20 363 20 363 51.5 423 c 128,-1,69
 83 483 83 483 129.5 518 c 128,-1,70
 176 553 176 553 238 572.5 c 128,-1,71
 300 592 300 592 359 592 c 0,0,1
EndSplineSet
EndChar

StartChar: H
Encoding: 72 72 71
Width: 727
Flags: W
LayerCount: 2
Fore
SplineSet
37 591 m 0,0,1
 59 591 59 591 97 588.5 c 128,-1,2
 135 586 135 586 147 586 c 0,3,4
 202 586 202 586 230 589 c 0,5,6
 234 590 234 590 235 587.5 c 128,-1,7
 236 585 236 585 236 581 c 0,8,9
 236 574 236 574 231 574 c 0,10,11
 177 566 177 566 170 554 c 0,12,13
 168 552 168 552 168 549 c 0,14,15
 164 520 164 520 163 483.5 c 128,-1,16
 162 447 162 447 161 391 c 128,-1,17
 160 335 160 335 160 317 c 1,18,-1
 576 317 l 1,19,20
 576 331 576 331 576.5 371 c 128,-1,21
 577 411 577 411 576 449 c 128,-1,22
 575 487 575 487 571 526 c 0,23,24
 568 554 568 554 554 564 c 128,-1,25
 540 574 540 574 507 579 c 0,26,27
 503 580 503 580 503 586 c 0,28,29
 505 595 505 595 510 595 c 2,30,-1
 550 592 l 2,31,32
 590 589 590 589 614 589 c 0,33,34
 633 589 633 589 695 594 c 0,35,36
 700 594 700 594 701.5 586.5 c 128,-1,37
 703 579 703 579 698 578 c 0,38,39
 646 572 646 572 645 528 c 0,40,41
 636 176 636 176 644 62 c 0,42,43
 645 46 645 46 648 36.5 c 128,-1,44
 651 27 651 27 661 22.5 c 128,-1,45
 671 18 671 18 676.5 17 c 128,-1,46
 682 16 682 16 700 14 c 0,47,48
 706 13 706 13 705 3 c 0,49,50
 705 -1 705 -1 703 -4 c 128,-1,51
 701 -7 701 -7 697 -6 c 0,52,53
 659 1 659 1 613 1 c 0,54,55
 577 1 577 1 515 -8 c 0,56,57
 510 -9 510 -9 509 -8 c 128,-1,58
 508 -7 508 -7 507 0 c 0,59,60
 505 11 505 11 510 12 c 0,61,62
 530 16 530 16 537.5 18 c 128,-1,63
 545 20 545 20 554.5 25.5 c 128,-1,64
 564 31 564 31 567 40.5 c 128,-1,65
 570 50 570 50 571 66 c 0,66,67
 578 211 578 211 575 285 c 1,68,-1
 160 287 l 1,69,70
 159 250 159 250 160 206 c 0,71,72
 161 161 161 161 162 110 c 0,73,74
 163 58 163 58 163 57 c 0,75,76
 163 35 163 35 179.5 24.5 c 128,-1,77
 196 14 196 14 227 9 c 0,78,79
 234 8 234 8 232 -3 c 0,80,81
 230 -10 230 -10 223 -9 c 0,82,83
 185 0 185 0 130 0 c 0,84,85
 83 0 83 0 33 -7 c 0,86,87
 24 -8 24 -8 24 -1 c 0,88,89
 22 8 22 8 28 9 c 0,90,91
 62 14 62 14 74 22 c 128,-1,92
 86 30 86 30 88 57 c 0,93,94
 97 195 97 195 96 327.5 c 128,-1,95
 95 460 95 460 91 531 c 0,96,97
 89 557 89 557 77 565 c 128,-1,98
 65 573 65 573 34 574 c 0,99,100
 28 574 28 574 28 582 c 0,101,102
 30 591 30 591 37 591 c 0,0,1
EndSplineSet
EndChar

StartChar: I
Encoding: 73 73 72
Width: 311
Flags: W
LayerCount: 2
Fore
SplineSet
36 593 m 0,0,1
 79 588 79 588 159 588 c 0,2,3
 225 588 225 588 280 594 c 0,4,5
 289 595 289 595 289 587 c 0,6,7
 289 576 289 576 283 576 c 2,8,-1
 272 576 l 2,9,10
 263 576 263 576 261 575.5 c 128,-1,11
 259 575 259 575 250.5 574.5 c 128,-1,12
 242 574 242 574 240 573 c 2,13,-1
 230 570 l 2,14,15
 224 567 224 567 221 564 c 2,16,-1
 214 558 l 2,17,18
 209 554 209 554 207 549 c 128,-1,19
 205 544 205 544 202.5 536.5 c 128,-1,20
 200 529 200 529 199 521 c 0,21,22
 192 466 192 466 191.5 312 c 128,-1,23
 191 158 191 158 195 66 c 0,24,25
 197 23 197 23 222 17 c 0,26,27
 241 12 241 12 279 12 c 0,28,29
 285 12 285 12 285 4 c 0,30,31
 285 -3 285 -3 276 -3 c 0,32,33
 266 -4 266 -4 219.5 -2 c 128,-1,34
 173 0 173 0 161 0 c 0,35,36
 71 0 71 0 34 -4 c 0,37,38
 23 -6 23 -6 23 3 c 0,39,40
 23 14 23 14 29 14 c 0,41,42
 76 16 76 16 89 21 c 0,43,44
 121 32 121 32 124 75 c 0,45,46
 131 171 131 171 130 313.5 c 128,-1,47
 129 456 129 456 123 516 c 0,48,49
 119 552 119 552 103.5 562 c 128,-1,50
 88 572 88 572 47 576 c 0,51,52
 39 577 39 577 36 577 c 0,53,54
 28 578 28 578 28 583 c 0,55,56
 28 593 28 593 36 593 c 0,0,1
EndSplineSet
EndChar

StartChar: J
Encoding: 74 74 73
Width: 321
Flags: W
LayerCount: 2
Fore
SplineSet
215 522 m 0,0,1
 212 485 212 485 211 395.5 c 128,-1,2
 210 306 210 306 209.5 173.5 c 128,-1,3
 209 41 209 41 207 -58 c 1,4,5
 143 -145 143 -145 99 -180 c 0,6,7
 90 -187 90 -187 69 -195.5 c 128,-1,8
 48 -204 48 -204 31 -204 c 0,9,10
 21 -204 21 -204 13 -195.5 c 128,-1,11
 5 -187 5 -187 2 -179 c 0,12,13
 1 -173 1 -173 8 -169 c 0,14,15
 25 -159 25 -159 53 -147 c 0,16,17
 56 -146 56 -146 60 -147 c 0,18,19
 62 -148 62 -148 69 -152 c 128,-1,20
 76 -156 76 -156 83 -156 c 0,21,22
 92 -156 92 -156 105 -143 c 128,-1,23
 118 -130 118 -130 125 -106 c 0,24,25
 136 -65 136 -65 140 0 c 0,26,27
 148 129 148 129 147.5 294 c 128,-1,28
 147 459 147 459 139 521 c 0,29,30
 137 537 137 537 130.5 548 c 128,-1,31
 124 559 124 559 119.5 564 c 128,-1,32
 115 569 115 569 99 572.5 c 128,-1,33
 83 576 83 576 78 576.5 c 128,-1,34
 73 577 73 577 48 579 c 0,35,36
 40 579 40 579 41 586 c 0,37,38
 41 595 41 595 47 595 c 0,39,40
 108 588 108 588 179 588 c 0,41,42
 241 588 241 588 291 592 c 0,43,44
 300 593 300 593 301 585 c 0,45,46
 301 574 301 574 293 574 c 0,47,48
 282 576 282 576 268.5 574.5 c 128,-1,49
 255 573 255 573 244 569 c 128,-1,50
 233 565 233 565 225 553.5 c 128,-1,51
 217 542 217 542 215 522 c 0,0,1
EndSplineSet
EndChar

StartChar: K
Encoding: 75 75 74
Width: 594
Flags: W
LayerCount: 2
Fore
SplineSet
154 287 m 1,0,1
 356 483 356 483 373 502 c 0,2,3
 396 528 396 528 396 542 c 0,4,5
 396 551 396 551 383 557.5 c 128,-1,6
 370 564 370 564 350 564 c 0,7,8
 345 564 345 564 345 572 c 0,9,10
 345 581 345 581 349 580 c 0,11,12
 351 580 351 580 388 579 c 128,-1,13
 425 578 425 578 432 578 c 0,14,15
 458 578 458 578 477.5 579 c 128,-1,16
 497 580 497 580 505.5 581.5 c 128,-1,17
 514 583 514 583 515 583 c 0,18,19
 522 583 522 583 522 576 c 0,20,21
 522 567 522 567 515 566 c 0,22,23
 498 568 498 568 455 535 c 0,24,25
 419 508 419 508 377 471 c 2,26,-1
 280 383 l 1,27,-1
 204 312 l 1,28,-1
 504 59 l 2,29,30
 555 16 555 16 575 9 c 0,31,32
 583 7 583 7 579 -1 c 0,33,34
 578 -7 578 -7 572 -7 c 0,35,36
 570 -7 570 -7 564.5 -5 c 128,-1,37
 559 -3 559 -3 547 -1.5 c 128,-1,38
 535 0 535 0 519 0 c 0,39,40
 448 0 448 0 408 -7 c 0,41,42
 403 -7 403 -7 404 2 c 0,43,44
 404 10 404 10 407 9 c 0,45,46
 437 13 437 13 442.5 19.5 c 128,-1,47
 448 26 448 26 432 41 c 2,48,-1
 336 124 l 1,49,-1
 232 210 l 1,50,-1
 154 274 l 1,51,52
 154 152 154 152 159 60 c 0,53,54
 160 37 160 37 173.5 28.5 c 128,-1,55
 187 20 187 20 229 11 c 0,56,57
 234 10 234 10 233 2 c 0,58,59
 233 -4 233 -4 226 -4 c 0,60,61
 224 -4 224 -4 209 -3 c 2,62,-1
 170 0 l 2,63,64
 146 1 146 1 124 1 c 0,65,66
 54 3 54 3 32 -1 c 0,67,68
 23 -3 23 -3 23 5 c 0,69,70
 23 15 23 15 29 15 c 0,71,72
 58 17 58 17 70 26.5 c 128,-1,73
 82 36 82 36 84 66 c 0,74,75
 103 316 103 316 89 511 c 0,76,77
 87 543 87 543 79 552.5 c 128,-1,78
 71 562 71 562 35 567 c 0,79,80
 28 568 28 568 28 575 c 0,81,82
 28 583 28 583 35 582 c 0,83,84
 80 579 80 579 129 579 c 0,85,86
 157 579 157 579 181 580.5 c 128,-1,87
 205 582 205 582 217 584 c 2,88,-1
 231 586 l 2,89,90
 236 586 236 586 235.5 579.5 c 128,-1,91
 235 573 235 573 231 572 c 0,92,93
 212 570 212 570 205.5 568.5 c 128,-1,94
 199 567 199 567 187 562.5 c 128,-1,95
 175 558 175 558 169.5 547.5 c 128,-1,96
 164 537 164 537 164 520 c 0,97,98
 157 418 157 418 154 287 c 1,0,1
EndSplineSet
EndChar

StartChar: L
Encoding: 76 76 75
Width: 518
Flags: W
LayerCount: 2
Fore
SplineSet
37 584 m 0,0,1
 38 584 38 584 50.5 583 c 128,-1,2
 63 582 63 582 87 580.5 c 128,-1,3
 111 579 111 579 136 579 c 0,4,5
 165 579 165 579 188.5 580.5 c 128,-1,6
 212 582 212 582 223 583.5 c 128,-1,7
 234 585 234 585 235 585 c 0,8,9
 243 585 243 585 243 576 c 0,10,11
 243 569 243 569 242 567.5 c 128,-1,12
 241 566 241 566 236 565 c 0,13,14
 197 561 197 561 183.5 553 c 128,-1,15
 170 545 170 545 168 521 c 0,16,17
 153 329 153 329 159 72 c 0,18,19
 160 48 160 48 171 38.5 c 128,-1,20
 182 29 182 29 216 28 c 0,21,22
 283 25 283 25 325 29 c 0,23,24
 410 37 410 37 442.5 58 c 128,-1,25
 475 79 475 79 486 116 c 0,26,27
 488 123 488 123 496 121 c 0,28,29
 505 118 505 118 503 110 c 0,30,31
 478 12 478 12 463 -13 c 1,32,33
 442 -6 442 -6 363 -3 c 0,34,35
 190 0 190 0 132 0 c 2,36,-1
 31 0 l 2,37,38
 23 0 23 0 24 9 c 0,39,40
 24 16 24 16 25 17.5 c 128,-1,41
 26 19 26 19 31 20 c 0,42,43
 69 26 69 26 79 35.5 c 128,-1,44
 89 45 89 45 90 78 c 0,45,46
 99 389 99 389 94 512 c 0,47,48
 93 532 93 532 90 542.5 c 128,-1,49
 87 553 87 553 77 558 c 128,-1,50
 67 563 67 563 62 564 c 2,51,-1
 37 566 l 2,52,53
 30 566 30 566 31 577 c 0,54,55
 32 584 32 584 37 584 c 0,0,1
EndSplineSet
EndChar

StartChar: M
Encoding: 77 77 76
Width: 839
Flags: W
LayerCount: 2
Fore
SplineSet
33 584 m 0,0,1
 34 584 34 584 53 583 c 2,2,-1
 99 580 l 2,3,4
 126 579 126 579 146 579 c 0,5,6
 164 579 164 579 174.5 579.5 c 128,-1,7
 185 580 185 580 190 580 c 2,8,-1
 195 580 l 2,9,10
 204 580 204 580 205 576 c 0,11,12
 213 542 213 542 240 486 c 0,13,14
 267 429 267 429 435 118 c 1,15,-1
 530 298 l 1,16,-1
 634 494 l 2,17,18
 669 562 669 562 673 573 c 0,19,20
 675 581 675 581 681 580 c 0,21,22
 682 580 682 580 690 579.5 c 128,-1,23
 698 579 698 579 712 579 c 2,24,-1
 745 579 l 1,25,-1
 773 579 l 2,26,27
 787 579 787 579 796 579.5 c 128,-1,28
 805 580 805 580 807 580 c 0,29,30
 812 580 812 580 812 571.5 c 128,-1,31
 812 563 812 563 806 563 c 0,32,33
 763 567 763 567 747.5 554 c 128,-1,34
 732 541 732 541 727 494 c 0,35,36
 723 451 723 451 724 408 c 0,37,38
 729 230 729 230 734 105 c 0,39,40
 736 53 736 53 752.5 37.5 c 128,-1,41
 769 22 769 22 813 18 c 0,42,43
 817 18 817 18 817 8.5 c 128,-1,44
 817 -1 817 -1 810 -1 c 0,45,46
 808 -1 808 -1 795 -0.5 c 128,-1,47
 782 0 782 0 759.5 1 c 128,-1,48
 737 2 737 2 716 2 c 0,49,50
 620 2 620 2 579 -5 c 0,51,52
 570 -7 570 -7 569 0 c 0,53,54
 568 10 568 10 573 11 c 0,55,56
 623 20 623 20 644.5 42 c 128,-1,57
 666 64 666 64 666 115 c 0,58,59
 664 364 664 364 662 482 c 1,60,61
 584 352 584 352 510 203 c 128,-1,62
 436 54 436 54 420 4 c 0,63,64
 419 -1 419 -1 413 -0.5 c 128,-1,65
 407 0 407 0 406 5 c 0,66,67
 389 59 389 59 350 140 c 128,-1,68
 311 221 311 221 252 332 c 2,69,-1
 171 488 l 1,70,71
 159 392 159 392 151 104 c 0,72,73
 150 51 150 51 168 31.5 c 128,-1,74
 186 12 186 12 235 11 c 0,75,76
 243 11 243 11 243 2 c 128,-1,77
 243 -7 243 -7 235 -7 c 0,78,79
 232 -7 232 -7 217 -5.5 c 128,-1,80
 202 -4 202 -4 178.5 -3 c 128,-1,81
 155 -2 155 -2 134 -2 c 0,82,83
 91 -2 91 -2 30 -7 c 0,84,85
 27 -8 27 -8 26 -7 c 128,-1,86
 25 -6 25 -6 25 -5 c 128,-1,87
 25 -4 25 -4 24 0 c 0,88,89
 23 10 23 10 27 10 c 0,90,91
 71 11 71 11 92.5 34 c 128,-1,92
 114 57 114 57 118 105 c 0,93,94
 120 128 120 128 129.5 289 c 128,-1,95
 139 450 139 450 138 464 c 0,96,97
 137 496 137 496 131.5 516 c 128,-1,98
 126 536 126 536 109.5 546 c 128,-1,99
 93 556 93 556 80.5 559 c 128,-1,100
 68 562 68 562 39 566 c 0,101,102
 34 567 34 567 32 567 c 0,103,104
 25 568 25 568 26 576 c 0,105,106
 25 584 25 584 33 584 c 0,0,1
EndSplineSet
EndChar

StartChar: N
Encoding: 78 78 77
Width: 743
Flags: W
LayerCount: 2
Fore
SplineSet
29 593 m 0,0,1
 75 586 75 586 97 586 c 0,2,3
 106 586 106 586 148 590 c 1,4,5
 156 577 156 577 186 544 c 128,-1,6
 216 511 216 511 272 456 c 2,7,-1
 374 358 l 1,8,-1
 500 238 l 1,9,-1
 616 127 l 1,10,11
 617 146 617 146 619 205.5 c 128,-1,12
 621 265 621 265 621.5 285.5 c 128,-1,13
 622 306 622 306 622.5 349.5 c 128,-1,14
 623 393 623 393 621 428.5 c 128,-1,15
 619 464 619 464 615 505 c 0,16,17
 612 543 612 543 596.5 558.5 c 128,-1,18
 581 574 581 574 530 579 c 0,19,20
 524 580 524 580 525 586 c 0,21,22
 525 594 525 594 532 594 c 128,-1,23
 539 594 539 594 583.5 589.5 c 128,-1,24
 628 585 628 585 654 585 c 0,25,26
 674 585 674 585 687.5 585.5 c 128,-1,27
 701 586 701 586 707 587 c 2,28,-1
 714 588 l 2,29,30
 721 588 721 588 720 580 c 0,31,32
 720 571 720 571 713 572 c 0,33,34
 686 571 686 571 671.5 555.5 c 128,-1,35
 657 540 657 540 655 499 c 0,36,37
 646 319 646 319 647 84 c 0,38,39
 647 30 647 30 651 2 c 0,40,41
 652 -10 652 -10 643 -10 c 0,42,43
 636 -10 636 -10 630 1 c 0,44,45
 621 23 621 23 589.5 59.5 c 128,-1,46
 558 96 558 96 503 150 c 2,47,-1
 396 252 l 1,48,-1
 266 372 l 1,49,-1
 138 492 l 1,50,51
 133 198 133 198 137 85 c 0,52,53
 138 53 138 53 151 40 c 0,54,55
 173 18 173 18 239 9 c 0,56,57
 247 8 247 8 247 -1 c 0,58,59
 247 -9 247 -9 238 -9 c 0,60,61
 172 -2 172 -2 128 -2 c 0,62,63
 77 -2 77 -2 45 -8 c 0,64,65
 36 -9 36 -9 35 -2 c 0,66,67
 33 8 33 8 41 9 c 0,68,69
 82 13 82 13 91 25 c 128,-1,70
 100 37 100 37 101 88 c 0,71,72
 101 117 101 117 104 230 c 128,-1,73
 107 343 107 343 106.5 372 c 128,-1,74
 106 401 106 401 103 508 c 1,75,76
 88 568 88 568 30 575 c 0,77,78
 23 576 23 576 23 584.5 c 128,-1,79
 23 593 23 593 29 593 c 0,0,1
EndSplineSet
EndChar

StartChar: O
Encoding: 79 79 78
Width: 661
Flags: W
LayerCount: 2
Fore
SplineSet
305 571 m 0,0,1
 258 571 258 571 198 541 c 0,2,3
 149 515 149 515 118.5 459 c 128,-1,4
 88 403 88 403 88 344 c 0,5,6
 88 209 88 209 165 112 c 0,7,8
 198 69 198 69 252 42 c 128,-1,9
 306 15 306 15 364 15 c 0,10,11
 445 15 445 15 500 68 c 0,12,13
 536 103 536 103 555.5 153 c 128,-1,14
 575 203 575 203 575 249 c 0,15,16
 575 366 575 366 513 458 c 0,17,18
 480 507 480 507 426 539 c 128,-1,19
 372 571 372 571 305 571 c 0,0,1
332 599 m 0,20,21
 457 599 457 599 550.5 511.5 c 128,-1,22
 644 424 644 424 644 289 c 0,23,24
 644 164 644 164 555 75 c 128,-1,25
 466 -14 466 -14 348 -14 c 0,26,27
 268 -14 268 -14 207.5 9.5 c 128,-1,28
 147 33 147 33 98 90 c 0,29,30
 63 130 63 130 41 185 c 128,-1,31
 19 240 19 240 19 289 c 0,32,33
 19 385 19 385 74.5 462 c 128,-1,34
 130 539 130 539 215 573 c 0,35,36
 279 599 279 599 332 599 c 0,20,21
EndSplineSet
EndChar

StartChar: P
Encoding: 80 80 79
Width: 497
Flags: W
LayerCount: 2
Fore
SplineSet
239 573 m 0,0,1
 199 573 199 573 170 566 c 1,2,3
 167 552 167 552 164.5 413.5 c 128,-1,4
 162 275 162 275 164 245 c 1,5,6
 192 239 192 239 234 239 c 0,7,8
 314 239 314 239 361 283.5 c 128,-1,9
 408 328 408 328 408 393 c 0,10,11
 408 478 408 478 358.5 525.5 c 128,-1,12
 309 573 309 573 239 573 c 0,0,1
31 596 m 2,13,-1
 46 596 l 2,14,15
 59 596 59 596 78.5 595 c 128,-1,16
 98 594 98 594 118 594 c 0,17,18
 144 594 144 594 181 596.5 c 128,-1,19
 218 599 218 599 229 599 c 0,20,21
 298 599 298 599 355 572 c 0,22,23
 412 546 412 546 447 501.5 c 128,-1,24
 482 457 482 457 482 394 c 0,25,26
 482 328 482 328 412.5 272 c 128,-1,27
 343 216 343 216 242 216 c 0,28,29
 197 216 197 216 164 222 c 1,30,31
 164 187 164 187 165.5 126.5 c 128,-1,32
 167 66 167 66 167 58 c 0,33,34
 168 28 168 28 183 24 c 0,35,36
 196 20 196 20 221.5 16 c 128,-1,37
 247 12 247 12 250 11 c 0,38,39
 258 9 258 9 254 1 c 0,40,41
 252 -8 252 -8 246 -6 c 0,42,43
 193 1 193 1 136 1 c 0,44,45
 70 1 70 1 45 -6 c 0,46,47
 36 -9 36 -9 34 -1 c 0,48,49
 31 9 31 9 38 10 c 0,50,51
 76 19 76 19 86 27 c 0,52,53
 95 34 95 34 96.5 40 c 128,-1,54
 98 46 98 46 99 65 c 0,55,56
 106 430 106 430 92 544 c 0,57,58
 91 554 91 554 83 560 c 0,59,60
 66 575 66 575 30 579 c 0,61,62
 23 580 23 580 24 589 c 0,63,64
 23 596 23 596 31 596 c 2,13,-1
EndSplineSet
EndChar

StartChar: Q
Encoding: 81 81 80
Width: 689
Flags: W
LayerCount: 2
Fore
SplineSet
325 568 m 0,0,1
 228 568 228 568 164 501.5 c 128,-1,2
 100 435 100 435 100 335 c 0,3,4
 100 254 100 254 133.5 181.5 c 128,-1,5
 167 109 167 109 232 62 c 128,-1,6
 297 15 297 15 379 15 c 0,7,8
 456 15 456 15 512 70 c 0,9,10
 586 141 586 141 586 266 c 0,11,12
 586 365 586 365 526 454 c 0,13,14
 497 497 497 497 441 532.5 c 128,-1,15
 385 568 385 568 325 568 c 0,0,1
445 7 m 1,16,-1
 446 7 l 1,17,18
 499 -35 499 -35 573 -68.5 c 128,-1,19
 647 -102 647 -102 698 -102 c 0,20,21
 722 -102 722 -102 739 -97 c 0,22,23
 743 -96 743 -96 745 -102 c 0,24,25
 746 -103 746 -103 746 -104 c 0,26,27
 749 -113 749 -113 743 -113 c 0,28,29
 673 -130 673 -130 618 -130 c 0,30,31
 565 -130 565 -130 481.5 -94 c 128,-1,32
 398 -58 398 -58 347 -10 c 1,33,34
 271 -10 271 -10 216.5 12.5 c 128,-1,35
 162 35 162 35 113 89 c 0,36,37
 78 129 78 129 56 183 c 128,-1,38
 34 237 34 237 34 289 c 0,39,40
 34 415 34 415 129 505.5 c 128,-1,41
 224 596 224 596 348 596 c 0,42,43
 468 596 468 596 561.5 509.5 c 128,-1,44
 655 423 655 423 655 288 c 0,45,46
 655 191 655 191 596.5 114.5 c 128,-1,47
 538 38 538 38 445 7 c 1,16,-1
EndSplineSet
EndChar

StartChar: R
Encoding: 82 82 81
Width: 638
Flags: W
LayerCount: 2
Fore
SplineSet
237 572 m 0,0,1
 188 572 188 572 171 555 c 0,2,3
 165 549 165 549 165 544 c 0,4,5
 156 415 156 415 158 304 c 1,6,7
 198 298 198 298 241 299 c 0,8,9
 273 299 273 299 298 304 c 0,10,11
 331 313 331 313 360.5 341 c 128,-1,12
 390 369 390 369 390 421 c 0,13,14
 390 466 390 466 363.5 507.5 c 128,-1,15
 337 549 337 549 296 564 c 0,16,17
 277 572 277 572 237 572 c 0,0,1
34 583 m 0,18,19
 36 583 36 583 61.5 581 c 128,-1,20
 87 579 87 579 112 579 c 0,21,22
 138 579 138 579 185.5 585.5 c 128,-1,23
 233 592 233 592 260 592 c 0,24,25
 355 592 355 592 408.5 542.5 c 128,-1,26
 462 493 462 493 462 435 c 0,27,28
 462 401 462 401 448 373.5 c 128,-1,29
 434 346 434 346 411.5 329 c 128,-1,30
 389 312 389 312 370.5 303 c 128,-1,31
 352 294 352 294 334 289 c 1,32,33
 455 107 455 107 518 43 c 0,34,35
 543 18 543 18 573.5 2.5 c 128,-1,36
 604 -13 604 -13 628 -13 c 0,37,38
 636 -13 636 -13 635 -21 c 0,39,40
 635 -30 635 -30 609 -30 c 0,41,42
 526 -30 526 -30 443 41 c 0,43,44
 369 104 369 104 257 279 c 1,45,46
 221 275 221 275 158 285 c 1,47,48
 157 185 157 185 163 43 c 0,49,50
 163 34 163 34 169.5 28 c 128,-1,51
 176 22 176 22 182.5 19.5 c 128,-1,52
 189 17 189 17 203.5 13 c 128,-1,53
 218 9 218 9 225.5 6.5 c 128,-1,54
 233 4 233 4 231 -5 c 0,55,56
 228 -12 228 -12 223 -10 c 0,57,58
 178 0 178 0 137 0 c 0,59,60
 99 0 99 0 37 -10 c 0,61,62
 32 -11 32 -11 27 -7 c 0,63,64
 25 -6 25 -6 26 0 c 128,-1,65
 27 6 27 6 30 7 c 0,66,67
 88 15 88 15 89 56 c 0,68,69
 101 362 101 362 90 527 c 0,70,71
 89 552 89 552 75.5 558 c 128,-1,72
 62 564 62 564 30 565 c 0,73,74
 25 565 25 565 24 568.5 c 128,-1,75
 23 572 23 572 25 576 c 0,76,77
 29 583 29 583 34 583 c 0,18,19
EndSplineSet
EndChar

StartChar: S
Encoding: 83 83 82
Width: 444
Flags: W
LayerCount: 2
Fore
SplineSet
239 587 m 0,0,1
 288 587 288 587 343 573 c 0,2,3
 381 563 381 563 397 579 c 0,4,5
 400 582 400 582 405 582 c 0,6,7
 411 582 411 582 409 575 c 2,8,-1
 401 515 l 2,9,10
 401 502 401 502 409 457 c 0,11,12
 410 451 410 451 403.5 450 c 128,-1,13
 397 449 397 449 396 454 c 0,14,15
 387 505 387 505 353 532 c 0,16,17
 303 570 303 570 242 570 c 0,18,19
 183 570 183 570 146.5 539.5 c 128,-1,20
 110 509 110 509 110 461 c 0,21,22
 110 444 110 444 114 429 c 128,-1,23
 118 414 118 414 123.5 404.5 c 128,-1,24
 129 395 129 395 138 386 c 128,-1,25
 147 377 147 377 153 373 c 2,26,-1
 168 363 l 2,27,28
 176 357 176 357 178 356 c 0,29,30
 190 347 190 347 250.5 324.5 c 128,-1,31
 311 302 311 302 328 292 c 0,32,33
 425 238 425 238 425 141 c 0,34,35
 425 73 425 73 368.5 31.5 c 128,-1,36
 312 -10 312 -10 242 -10 c 0,37,38
 191 -10 191 -10 151.5 -4 c 128,-1,39
 112 2 112 2 91.5 7.5 c 128,-1,40
 71 13 71 13 68 13 c 0,41,42
 60 13 60 13 60 0 c 0,43,44
 60 -6 60 -6 52 -4 c 2,45,-1
 48 -4 l 2,46,47
 44 -3 44 -3 43.5 -2 c 128,-1,48
 43 -1 43 -1 43 3 c 0,49,50
 44 13 44 13 43 26 c 0,51,52
 43 52 43 52 19 144 c 0,53,54
 18 151 18 151 24 152 c 0,55,56
 33 155 33 155 34 151 c 0,57,58
 52 86 52 86 78 64 c 0,59,60
 98 47 98 47 147.5 31 c 128,-1,61
 197 15 197 15 251 15 c 128,-1,62
 305 15 305 15 335.5 43.5 c 128,-1,63
 366 72 366 72 366 117 c 0,64,65
 366 154 366 154 353 177 c 128,-1,66
 340 200 340 200 309 222 c 0,67,68
 289 236 289 236 227 260.5 c 128,-1,69
 165 285 165 285 141 300 c 0,70,71
 53 351 53 351 53 426 c 0,72,73
 53 492 53 492 105.5 539.5 c 128,-1,74
 158 587 158 587 239 587 c 0,0,1
EndSplineSet
EndChar

StartChar: T
Encoding: 84 84 83
Width: 634
Flags: W
LayerCount: 2
Fore
SplineSet
60 596 m 0,0,1
 63 596 63 596 70.5 588.5 c 128,-1,2
 78 581 78 581 89 580 c 0,3,4
 137 577 137 577 313 578 c 2,5,-1
 388 578 l 2,6,7
 428 578 428 578 460.5 578.5 c 128,-1,8
 493 579 493 579 520 579 c 2,9,-1
 562 579 l 1,10,-1
 579 579 l 2,11,12
 586 579 586 579 593.5 580.5 c 128,-1,13
 601 582 601 582 606.5 584 c 128,-1,14
 612 586 612 586 613 586 c 0,15,16
 622 586 622 586 618 578 c 0,17,18
 613 569 613 569 606 547 c 0,19,20
 602 534 602 534 595 491 c 0,21,22
 594 480 594 480 581 481 c 0,23,24
 572 484 572 484 573 491 c 2,25,-1
 580 525 l 1,26,27
 560 545 560 545 496 549 c 128,-1,28
 432 553 432 553 358 548 c 1,29,30
 348 196 348 196 353 84 c 0,31,32
 353 75 353 75 354 67 c 128,-1,33
 355 59 355 59 356 52.5 c 128,-1,34
 357 46 357 46 361 41.5 c 128,-1,35
 365 37 365 37 366.5 33.5 c 128,-1,36
 368 30 368 30 374.5 28 c 128,-1,37
 381 26 381 26 383 24.5 c 128,-1,38
 385 23 385 23 395 21.5 c 128,-1,39
 405 20 405 20 407.5 19.5 c 128,-1,40
 410 19 410 19 423.5 18 c 128,-1,41
 437 17 437 17 441 16 c 0,42,43
 451 14 451 14 446 3 c 0,44,45
 442 -6 442 -6 436 -7 c 0,46,47
 431 -7 431 -7 397 -2 c 128,-1,48
 363 3 363 3 337 4 c 0,49,50
 286 5 286 5 196 -9 c 0,51,52
 187 -10 187 -10 184 -3 c 0,53,54
 178 7 178 7 189 9 c 0,55,56
 243 19 243 19 266 31 c 0,57,58
 274 34 274 34 276 42.5 c 128,-1,59
 278 51 278 51 279 82 c 0,60,61
 292 506 292 506 275 546 c 1,62,63
 224 554 224 554 134 549 c 0,64,65
 88 547 88 547 61 534 c 0,66,67
 50 528 50 528 45.5 521 c 128,-1,68
 41 514 41 514 33 493 c 0,69,70
 30 483 30 483 23 486 c 0,71,72
 14 491 14 491 16 496 c 0,73,74
 49 568 49 568 53 588 c 0,75,76
 55 596 55 596 60 596 c 0,0,1
EndSplineSet
EndChar

StartChar: U
Encoding: 85 85 84
Width: 677
Flags: W
LayerCount: 2
Fore
SplineSet
26 589 m 0,0,1
 27 589 27 589 39.5 588 c 128,-1,2
 52 587 52 587 74 586 c 128,-1,3
 96 585 96 585 122 585 c 0,4,5
 147 585 147 585 173 586 c 128,-1,6
 199 587 199 587 216 588 c 128,-1,7
 233 589 233 589 234 589 c 0,8,9
 239 589 239 589 239.5 588 c 128,-1,10
 240 587 240 587 241 582 c 0,11,12
 243 573 243 573 233 573 c 0,13,14
 189 573 189 573 172.5 561 c 128,-1,15
 156 549 156 549 153 513 c 0,16,17
 147 442 147 442 149 197 c 0,18,19
 149 125 149 125 171 90 c 0,20,21
 217 15 217 15 341 15 c 0,22,23
 407 15 407 15 454.5 34.5 c 128,-1,24
 502 54 502 54 521 79 c 0,25,26
 549 119 549 119 559 215 c 0,27,28
 576 404 576 404 556 540 c 0,29,30
 554 556 554 556 541 563 c 0,31,32
 530 570 530 570 492 570 c 0,33,34
 481 570 481 570 480 579 c 0,35,36
 480 584 480 584 481.5 586.5 c 128,-1,37
 483 589 483 589 487 588 c 0,38,39
 517 584 517 584 567 584 c 0,40,41
 587 584 587 584 607 584.5 c 128,-1,42
 627 585 627 585 639 585.5 c 128,-1,43
 651 586 651 586 652 586 c 0,44,45
 661 586 661 586 660 578.5 c 128,-1,46
 659 571 659 571 651 571 c 0,47,48
 621 572 621 572 608.5 564.5 c 128,-1,49
 596 557 596 557 596 531 c 0,50,51
 594 311 594 311 585 214 c 0,52,53
 575 109 575 109 542 63 c 0,54,55
 517 29 517 29 461.5 8 c 128,-1,56
 406 -13 406 -13 337 -13 c 0,57,58
 259 -13 259 -13 215 1 c 128,-1,59
 171 15 171 15 133 51 c 0,60,61
 105 77 105 77 95 105 c 0,62,63
 83 141 83 141 86 195 c 0,64,65
 94 445 94 445 83 526 c 0,66,67
 79 563 79 563 64 567 c 0,68,69
 53 570 53 570 27 572 c 0,70,71
 18 572 18 572 18.5 580.5 c 128,-1,72
 19 589 19 589 26 589 c 0,0,1
EndSplineSet
EndChar

StartChar: V
Encoding: 86 86 85
Width: 689
Flags: W
LayerCount: 2
Fore
SplineSet
18 588 m 0,0,1
 20 588 20 588 40 586 c 128,-1,2
 60 584 60 584 101 584 c 0,3,4
 192 584 192 584 212 587 c 0,5,6
 216 588 216 588 216 586 c 2,7,-1
 219 579 l 2,8,9
 221 570 221 570 214 570 c 0,10,11
 161 568 161 568 161 554 c 0,12,13
 161 544 161 544 171 520 c 0,14,15
 215 412 215 412 368 95 c 1,16,-1
 458 282 l 1,17,-1
 504 383 l 1,18,-1
 553 498 l 2,19,20
 563 524 563 524 563 542 c 0,21,22
 563 553 563 553 549 562 c 128,-1,23
 535 571 535 571 515 572 c 0,24,25
 509 572 509 572 510 581 c 0,26,27
 511 587 511 587 512.5 590 c 128,-1,28
 514 593 514 593 517 592 c 0,29,30
 562 586 562 586 621 586 c 0,31,32
 668 586 668 586 672 587 c 0,33,34
 675 588 675 588 676 586 c 128,-1,35
 677 584 677 584 677 579 c 0,36,37
 677 570 677 570 674 571 c 0,38,39
 624 562 624 562 595 503 c 0,40,41
 416 138 416 138 389 78 c 0,42,43
 374 43 374 43 356 -15 c 1,44,-1
 344 -15 l 1,45,46
 317 51 317 51 216.5 258.5 c 128,-1,47
 116 466 116 466 103 491 c 0,48,49
 76 544 76 544 63 556.5 c 128,-1,50
 50 569 50 569 18 569 c 0,51,52
 11 569 11 569 11 578 c 0,53,54
 11 588 11 588 18 588 c 0,0,1
EndSplineSet
EndChar

StartChar: W
Encoding: 87 87 86
Width: 920
Flags: W
LayerCount: 2
Fore
SplineSet
16 591 m 0,0,1
 55 591 55 591 91 588.5 c 128,-1,2
 127 586 127 586 130 586 c 0,3,4
 152 586 152 586 177.5 588 c 128,-1,5
 203 590 203 590 219 592 c 128,-1,6
 235 594 235 594 236 594 c 0,7,8
 244 594 244 594 246 587 c 0,9,10
 248 578 248 578 243 578 c 0,11,12
 216 575 216 575 194.5 565.5 c 128,-1,13
 173 556 173 556 173 541 c 0,14,15
 173 528 173 528 180 505 c 0,16,17
 198 448 198 448 248 310 c 128,-1,18
 298 172 298 172 325 111 c 1,19,-1
 457 415 l 1,20,21
 434 484 434 484 400 542 c 0,22,23
 388 562 388 562 378.5 569 c 128,-1,24
 369 576 369 576 349 576 c 0,25,26
 342 576 342 576 342 583 c 0,27,28
 342 592 342 592 347 592 c 0,29,30
 348 592 348 592 362.5 591 c 128,-1,31
 377 590 377 590 401.5 589.5 c 128,-1,32
 426 589 426 589 452 589 c 0,33,34
 472 589 472 589 496 590 c 2,35,-1
 538 593 l 2,36,37
 554 594 554 594 555 594 c 0,38,39
 560 594 560 594 560 587 c 0,40,41
 560 578 560 578 555 578 c 0,42,43
 527 577 527 577 506.5 568 c 128,-1,44
 486 559 486 559 486 542 c 0,45,46
 486 535 486 535 491 519 c 0,47,48
 590 223 590 223 640 111 c 1,49,50
 672 183 672 183 715 305.5 c 128,-1,51
 758 428 758 428 769 475 c 0,52,53
 779 520 779 520 779 525 c 0,54,55
 779 550 779 550 753 564.5 c 128,-1,56
 727 579 727 579 693 579 c 0,57,58
 687 579 687 579 687 587 c 0,59,60
 687 596 687 596 694 596 c 0,61,62
 696 596 696 596 732.5 594 c 128,-1,63
 769 592 769 592 804 592 c 0,64,65
 834 592 834 592 858 593 c 2,66,-1
 892 594 l 2,67,68
 903 595 903 595 904 595 c 0,69,70
 911 595 911 595 910.5 587 c 128,-1,71
 910 579 910 579 904 579 c 0,72,73
 882 579 882 579 855 562 c 0,74,75
 846 556 846 556 831.5 530 c 128,-1,76
 817 504 817 504 808 482 c 2,77,-1
 738 292 l 1,78,-1
 664 92 l 2,79,80
 636 12 636 12 628 -19 c 1,81,-1
 606 -19 l 1,82,83
 606 -10 606 -10 584 58 c 2,84,-1
 518 247 l 2,85,86
 474 369 474 369 470 379 c 1,87,88
 373 175 373 175 309 -19 c 1,89,-1
 294 -19 l 1,90,91
 148 402 148 402 113 488 c 0,92,93
 91 542 91 542 74.5 556.5 c 128,-1,94
 58 571 58 571 15 576 c 0,95,96
 11 576 11 576 11 582 c 0,97,98
 11 591 11 591 16 591 c 0,0,1
EndSplineSet
EndChar

StartChar: X
Encoding: 88 88 87
Width: 630
Flags: W
LayerCount: 2
Fore
SplineSet
27 594 m 0,0,1
 28 594 28 594 42 593 c 128,-1,2
 56 592 56 592 80 590.5 c 128,-1,3
 104 589 104 589 130 589 c 2,4,-1
 170 589 l 2,5,6
 187 589 187 589 197.5 589.5 c 128,-1,7
 208 590 208 590 215 590.5 c 128,-1,8
 222 591 222 591 226 591 c 2,9,-1
 231 591 l 2,10,11
 236 591 236 591 235 584 c 0,12,13
 235 576 235 576 231 577 c 0,14,15
 187 579 187 579 186 561 c 0,16,17
 186 553 186 553 190 546 c 0,18,19
 205 518 205 518 247 455 c 128,-1,20
 289 392 289 392 331 338 c 1,21,22
 374 391 374 391 396 424 c 128,-1,23
 418 457 418 457 448 511 c 0,24,25
 456 525 456 525 456 544 c 0,26,27
 456 559 456 559 438 568.5 c 128,-1,28
 420 578 420 578 393 579 c 0,29,30
 387 579 387 579 389 586 c 0,31,32
 390 591 390 591 391 593 c 128,-1,33
 392 595 392 595 396 594 c 0,34,35
 449 586 449 586 491 586 c 2,36,-1
 530 586 l 2,37,38
 551 586 551 586 565.5 586.5 c 128,-1,39
 580 587 580 587 582 587 c 0,40,41
 589 587 589 587 589 580 c 0,42,43
 589 572 589 572 581 573 c 0,44,45
 562 575 562 575 551 570.5 c 128,-1,46
 540 566 540 566 525 552 c 0,47,48
 500 529 500 529 344 321 c 1,49,-1
 527 77 l 2,50,51
 530 73 530 73 536.5 65 c 128,-1,52
 543 57 543 57 546 53 c 128,-1,53
 549 49 549 49 555 42 c 2,54,-1
 564 32 l 2,55,56
 568 28 568 28 573 24.5 c 128,-1,57
 578 21 578 21 582 19 c 128,-1,58
 586 17 586 17 591 16 c 128,-1,59
 596 15 596 15 612 13 c 0,60,61
 620 12 620 12 619 2 c 0,62,63
 619 -6 619 -6 612 -6 c 0,64,65
 611 -6 611 -6 600 -4.5 c 128,-1,66
 589 -3 589 -3 567.5 -1.5 c 128,-1,67
 546 0 546 0 520 0 c 0,68,69
 450 0 450 0 410 -6 c 0,70,71
 402 -7 402 -7 402 1 c 0,72,73
 400 11 400 11 406 11 c 0,74,75
 458 15 458 15 458 37 c 0,76,77
 458 51 458 51 443 75 c 2,78,-1
 405 133 l 1,79,-1
 354 207 l 1,80,-1
 307 273 l 1,81,82
 239 186 239 186 175 88 c 0,83,84
 160 65 160 65 160 53 c 0,85,86
 160 32 160 32 179 21 c 128,-1,87
 198 10 198 10 218 9 c 0,88,89
 227 9 227 9 226 0 c 0,90,91
 225 -4 225 -4 223.5 -6 c 128,-1,92
 222 -8 222 -8 219 -7 c 0,93,94
 193 0 193 0 132 0 c 0,95,96
 60 0 60 0 19 -6 c 0,97,98
 15 -7 15 -7 13.5 -4.5 c 128,-1,99
 12 -2 12 -2 12 3 c 0,100,101
 12 12 12 12 17 11 c 0,102,103
 61 11 61 11 102 52 c 0,104,105
 123 72 123 72 159 117 c 2,106,-1
 237 216 l 1,107,-1
 293 289 l 1,108,109
 186 440 186 440 112 529 c 0,110,111
 69 580 69 580 29 580 c 0,112,113
 24 580 24 580 23.5 581 c 128,-1,114
 23 582 23 582 23 586 c 0,115,116
 22 594 22 594 27 594 c 0,0,1
EndSplineSet
EndChar

StartChar: Y
Encoding: 89 89 88
Width: 619
Flags: W
LayerCount: 2
Fore
SplineSet
18 594 m 0,0,1
 20 594 20 594 39 593 c 2,2,-1
 86 590 l 2,3,4
 113 589 113 589 136 589 c 0,5,6
 157 589 157 589 178 589.5 c 128,-1,7
 199 590 199 590 211.5 591 c 128,-1,8
 224 592 224 592 226 592 c 0,9,10
 233 592 233 592 233 584 c 0,11,12
 233 575 233 575 228 576 c 0,13,14
 174 577 174 577 174 555 c 0,15,16
 174 543 174 543 182 528 c 0,17,18
 240 443 240 443 342 307 c 1,19,20
 433 441 433 441 466 499 c 0,21,22
 485 530 485 530 485 541 c 128,-1,23
 485 552 485 552 468.5 564 c 128,-1,24
 452 576 452 576 421 578 c 0,25,26
 412 578 412 578 415 589 c 0,27,28
 419 597 419 597 422 596 c 0,29,30
 467 586 467 586 529 586 c 0,31,32
 549 586 549 586 566.5 587 c 128,-1,33
 584 588 584 588 593 589.5 c 128,-1,34
 602 591 602 591 603 591 c 0,35,36
 611 591 611 591 609 583 c 0,37,38
 608 576 608 576 602 576 c 0,39,40
 548 568 548 568 511 516 c 0,41,42
 415 381 415 381 356 281 c 1,43,44
 356 75 356 75 358 52 c 0,45,46
 359 37 359 37 363.5 31.5 c 128,-1,47
 368 26 368 26 379 22 c 0,48,49
 385 20 385 20 407 15.5 c 128,-1,50
 429 11 429 11 433 10 c 0,51,52
 439 8 439 8 438 1 c 0,53,54
 437 -5 437 -5 436 -7 c 128,-1,55
 435 -9 435 -9 432 -8 c 0,56,57
 400 0 400 0 319 0 c 0,58,59
 265 0 265 0 217 -9 c 0,60,61
 213 -10 213 -10 211.5 -8.5 c 128,-1,62
 210 -7 210 -7 210 -2 c 0,63,64
 210 7 210 7 215 9 c 0,65,66
 246 13 246 13 255 15 c 0,67,68
 265 19 265 19 270.5 21.5 c 128,-1,69
 276 24 276 24 282 33.5 c 128,-1,70
 288 43 288 43 288 58 c 0,71,72
 292 145 292 145 288 268 c 1,73,74
 267 308 267 308 202.5 397.5 c 128,-1,75
 138 487 138 487 97 534 c 0,76,77
 74 560 74 560 58 568 c 128,-1,78
 42 576 42 576 19 576 c 0,79,80
 11 576 11 576 11 584 c 0,81,82
 11 594 11 594 18 594 c 0,0,1
EndSplineSet
EndChar

StartChar: Z
Encoding: 90 90 89
Width: 594
Flags: W
LayerCount: 2
Fore
SplineSet
54 593 m 0,0,1
 54 600 54 600 60 599 c 0,2,3
 65 599 65 599 66 596 c 0,4,5
 70 587 70 587 74 586 c 0,6,7
 90 576 90 576 111 575 c 0,8,9
 183 572 183 572 546 572 c 0,10,11
 550 572 550 572 555.5 573.5 c 128,-1,12
 561 575 561 575 562 575 c 0,13,14
 568 575 568 575 568 568 c 0,15,16
 568 566 568 566 566.5 564 c 128,-1,17
 565 562 565 562 564 560 c 2,18,-1
 561 558 l 1,19,-1
 446 412 l 1,20,-1
 372 320 l 1,21,-1
 544 320 l 1,22,-1
 529 282 l 1,23,-1
 342 282 l 1,24,-1
 278 203 l 1,25,-1
 133 30 l 1,26,27
 255 21 255 21 356 26 c 0,28,29
 448 31 448 31 500 51.5 c 128,-1,30
 552 72 552 72 577 115 c 0,31,32
 580 121 580 121 585 118 c 0,33,34
 594 113 594 113 591 107 c 0,35,36
 580 88 580 88 560 48 c 0,37,38
 554 36 554 36 545.5 14.5 c 128,-1,39
 537 -7 537 -7 534 -12 c 0,40,41
 532 -19 532 -19 528 -19 c 0,42,43
 522 -19 522 -19 518 -6 c 1,44,45
 435 0 435 0 28 0 c 0,46,47
 23 0 23 0 22.5 4 c 128,-1,48
 22 8 22 8 25 10 c 0,49,50
 130 121 130 121 255 274 c 1,51,-1
 262 282 l 1,52,-1
 98 282 l 1,53,-1
 112 320 l 1,54,-1
 293 320 l 1,55,56
 392 444 392 444 460 542 c 1,57,58
 406 547 406 547 306 548 c 128,-1,59
 206 549 206 549 180 546 c 0,60,61
 116 541 116 541 89 528.5 c 128,-1,62
 62 516 62 516 32 470 c 0,63,64
 27 463 27 463 24 467 c 0,65,66
 16 475 16 475 18 479 c 0,67,68
 52 560 52 560 54 593 c 0,0,1
EndSplineSet
EndChar

StartChar: bracketleft
Encoding: 91 91 90
Width: 248
Flags: W
LayerCount: 2
Fore
SplineSet
231 -124 m 2,0,-1
 108 -124 l 2,1,2
 99 -124 99 -124 99 -114 c 2,3,-1
 99 523 l 2,4,5
 99 531 99 531 106 530 c 2,6,-1
 231 530 l 2,7,8
 236 530 236 530 235.5 516 c 128,-1,9
 235 502 235 502 231 502 c 2,10,-1
 154 502 l 2,11,12
 146 502 146 502 147 495 c 2,13,-1
 147 -85 l 2,14,15
 147 -95 147 -95 153 -95 c 2,16,-1
 231 -95 l 2,17,18
 236 -95 236 -95 236 -109.5 c 128,-1,19
 236 -124 236 -124 231 -124 c 2,0,-1
EndSplineSet
Substitution2: "'rtla' Right to Left Alternates lookup 0 subtable" bracketright
EndChar

StartChar: backslash
Encoding: 92 92 91
Width: 245
Flags: W
LayerCount: 2
Fore
SplineSet
246 9 m 1,0,-1
 246 8 l 2,1,2
 244 4 244 4 237 0 c 0,3,4
 223 -7 223 -7 216 -8 c 0,5,6
 211 -8 211 -8 212 -3 c 2,7,-1
 2 495 l 1,8,-1
 0 496 l 1,9,10
 0 503 0 503 12 510 c 0,11,12
 25 515 25 515 31 512 c 0,13,14
 36 512 36 512 38 510 c 2,15,-1
 246 9 l 1,0,-1
EndSplineSet
EndChar

StartChar: bracketright
Encoding: 93 93 92
Width: 253
Flags: W
LayerCount: 2
Fore
SplineSet
158 -114 m 2,0,1
 158 -123 158 -123 148 -124 c 2,2,-1
 18 -124 l 2,3,4
 10 -124 10 -124 10 -109.5 c 128,-1,5
 10 -95 10 -95 16 -95 c 2,6,-1
 104 -95 l 2,7,8
 108 -95 108 -95 109 -87 c 2,9,-1
 109 495 l 2,10,11
 109 499 109 499 107.5 501 c 128,-1,12
 106 503 106 503 103 502 c 2,13,-1
 26 502 l 2,14,15
 17 502 17 502 17 516 c 128,-1,16
 17 530 17 530 25 530 c 2,17,-1
 150 530 l 2,18,19
 158 530 158 530 158 523 c 2,20,-1
 158 -114 l 2,0,1
EndSplineSet
Substitution2: "'rtla' Right to Left Alternates lookup 0 subtable" bracketleft
EndChar

StartChar: asciicircum
Encoding: 94 94 93
Width: 378
Flags: W
LayerCount: 2
Fore
SplineSet
74 371 m 1,0,-1
 90 405 l 2,1,2
 99 424 99 424 106 436 c 2,3,-1
 126 470 l 1,4,-1
 145 502 l 2,5,6
 154 517 154 517 158 522.5 c 128,-1,7
 162 528 162 528 172 534 c 128,-1,8
 182 540 182 540 196 538 c 0,9,10
 204 537 204 537 209.5 532 c 128,-1,11
 215 527 215 527 218 523 c 128,-1,12
 221 519 221 519 225 510 c 128,-1,13
 229 501 229 501 231 498 c 2,14,-1
 254 460 l 1,15,-1
 281 410 l 2,16,17
 292 390 292 390 301 371 c 1,18,19
 279 372 279 372 259 388.5 c 128,-1,20
 239 405 239 405 215.5 434.5 c 128,-1,21
 192 464 192 464 186 471 c 1,22,23
 169 440 169 440 135.5 406 c 128,-1,24
 102 372 102 372 74 371 c 1,0,-1
EndSplineSet
EndChar

StartChar: underscore
Encoding: 95 95 94
Width: 351
Flags: W
LayerCount: 2
Fore
SplineSet
356 -89 m 1,0,-1
 0 -89 l 1,1,-1
 0 -53 l 1,2,-1
 356 -53 l 1,3,-1
 356 -89 l 1,0,-1
EndSplineSet
EndChar

StartChar: grave
Encoding: 96 96 95
Width: 192
Flags: W
LayerCount: 2
Fore
SplineSet
159 374 m 2,0,1
 161 370 161 370 161 367 c 0,2,3
 161 354 161 354 148 354 c 0,4,5
 138 354 138 354 134 364 c 2,6,-1
 77 457 l 2,7,8
 75 459 75 459 75 462 c 0,9,10
 75 471 75 471 89 478 c 0,11,12
 98 481 98 481 104 481 c 0,13,14
 113 481 113 481 114 475 c 2,15,-1
 159 374 l 2,0,1
EndSplineSet
EndChar

StartChar: a
Encoding: 97 97 96
Width: 344
Flags: W
LayerCount: 2
Fore
SplineSet
230 316 m 0,0,1
 241 306 241 306 251 290 c 0,2,3
 261 271 261 271 263 246 c 0,4,5
 265 208 265 208 264 189 c 0,6,7
 264 177 264 177 261.5 144.5 c 128,-1,8
 259 112 259 112 259 95 c 0,9,10
 259 69 259 69 260 56 c 0,11,12
 260 48 260 48 263 40 c 0,13,14
 265 32 265 32 272 26 c 0,15,16
 279 19 279 19 285 18 c 2,17,-1
 291 18 l 2,18,19
 292 18 292 18 298 21 c 2,20,-1
 318 27 l 1,21,-1
 320 27 l 2,22,23
 322 27 322 27 323 26 c 2,24,-1
 325 25 l 1,25,-1
 325 24 l 2,26,27
 326 23 326 23 326 22 c 2,28,-1
 326 18 l 1,29,-1
 326 15 l 1,30,-1
 324 13 l 2,31,32
 322 11 322 11 321 11 c 2,33,-1
 253 -13 l 2,34,35
 249 -15 249 -15 248 -15 c 2,36,-1
 244 -15 l 2,37,38
 243 -15 243 -15 241 -13 c 0,39,40
 235 -10 235 -10 231 -6 c 0,41,42
 222 3 222 3 219 8 c 0,43,44
 214 16 214 16 211 32 c 1,45,46
 178 12 178 12 168 8 c 0,47,48
 145 -3 145 -3 120.5 -9 c 128,-1,49
 96 -15 96 -15 75 -14 c 0,50,51
 66 -14 66 -14 60 -11 c 0,52,53
 51 -7 51 -7 46 -4 c 0,54,55
 40 2 40 2 38 9 c 0,56,57
 36 14 36 14 34 23 c 0,58,59
 31 38 31 38 31 55 c 0,60,61
 31 71 31 71 36 90 c 0,62,63
 38 96 38 96 41 102 c 0,64,65
 43 105 43 105 45 107 c 0,66,67
 46 108 46 108 47.5 109 c 128,-1,68
 49 110 49 110 50 111 c 0,69,70
 79 127 79 127 115 137 c 0,71,72
 146 146 146 146 188 152 c 2,73,-1
 210 155 l 1,74,-1
 212 207 l 2,75,76
 214 233 214 233 212 246 c 0,77,78
 209 267 209 267 197 282 c 0,79,80
 190 290 190 290 177 299 c 0,81,82
 158 312 158 312 147 314 c 0,83,84
 133 316 133 316 119 311 c 0,85,86
 108 306 108 306 100 298 c 0,87,88
 94 291 94 291 95 281 c 0,89,90
 95 271 95 271 96 265 c 1,91,-1
 49 244 l 1,92,-1
 47 252 l 2,93,94
 45 263 45 263 45 268 c 0,95,96
 45 276 45 276 50 284 c 0,97,98
 55 293 55 293 71 302 c 0,99,100
 92 315 92 315 112.5 323.5 c 128,-1,101
 133 332 133 332 163 338 c 2,102,-1
 182 341 l 2,103,104
 188 341 188 341 201 335 c 0,105,106
 220 325 220 325 230 316 c 0,0,1
96 19 m 0,107,108
 105 12 105 12 120 12 c 0,109,110
 132 12 132 12 146 15 c 0,111,112
 159 19 159 19 176 26 c 0,113,114
 197 35 197 35 209 47 c 1,115,116
 207 77 207 77 207 92 c 0,117,118
 207 119 207 119 208 132 c 1,119,120
 200 134 200 134 198 134 c 0,121,122
 188 135 188 135 164 133 c 0,123,124
 134 128 134 128 130 127 c 0,125,126
 108 120 108 120 95 108 c 0,127,128
 86 99 86 99 81 79 c 0,129,130
 77 64 77 64 80 47 c 0,131,132
 81 39 81 39 86 32 c 0,133,134
 92 21 92 21 96 19 c 0,107,108
EndSplineSet
EndChar

StartChar: b
Encoding: 98 98 97
Width: 425
Flags: W
LayerCount: 2
Fore
SplineSet
156 312 m 0,0,1
 215 339 215 339 257 337 c 0,2,3
 289 335 289 335 318 320 c 0,4,5
 344 305 344 305 365 279 c 0,6,7
 385 255 385 255 394 227 c 0,8,9
 412 172 412 172 388 114 c 0,10,11
 369 71 369 71 330 42 c 0,12,13
 270 -4 270 -4 199 -9 c 0,14,15
 173 -11 173 -11 148 -4 c 0,16,17
 106 8 106 8 98 9 c 0,18,19
 78 9 78 9 64 -3 c 0,20,21
 62 -5 62 -5 61 -5 c 128,-1,22
 60 -5 60 -5 60 -6 c 1,23,24
 59 -6 59 -6 59 -5.5 c 128,-1,25
 59 -5 59 -5 58 -5 c 2,26,-1
 57 -4 l 2,27,28
 56 -4 56 -4 56 -3 c 2,29,-1
 56 -1 l 1,30,-1
 56 1 l 2,31,32
 56 2 56 2 58 7.5 c 128,-1,33
 60 13 60 13 61 17 c 0,34,35
 69 48 69 48 69 91 c 0,36,37
 69 103 69 103 69.5 127.5 c 128,-1,38
 70 152 70 152 70 164 c 2,39,-1
 72 286 l 2,40,41
 74 439 74 439 66 531 c 0,42,43
 66 533 66 533 65.5 536 c 128,-1,44
 65 539 65 539 65 540 c 0,45,46
 65 544 65 544 63 549 c 0,47,48
 62 554 62 554 58 555 c 0,49,50
 56 557 56 557 54 557 c 2,51,-1
 49 557 l 1,52,-1
 25 556 l 1,53,-1
 21 556 l 2,54,55
 19 556 19 556 19 557 c 128,-1,56
 19 558 19 558 18.5 558 c 128,-1,57
 18 558 18 558 18 559 c 2,58,-1
 18 561 l 1,59,-1
 19 562 l 2,60,61
 21 564 21 564 23 564 c 0,62,63
 44 572 44 572 73 588 c 0,64,65
 100 602 100 602 125 620 c 1,66,-1
 135 619 l 1,67,68
 129 592 129 592 127 566 c 0,69,70
 124 534 124 534 122 470 c 0,71,72
 120 425 120 425 120 401 c 0,73,74
 119 369 119 369 119 304 c 2,75,-1
 119 301 l 2,76,77
 119 298 119 298 120 297 c 2,78,-1
 121 296 l 1,79,-1
 122 295 l 1,80,-1
 123 295 l 2,81,82
 123 296 123 296 124 296 c 2,83,-1
 126 296 l 1,84,85
 142 305 142 305 156 312 c 0,0,1
272 293 m 0,86,87
 237 313 237 313 194 308 c 0,88,89
 160 304 160 304 128 285 c 1,90,-1
 124 284 l 2,91,92
 123 284 123 284 123 283 c 2,93,-1
 121 282 l 2,94,95
 119 280 119 280 119 278 c 2,96,-1
 119 276 l 1,97,-1
 118 274 l 1,98,-1
 115 77 l 1,99,-1
 115 69 l 2,100,101
 115 66 115 66 117 62 c 0,102,103
 120 56 120 56 127 51 c 0,104,105
 168 19 168 19 215 15 c 0,106,107
 261 10 261 10 298 37 c 0,108,109
 320 53 320 53 332 77 c 0,110,111
 343 98 343 98 346 127 c 0,112,113
 351 181 351 181 327 230 c 0,114,115
 306 273 306 273 272 293 c 0,86,87
EndSplineSet
EndChar

StartChar: c
Encoding: 99 99 98
Width: 341
Flags: W
LayerCount: 2
Fore
SplineSet
26 164 m 0,0,1
 31 217 31 217 58 259 c 0,2,3
 86 302 86 302 130 327 c 0,4,5
 155 342 155 342 186 348 c 0,6,7
 215 354 215 354 245 348 c 0,8,9
 259 345 259 345 287 334 c 0,10,11
 302 328 302 328 309 324 c 0,12,13
 310 323 310 323 311 323 c 128,-1,14
 312 323 312 323 313 322 c 128,-1,15
 314 321 314 321 315 320.5 c 128,-1,16
 316 320 316 320 316 319 c 0,17,18
 317 318 317 318 317 314 c 0,19,20
 317 312 317 312 315 310 c 2,21,-1
 303 292 l 2,22,23
 301 289 301 289 298 285 c 0,24,25
 293 279 293 279 291 280 c 0,26,27
 288 279 288 279 283 279 c 2,28,-1
 274 282 l 1,29,-1
 239 296 l 2,30,31
 194 313 194 313 168 312 c 0,32,33
 150 312 150 312 132 304 c 0,34,35
 116 297 116 297 104 283 c 0,36,37
 89 264 89 264 83 244 c 0,38,39
 67 188 67 188 85 131 c 0,40,41
 105 71 105 71 157 43 c 0,42,43
 217 12 217 12 280 38 c 0,44,45
 292 43 292 43 302 49 c 2,46,-1
 304 51 l 1,47,-1
 307 51 l 1,48,-1
 308 51 l 1,49,-1
 310 50 l 1,50,-1
 312 48 l 2,51,52
 313 47 313 47 313 46 c 2,53,-1
 313 43 l 2,54,55
 313 41 313 41 312 41 c 2,56,-1
 310 39 l 2,57,58
 303 34 303 34 290 26 c 0,59,60
 256 5 256 5 229 0 c 0,61,62
 170 -14 170 -14 110 12 c 0,63,64
 82 24 82 24 62 44 c 0,65,66
 39 69 39 69 30 106 c 0,67,68
 23 136 23 136 26 164 c 0,0,1
EndSplineSet
EndChar

StartChar: d
Encoding: 100 100 99
Width: 440
Flags: W
LayerCount: 2
Fore
SplineSet
89 283 m 0,0,1
 119 308 119 308 157 323 c 0,2,3
 193 339 193 339 229 338 c 0,4,5
 241 337 241 337 261 334 c 0,6,7
 267 333 267 333 278 330 c 2,8,-1
 296 325 l 2,9,10
 297 325 297 325 298.5 324.5 c 128,-1,11
 300 324 300 324 301 324 c 0,12,13
 304 324 304 324 305.5 326 c 128,-1,14
 307 328 307 328 307 330 c 0,15,16
 307 331 307 331 307.5 332.5 c 128,-1,17
 308 334 308 334 308 335 c 0,18,19
 311 403 311 403 310 457 c 0,20,21
 308 508 308 508 306 533 c 0,22,23
 306 542 306 542 305 545 c 0,24,25
 304 551 304 551 302 556 c 0,26,27
 299 562 299 562 292 563 c 2,28,-1
 286 563 l 2,29,30
 282 563 282 563 281 562 c 2,31,-1
 269 560 l 2,32,33
 261 558 261 558 258.5 558 c 128,-1,34
 256 558 256 558 254 559 c 0,35,36
 251 560 251 560 250.5 562.5 c 128,-1,37
 250 565 250 565 250.5 567 c 128,-1,38
 251 569 251 569 254 572 c 0,39,40
 256 573 256 573 264 576 c 0,41,42
 278 582 278 582 306 595 c 0,43,44
 336 610 336 610 362 626 c 0,45,46
 363 627 363 627 365 627 c 2,47,-1
 367 627 l 1,48,-1
 368 626 l 1,49,-1
 370 626 l 2,50,51
 371 626 371 626 372 625 c 0,52,53
 375 622 375 622 375 620 c 2,54,-1
 376 619 l 1,55,-1
 376 617 l 1,56,-1
 376 616 l 1,57,-1
 375 614 l 1,58,59
 365 538 365 538 362 474 c 0,60,61
 360 429 360 429 358.5 376.5 c 128,-1,62
 357 324 357 324 355.5 261 c 128,-1,63
 354 198 354 198 354 164 c 0,64,65
 352 119 352 119 354 81 c 0,66,67
 355 62 355 62 361 25 c 0,68,69
 361 24 361 24 361.5 22 c 128,-1,70
 362 20 362 20 362 19 c 0,71,72
 362 17 362 17 364 13 c 0,73,74
 365 10 365 10 369 10 c 2,75,-1
 371 10 l 1,76,-1
 373 10 l 1,77,-1
 412 22 l 1,78,-1
 416 22 l 1,79,-1
 419 22 l 2,80,81
 421 22 421 22 422 21 c 0,82,83
 424 19 424 19 424 18 c 2,84,-1
 424 14 l 2,85,86
 424 12 424 12 423 11 c 0,87,88
 422 11 422 11 422 10 c 2,89,-1
 420 9 l 2,90,91
 419 8 419 8 416 9 c 2,92,-1
 320 -24 l 2,93,94
 318 -25 318 -25 315 -25 c 128,-1,95
 312 -25 312 -25 310 -23 c 128,-1,96
 308 -21 308 -21 307 -19 c 128,-1,97
 306 -17 306 -17 306 -13 c 2,98,-1
 303 11 l 2,99,100
 301 36 301 36 302 47 c 1,101,-1
 275 33 l 2,102,103
 231 10 231 10 196 3 c 0,104,105
 151 -6 151 -6 112 9 c 0,106,107
 69 26 69 26 45 69 c 0,108,109
 14 124 14 124 29 190 c 0,110,111
 42 245 42 245 89 283 c 0,0,1
163 307 m 0,112,113
 141 300 141 300 125 290 c 0,114,115
 92 269 92 269 78 241 c 0,116,117
 66 215 66 215 69 182 c 0,118,119
 70 156 70 156 81 126 c 0,120,121
 91 97 91 97 112 76 c 0,122,123
 149 36 149 36 199 33 c 0,124,125
 236 31 236 31 268 45 c 0,126,127
 284 52 284 52 302 64 c 1,128,129
 300 90 300 90 302 116 c 0,130,131
 304 175 304 175 304 205 c 2,132,-1
 304 260 l 1,133,-1
 304 269 l 2,134,135
 304 275 304 275 303 278 c 0,136,137
 302 282 302 282 299 285 c 0,138,139
 297 287 297 287 290 289 c 2,140,-1
 256 299 l 2,141,142
 218 308 218 308 210 309 c 0,143,144
 183 312 183 312 163 307 c 0,112,113
EndSplineSet
EndChar

StartChar: e
Encoding: 101 101 100
Width: 338
Flags: W
LayerCount: 2
Fore
SplineSet
48 247 m 0,0,1
 74 294 74 294 126 319 c 0,2,3
 158 334 158 334 191 331 c 0,4,5
 232 327 232 327 266 296 c 0,6,7
 284 280 284 280 297 257 c 0,8,9
 301 251 301 251 302 251 c 2,10,-1
 308 245 l 2,11,12
 309 244 309 244 310.5 243 c 128,-1,13
 312 242 312 242 313 242 c 0,14,15
 316 241 316 241 317 238 c 2,16,-1
 317 235 l 2,17,18
 317 233 317 233 316 233 c 2,19,-1
 314 231 l 1,20,-1
 311 231 l 1,21,-1
 250 218 l 1,22,-1
 78 184 l 1,23,24
 75 145 75 145 87 111 c 0,25,26
 96 87 96 87 112 66 c 0,27,28
 127 47 127 47 151 35 c 0,29,30
 178 22 178 22 210 24 c 0,31,32
 234 25 234 25 268 39 c 0,33,34
 293 50 293 50 304 58 c 1,35,-1
 310 50 l 1,36,37
 286 32 286 32 258 17 c 0,38,39
 220 -3 220 -3 176 -6 c 0,40,41
 131 -9 131 -9 94 14 c 0,42,43
 57 38 57 38 39 82 c 0,44,45
 24 119 24 119 26 168 c 0,46,47
 29 214 29 214 48 247 c 0,0,1
211 294 m 0,48,49
 182 315 182 315 153 314 c 0,50,51
 131 314 131 314 114 299 c 0,52,53
 99 286 99 286 93 268 c 0,54,55
 88 256 88 256 83 235 c 0,56,57
 80 223 80 223 78 198 c 1,58,-1
 222 229 l 2,59,60
 224 229 224 229 227 230 c 128,-1,61
 230 231 230 231 232 231 c 2,62,-1
 241 234 l 2,63,64
 244 235 244 235 245 238 c 0,65,66
 247 242 247 242 247 243 c 2,67,-1
 247 248 l 2,68,69
 247 249 247 249 245 252 c 0,70,71
 233 278 233 278 211 294 c 0,48,49
EndSplineSet
EndChar

StartChar: f
Encoding: 102 102 101
Width: 282
Flags: W
LayerCount: 2
Fore
SplineSet
93 455 m 0,0,1
 100 494 100 494 116 522 c 0,2,3
 134 550 134 550 180 583 c 0,4,5
 224 615 224 615 253 622 c 0,6,7
 279 628 279 628 308 623 c 0,8,9
 334 618 334 618 352 610 c 0,10,11
 356 609 356 609 358 606 c 0,12,13
 362 602 362 602 363 599 c 0,14,15
 365 593 365 593 364 591 c 2,16,-1
 360 583 l 1,17,-1
 354 574 l 2,18,19
 353 572 353 572 349.5 568 c 128,-1,20
 346 564 346 564 343 563 c 2,21,-1
 336 563 l 2,22,23
 334 563 334 563 328 565 c 0,24,25
 309 572 309 572 271 583 c 0,26,27
 259 587 259 587 244 589 c 0,28,29
 228 591 228 591 216 588 c 0,30,31
 200 584 200 584 184 569 c 0,32,33
 172 557 172 557 164 539 c 0,34,35
 151 510 151 510 144 446 c 0,36,37
 138 399 138 399 138 352 c 2,38,-1
 138 333 l 1,39,-1
 256 333 l 1,40,-1
 260 333 l 2,41,42
 261 333 261 333 263 331 c 128,-1,43
 265 329 265 329 265 328 c 128,-1,44
 265 327 265 327 265.5 326 c 128,-1,45
 266 325 266 325 266 324 c 2,46,-1
 266 315 l 2,47,48
 266 314 266 314 265 312 c 2,49,-1
 263 310 l 2,50,51
 262 309 262 309 260 309 c 2,52,-1
 257 309 l 1,53,-1
 139 311 l 1,54,55
 139 233 139 233 138 195 c 0,56,57
 136 113 136 113 143 47 c 0,58,59
 144 44 144 44 144 38.5 c 128,-1,60
 144 33 144 33 145 30 c 0,61,62
 145 26 145 26 146 25 c 2,63,-1
 148 20 l 2,64,65
 149 19 149 19 153 17 c 0,66,67
 155 16 155 16 159 16 c 128,-1,68
 163 16 163 16 169.5 15.5 c 128,-1,69
 176 15 176 15 179 15 c 0,70,71
 184 15 184 15 192 14 c 128,-1,72
 200 13 200 13 205 13 c 0,73,74
 208 13 208 13 214 11 c 2,75,-1
 216 9 l 2,76,77
 217 8 217 8 217 5 c 128,-1,78
 217 2 217 2 216 1 c 2,79,-1
 214 -2 l 2,80,81
 213 -3 213 -3 210 -3 c 2,82,-1
 205 -3 l 2,83,84
 161 0 161 0 116 0 c 0,85,86
 68 0 68 0 30 -4 c 1,87,-1
 27 -4 l 2,88,89
 25 -4 25 -4 25 -3 c 0,90,91
 23 -1 23 -1 23 0 c 2,92,-1
 23 3 l 1,93,-1
 23 6 l 2,94,95
 23 8 23 8 24 9 c 2,96,-1
 26 11 l 1,97,-1
 29 11 l 1,98,-1
 43 13 l 2,99,100
 53 15 53 15 62 19 c 0,101,102
 71 24 71 24 77 33 c 0,103,104
 80 39 80 39 81 52 c 0,105,106
 82 59 82 59 82 72 c 128,-1,107
 82 85 82 85 82.5 111.5 c 128,-1,108
 83 138 83 138 83 151 c 2,109,-1
 83 305 l 1,110,111
 68 310 68 310 45 310 c 2,112,-1
 25 310 l 1,113,-1
 25 331 l 1,114,-1
 84 331 l 1,115,-1
 85 366 l 2,116,117
 87 418 87 418 93 455 c 0,0,1
EndSplineSet
EndChar

StartChar: g
Encoding: 103 103 102
Width: 403
Flags: W
LayerCount: 2
Fore
SplineSet
41 175 m 0,0,1
 37 214 37 214 55 251 c 128,-1,2
 73 288 73 288 104 313 c 0,3,4
 128 333 128 333 159 341 c 0,5,6
 218 358 218 358 268 327 c 0,7,8
 273 323 273 323 281 320 c 0,9,10
 283 319 283 319 287.5 319.5 c 128,-1,11
 292 320 292 320 294 320 c 0,12,13
 306 323 306 323 333 325 c 0,14,15
 351 326 351 326 372 323 c 0,16,17
 376 323 376 323 377 322 c 128,-1,18
 378 321 378 321 379 320.5 c 128,-1,19
 380 320 380 320 381 320 c 0,20,21
 382 319 382 319 382 315 c 2,22,-1
 382 311 l 2,23,24
 382 302 382 302 379 296 c 0,25,26
 376 288 376 288 372 284 c 2,27,-1
 371 282 l 2,28,29
 370 281 370 281 369 281 c 2,30,-1
 366 281 l 2,31,32
 365 281 365 281 363 282 c 0,33,34
 348 286 348 286 340 286 c 0,35,36
 321 289 321 289 305 289 c 1,37,38
 318 259 318 259 324 230 c 0,39,40
 329 205 329 205 326 184 c 0,41,42
 323 160 323 160 312 139 c 0,43,44
 303 122 303 122 281 103 c 0,45,46
 257 83 257 83 199 57 c 2,47,-1
 170 44 l 2,48,49
 156 38 156 38 147 32 c 0,50,51
 126 19 126 19 123 17 c 0,52,53
 122 16 122 16 120 14.5 c 128,-1,54
 118 13 118 13 117 12 c 128,-1,55
 116 11 116 11 114 6 c 0,56,57
 113 2 113 2 114 -2 c 128,-1,58
 115 -6 115 -6 119 -9 c 0,59,60
 125 -15 125 -15 132 -18 c 0,61,62
 158 -29 158 -29 216 -27 c 0,63,64
 276 -25 276 -25 301 -32 c 0,65,66
 328 -41 328 -41 344 -55 c 0,67,68
 364 -74 364 -74 370 -96 c 0,69,70
 377 -123 377 -123 364 -154 c 0,71,72
 354 -179 354 -179 329 -200 c 0,73,74
 280 -243 280 -243 205 -262 c 0,75,76
 166 -271 166 -271 136 -270 c 0,77,78
 98 -268 98 -268 70 -252 c 0,79,80
 45 -238 45 -238 34 -218 c 0,81,82
 21 -195 21 -195 22 -171 c 0,83,84
 24 -145 24 -145 36 -124 c 0,85,86
 45 -108 45 -108 69 -86 c 0,87,88
 79 -77 79 -77 104 -61 c 1,89,-1
 83 -43 l 2,90,91
 74 -34 74 -34 66 -21 c 0,92,93
 60 -10 60 -10 59 -4 c 0,94,95
 59 -3 59 -3 58.5 -1.5 c 128,-1,96
 58 0 58 0 58 1 c 128,-1,97
 58 2 58 2 58.5 3.5 c 128,-1,98
 59 5 59 5 59 6 c 0,99,100
 58 8 58 8 60 9 c 0,101,102
 61 10 61 10 65 12 c 0,103,104
 88 25 88 25 92 26 c 2,105,-1
 125 41 l 1,106,-1
 150 53 l 1,107,108
 140 56 140 56 121 65 c 0,109,110
 88 81 88 81 67 110 c 128,-1,111
 46 139 46 139 41 175 c 0,0,1
124 310 m 0,112,113
 105 297 105 297 92 271 c 0,114,115
 81 248 81 248 80 222 c 0,116,117
 80 171 80 171 117 130 c 0,118,119
 153 89 153 89 204 78 c 1,120,121
 223 84 223 84 238 95 c 0,122,123
 264 115 264 115 273 147 c 0,124,125
 279 172 279 172 276 196 c 0,126,127
 273 224 273 224 263 252 c 0,128,129
 252 284 252 284 233 302 c 0,130,131
 209 325 209 325 180 325 c 0,132,133
 148 327 148 327 124 310 c 0,112,113
91 -88 m 0,134,135
 74 -100 74 -100 63 -114 c 0,136,137
 51 -130 51 -130 50 -150 c 0,138,139
 49 -173 49 -173 64 -193 c 0,140,141
 75 -208 75 -208 102 -220 c 0,142,143
 145 -240 145 -240 194 -235 c 0,144,145
 248 -230 248 -230 293 -204 c 0,146,147
 308 -195 308 -195 320 -182 c 0,148,149
 330 -171 330 -171 333 -152 c 0,150,151
 335 -138 335 -138 330 -117 c 0,152,153
 324 -100 324 -100 317.5 -91.5 c 128,-1,154
 311 -83 311 -83 298 -78 c 0,155,156
 290 -75 290 -75 275 -74 c 0,157,158
 251 -73 251 -73 228 -74 c 0,159,160
 188 -76 188 -76 161 -72 c 0,161,162
 149 -71 149 -71 130 -67 c 1,163,164
 108 -77 108 -77 91 -88 c 0,134,135
EndSplineSet
EndChar

StartChar: h
Encoding: 104 104 103
Width: 455
Flags: W
LayerCount: 2
Fore
SplineSet
173 308 m 0,0,1
 210 325 210 325 242 333 c 0,2,3
 284 343 284 343 311 334 c 0,4,5
 328 328 328 328 340 316 c 0,6,7
 354 302 354 302 361 287 c 0,8,9
 370 267 370 267 373 241 c 0,10,11
 373 240 373 240 376 194 c 0,12,13
 377 165 377 165 377 107 c 0,14,15
 377 86 377 86 375 46 c 0,16,17
 375 39 375 39 376 37 c 2,18,-1
 377 34 l 2,19,20
 378 30 378 30 379 28 c 0,21,22
 382 24 382 24 387 23 c 0,23,24
 393 21 393 21 396 21 c 2,25,-1
 430 15 l 1,26,-1
 433 15 l 1,27,-1
 436 12 l 2,28,29
 438 10 438 10 438 9 c 2,30,-1
 438 6 l 2,31,32
 438 4 438 4 437 3 c 0,33,34
 437 2 437 2 436 2 c 2,35,-1
 435 0 l 2,36,37
 433 -2 433 -2 431 -2 c 2,38,-1
 428 -2 l 2,39,40
 385 0 385 0 362 0 c 0,41,42
 323 0 323 0 284 -3 c 2,43,-1
 282 -3 l 2,44,45
 280 -3 280 -3 279 -2 c 128,-1,46
 278 -1 278 -1 278 1 c 2,47,-1
 278 3 l 1,48,-1
 278 5 l 1,49,-1
 278 6 l 1,50,-1
 279 8 l 2,51,52
 279 9 279 9 281 9 c 2,53,-1
 282 9 l 1,54,-1
 283 9 l 1,55,-1
 300 14 l 2,56,57
 306 16 306 16 307.5 17 c 128,-1,58
 309 18 309 18 313 22 c 0,59,60
 314 23 314 23 316 28.5 c 128,-1,61
 318 34 318 34 318 36 c 0,62,63
 327 92 327 92 323 148 c 0,64,65
 321 200 321 200 319 226 c 0,66,67
 318 244 318 244 310 261 c 0,68,69
 302 279 302 279 287 288 c 0,70,71
 275 296 275 296 262 299 c 0,72,73
 257 300 257 300 234 300 c 0,74,75
 202 298 202 298 180 292 c 0,76,77
 153 285 153 285 133 274 c 1,78,79
 129 174 129 174 130 125 c 2,80,-1
 130 59 l 1,81,-1
 130 52 l 1,82,-1
 130 45 l 2,83,84
 130 37 130 37 133 32 c 0,85,86
 136 25 136 25 143 23 c 0,87,88
 150 19 150 19 156 18 c 2,89,-1
 184 13 l 2,90,91
 186 13 186 13 190 11 c 2,92,-1
 192 9 l 1,93,-1
 192 7 l 2,94,95
 192 5 192 5 191 4 c 2,96,-1
 189 2 l 1,97,-1
 188 2 l 2,98,99
 187 1 187 1 186 1 c 2,100,-1
 183 1 l 2,101,102
 158 2 158 2 109 2 c 0,103,104
 83 2 83 2 31 0 c 2,105,-1
 28 0 l 2,106,107
 27 0 27 0 27 2 c 2,108,-1
 26 3 l 1,109,-1
 26 4 l 1,110,-1
 26 6 l 1,111,-1
 26 9 l 2,112,113
 26 10 26 10 26.5 9.5 c 128,-1,114
 27 9 27 9 27 10 c 128,-1,115
 27 11 27 11 29 11 c 0,116,117
 30 11 30 11 30 11.5 c 128,-1,118
 30 12 30 12 31 12 c 2,119,-1
 47 17 l 2,120,121
 51 18 51 18 59 22 c 0,122,123
 65 25 65 25 67 30 c 0,124,125
 71 38 71 38 72 41.5 c 128,-1,126
 73 45 73 45 73 53 c 0,127,128
 77 128 77 128 80 279 c 0,129,130
 82 355 82 355 82 505 c 2,131,-1
 82 529 l 2,132,133
 82 544 82 544 78 555 c 0,134,135
 77 560 77 560 74 562 c 0,136,137
 69 567 69 567 66 568 c 128,-1,138
 63 569 63 569 58 569 c 0,139,140
 54 569 54 569 48 567 c 2,141,-1
 33 562 l 1,142,-1
 31 562 l 1,143,-1
 29 562 l 1,144,-1
 26 562 l 2,145,146
 25 562 25 562 24 563 c 128,-1,147
 23 564 23 564 23 567 c 2,148,-1
 23 570 l 1,149,-1
 26 573 l 1,150,-1
 31 576 l 1,151,-1
 74 594 l 2,152,153
 105 606 105 606 116 614 c 0,154,155
 125 619 125 619 136 629 c 0,156,157
 136 630 136 630 137 630 c 128,-1,158
 138 630 138 630 139 630.5 c 128,-1,159
 140 631 140 631 143 631 c 128,-1,160
 146 631 146 631 149 630 c 0,161,162
 151 629 151 629 153 625 c 2,163,-1
 153 621 l 1,164,-1
 153 620 l 1,165,-1
 152 618 l 2,166,167
 145 600 145 600 144 572 c 0,168,169
 138 487 138 487 136 444 c 0,170,171
 134 393 134 393 132 287 c 1,172,173
 149 298 149 298 173 308 c 0,0,1
EndSplineSet
EndChar

StartChar: i
Encoding: 105 105 104
Width: 220
Flags: W
LayerCount: 2
Fore
SplineSet
151 539 m 0,0,1
 167 532 167 532 166 531 c 0,2,3
 159 524 159 524 146 508 c 0,4,5
 127 483 127 483 125 479 c 1,6,-1
 101 509 l 1,7,-1
 82 529 l 1,8,9
 104 541 104 541 117 572 c 1,10,11
 121 571 121 571 135.5 556 c 128,-1,12
 150 541 150 541 151 539 c 0,0,1
81 317 m 0,13,14
 107 332 107 332 128 350 c 0,15,16
 129 350 129 350 129 351 c 2,17,-1
 130 352 l 2,18,19
 131 353 131 353 133 353 c 2,20,-1
 136 353 l 1,21,-1
 138 351 l 2,22,23
 141 350 141 350 141 346 c 0,24,25
 141 345 141 345 140.5 342.5 c 128,-1,26
 140 340 140 340 140 339 c 0,27,28
 136 314 136 314 132 268 c 0,29,30
 129 230 129 230 130 153 c 0,31,32
 130 108 130 108 132 62 c 0,33,34
 132 51 132 51 135 41 c 0,35,36
 138 30 138 30 145 22 c 0,37,38
 151 16 151 16 153 15 c 0,39,40
 157 14 157 14 164 14 c 2,41,-1
 190 15 l 1,42,-1
 198 15 l 2,43,44
 199 15 199 15 200 13 c 0,45,46
 203 10 203 10 203 9 c 2,47,-1
 202 8 l 1,48,-1
 202 6 l 1,49,-1
 201 5 l 2,50,51
 200 4 200 4 200 3 c 0,52,53
 198 1 198 1 197 1 c 2,54,-1
 193 1 l 2,55,56
 139 1 139 1 112 0 c 0,57,58
 83 -1 83 -1 29 -5 c 1,59,-1
 26 -5 l 1,60,-1
 25 -3 l 2,61,62
 24 -2 24 -2 24 -1 c 2,63,-1
 24 2 l 1,64,-1
 24 5 l 2,65,66
 24 6 24 6 25 7 c 2,67,-1
 26 9 l 1,68,-1
 29 9 l 1,69,-1
 57 12 l 2,70,71
 59 12 59 12 62.5 14 c 128,-1,72
 66 16 66 16 67 18 c 0,73,74
 69 22 69 22 69 24 c 0,75,76
 69 25 69 25 69.5 26.5 c 128,-1,77
 70 28 70 28 70 29 c 0,78,79
 74 75 74 75 76 123 c 0,80,81
 78 184 78 184 73 246 c 0,82,83
 73 251 73 251 71 260 c 128,-1,84
 69 269 69 269 64 273 c 0,85,86
 57 280 57 280 51 280 c 0,87,88
 43 280 43 280 37 277 c 2,89,-1
 34 276 l 1,90,-1
 33 276 l 2,91,92
 32 275 32 275 31 275 c 2,93,-1
 27 275 l 2,94,95
 25 275 25 275 26 278 c 2,96,-1
 26 281 l 1,97,-1
 26 285 l 1,98,-1
 26 288 l 1,99,-1
 27 290 l 2,100,101
 29 292 29 292 30 292 c 2,102,-1
 34 293 l 2,103,104
 54 302 54 302 81 317 c 0,13,14
EndSplineSet
EndChar

StartChar: j
Encoding: 106 106 105
Width: 226
Flags: W
LayerCount: 2
Fore
SplineSet
161 539 m 0,0,1
 177 532 177 532 176 531 c 0,2,3
 169 524 169 524 156 508 c 0,4,5
 137 483 137 483 135 479 c 1,6,-1
 111 509 l 1,7,-1
 92 529 l 1,8,9
 114 541 114 541 127 572 c 1,10,11
 131 571 131 571 145.5 556 c 128,-1,12
 160 541 160 541 161 539 c 0,0,1
106 317 m 0,13,14
 135 336 135 336 152 352 c 0,15,16
 153 353 153 353 154 353 c 128,-1,17
 155 353 155 353 157 354 c 2,18,-1
 158 354 l 2,19,20
 159 353 159 353 160 353 c 128,-1,21
 161 353 161 353 162 352 c 2,22,-1
 164 349 l 2,23,24
 166 347 166 347 166 346 c 2,25,-1
 166 343 l 2,26,27
 166 342 166 342 165.5 341 c 128,-1,28
 165 340 165 340 165 339 c 0,29,30
 156 317 156 317 156 285 c 0,31,32
 155 259 155 259 155 204 c 128,-1,33
 155 149 155 149 154 123 c 0,34,35
 152 -40 152 -40 152 -121 c 0,36,37
 152 -135 152 -135 149 -142 c 0,38,39
 148 -145 148 -145 138 -160 c 0,40,41
 120 -185 120 -185 104 -200 c 0,42,43
 95 -209 95 -209 77 -224 c 0,44,45
 51 -245 51 -245 49 -247 c 0,46,47
 39 -260 39 -260 36 -276 c 0,48,49
 36 -278 36 -278 35 -279 c 0,50,51
 33 -281 33 -281 32 -281 c 2,52,-1
 29 -281 l 2,53,54
 28 -281 28 -281 26 -280 c 0,55,56
 25 -279 25 -279 24 -279 c 2,57,-1
 22 -277 l 2,58,59
 21 -276 21 -276 21 -275 c 2,60,-1
 21 -274 l 1,61,-1
 20 -272 l 1,62,63
 21 -263 21 -263 26 -247 c 0,64,65
 32 -231 32 -231 45 -212 c 0,66,67
 49 -206 49 -206 57 -195 c 128,-1,68
 65 -184 65 -184 69 -179 c 0,69,70
 85 -155 85 -155 92 -131 c 0,71,72
 98 -110 98 -110 99 -78 c 0,73,74
 104 4 104 4 104 69 c 0,75,76
 104 130 104 130 99 208 c 0,77,78
 97 231 97 231 95 240 c 0,79,80
 93 251 93 251 92 255 c 0,81,82
 89 263 89 263 84 268 c 0,83,84
 78 274 78 274 70 275 c 0,85,86
 64 276 64 276 55 274 c 2,87,-1
 45 272 l 1,88,-1
 44 272 l 2,89,90
 43 271 43 271 42.5 271 c 128,-1,91
 42 271 42 271 41 271.5 c 128,-1,92
 40 272 40 272 39 272 c 2,93,-1
 37 274 l 2,94,95
 35 276 35 276 35 277 c 128,-1,96
 35 278 35 278 36 280 c 0,97,98
 36 281 36 281 38 283 c 2,99,-1
 43 285 l 2,100,101
 76 299 76 299 106 317 c 0,13,14
EndSplineSet
EndChar

StartChar: k
Encoding: 107 107 106
Width: 436
Flags: W
LayerCount: 2
Fore
SplineSet
79 321 m 0,0,1
 79 419 79 419 77 519 c 0,2,3
 77 531 77 531 76 537 c 0,4,5
 74 546 74 546 70 553 c 0,6,7
 64 562 64 562 56 563 c 2,8,-1
 47 563 l 2,9,10
 44 563 44 563 39 562 c 2,11,-1
 29 559 l 2,12,13
 28 559 28 559 26 558 c 2,14,-1
 24 558 l 2,15,16
 23 558 23 558 21 560 c 0,17,18
 20 561 20 561 20 562 c 2,19,-1
 20 564 l 2,20,21
 20 565 20 565 22 567 c 0,22,23
 23 568 23 568 26 570 c 2,24,-1
 46 579 l 1,25,-1
 75 593 l 2,26,27
 108 609 108 609 131 626 c 0,28,29
 133 628 133 628 136 628 c 2,30,-1
 138 628 l 2,31,32
 139 628 139 628 140 627 c 0,33,34
 143 624 143 624 143 622 c 2,35,-1
 143 617 l 1,36,37
 132 520 132 520 130 405 c 2,38,-1
 127 217 l 2,39,40
 127 213 127 213 128 212 c 2,41,-1
 130 207 l 2,42,43
 132 206 132 206 137 206 c 0,44,45
 139 206 139 206 143 208 c 0,46,47
 169 223 169 223 190 239 c 0,48,49
 209 253 209 253 233 277 c 0,50,51
 237 281 237 281 242 288 c 128,-1,52
 247 295 247 295 247 302 c 0,53,54
 247 311 247 311 241 315 c 0,55,56
 240 316 240 316 234 319 c 0,57,58
 233 320 233 320 231 320 c 2,59,-1
 228 320 l 1,60,-1
 219 322 l 1,61,-1
 218 323 l 1,62,-1
 217 323 l 2,63,64
 216 323 216 323 216 324 c 0,65,66
 214 326 214 326 214 329 c 2,67,-1
 214 330 l 2,68,69
 215 331 215 331 215 332 c 128,-1,70
 215 333 215 333 215.5 334 c 128,-1,71
 216 335 216 335 218 335 c 2,72,-1
 220 335 l 2,73,74
 267 333 267 333 291 333 c 0,75,76
 348 333 348 333 376 334 c 2,77,-1
 379 334 l 2,78,79
 381 334 381 334 381 332 c 0,80,81
 381 331 381 331 381.5 331 c 128,-1,82
 382 331 382 331 382 330 c 2,83,-1
 382 329 l 1,84,-1
 381 327 l 1,85,-1
 381 324 l 1,86,-1
 379 322 l 1,87,-1
 377 320 l 1,88,-1
 374 320 l 2,89,90
 346 317 346 317 320 306 c 0,91,92
 304 299 304 299 272 277 c 2,93,-1
 193 221 l 1,94,-1
 191 220 l 1,95,-1
 189 219 l 2,96,97
 187 217 187 217 187 216 c 2,98,-1
 187 212 l 1,99,-1
 188 210 l 2,100,101
 189 208 189 208 190 208 c 2,102,-1
 287 112 l 1,103,-1
 377 29 l 2,104,105
 383 23 383 23 387 22 c 0,106,107
 395 18 395 18 398 17 c 2,108,-1
 411 14 l 2,109,110
 412 14 412 14 413 13.5 c 128,-1,111
 414 13 414 13 415 13 c 2,112,-1
 417 11 l 1,113,-1
 419 9 l 1,114,-1
 419 6 l 2,115,116
 419 4 419 4 418 3 c 2,117,-1
 415 0 l 2,118,119
 414 -1 414 -1 412 -1 c 2,120,-1
 408 -1 l 2,121,122
 378 2 378 2 348 2 c 0,123,124
 311 3 311 3 264 0 c 2,125,-1
 261 0 l 2,126,127
 259 0 259 0 259 2 c 2,128,-1
 259 4 l 1,129,-1
 259 5 l 1,130,-1
 258 6 l 1,131,-1
 258 9 l 2,132,133
 258 10 258 10 258.5 9.5 c 128,-1,134
 259 9 259 9 259 10 c 0,135,136
 259 12 259 12 260 12 c 2,137,-1
 263 12 l 1,138,-1
 281 15 l 2,139,140
 284 15 284 15 287 17 c 0,141,142
 288 17 288 17 290 19 c 0,143,144
 291 19 291 19 291 20 c 128,-1,145
 291 21 291 21 292 22 c 128,-1,146
 293 23 293 23 293 25 c 0,147,148
 293 28 293 28 292 28 c 0,149,150
 290 32 290 32 287 35 c 2,151,-1
 226 100 l 1,152,-1
 146 181 l 2,153,154
 143 184 143 184 141 184 c 0,155,156
 137 186 137 186 135 185 c 0,157,158
 132 183 132 183 130 181 c 0,159,160
 129 179 129 179 130 175 c 0,161,162
 129 136 129 136 130 98 c 2,163,-1
 132 37 l 2,164,165
 132 32 132 32 133 30 c 2,166,-1
 135 28 l 1,167,-1
 136 26 l 2,168,169
 137 24 137 24 141 22 c 0,170,171
 142 21 142 21 144 20 c 2,172,-1
 147 19 l 1,173,-1
 159 16 l 2,174,175
 161 15 161 15 166.5 14 c 128,-1,176
 172 13 172 13 174 13 c 2,177,-1
 177 13 l 1,178,-1
 179 11 l 2,179,180
 181 9 181 9 181 7 c 2,181,-1
 181 5 l 2,182,183
 181 3 181 3 180 2 c 128,-1,184
 179 1 179 1 178 1 c 2,185,-1
 175 1 l 2,186,187
 154 2 154 2 113 2 c 0,188,189
 85 2 85 2 28 -2 c 1,190,-1
 26 -2 l 2,191,192
 25 -2 25 -2 24 -1 c 2,193,-1
 22 1 l 1,194,-1
 22 4 l 2,195,196
 22 8 22 8 23 8.5 c 128,-1,197
 24 9 24 9 25 9 c 2,198,-1
 26 9 l 1,199,-1
 27 10 l 1,200,-1
 49 16 l 2,201,202
 52 17 52 17 60 21 c 0,203,204
 66 24 66 24 69 29 c 0,205,206
 71 33 71 33 73 41 c 0,207,208
 74 45 74 45 74 52 c 0,209,210
 79 187 79 187 79 321 c 0,0,1
EndSplineSet
EndChar

StartChar: l
Encoding: 108 108 107
Width: 236
Flags: W
LayerCount: 2
Fore
SplineSet
95 596 m 2,0,1
 136 617 136 617 149 626 c 0,2,3
 150 627 150 627 153 627 c 2,4,-1
 156 627 l 2,5,6
 157 627 157 627 158 626 c 0,7,8
 160 624 160 624 160 621 c 0,9,10
 160 620 160 620 159.5 618.5 c 128,-1,11
 159 617 159 617 159 616 c 0,12,13
 149 574 149 574 148 512 c 0,14,15
 148 495 148 495 147.5 459.5 c 128,-1,16
 147 424 147 424 147 406 c 0,17,18
 145 243 145 243 147 164 c 0,19,20
 147 130 147 130 148 63 c 0,21,22
 148 52 148 52 149 46.5 c 128,-1,23
 150 41 150 41 156 31 c 0,24,25
 160 24 160 24 169 21 c 0,26,27
 178 17 178 17 185 16 c 2,28,-1
 213 11 l 1,29,-1
 216 11 l 1,30,-1
 217 9 l 2,31,32
 218 8 218 8 218 7 c 2,33,-1
 218 4 l 1,34,-1
 218 1 l 1,35,-1
 216 -1 l 1,36,-1
 215 -2 l 1,37,-1
 212 -2 l 2,38,39
 157 0 157 0 130 0 c 0,40,41
 76 0 76 0 32 -4 c 1,42,-1
 29 -4 l 2,43,44
 27 -4 27 -4 26 -3 c 2,45,-1
 25 -1 l 2,46,47
 24 0 24 0 24 2 c 0,48,49
 24 6 24 6 25 7 c 2,50,-1
 26 9 l 1,51,-1
 27 9 l 1,52,-1
 29 9 l 1,53,-1
 40 13 l 2,54,55
 57 19 57 19 68 28 c 0,56,57
 78 37 78 37 85 54 c 0,58,59
 91 70 91 70 91 85 c 2,60,-1
 91 117 l 2,61,62
 93 264 93 264 93 337 c 2,63,-1
 93 479 l 2,64,65
 93 506 93 506 89 528 c 2,66,-1
 86 540 l 2,67,68
 84 544 84 544 78 549 c 0,69,70
 74 553 74 553 68 555 c 0,71,72
 64 556 64 556 56 556 c 2,73,-1
 45 556 l 1,74,-1
 43 556 l 2,75,76
 42 556 42 556 42 556.5 c 128,-1,77
 42 557 42 557 41 557 c 0,78,79
 38 558 38 558 37 561 c 0,80,81
 36 562 36 562 36 563 c 2,82,-1
 36 567 l 2,83,84
 36 568 36 568 38 570 c 0,85,86
 39 571 39 571 41 571 c 2,87,-1
 95 596 l 2,0,1
EndSplineSet
EndChar

StartChar: m
Encoding: 109 109 108
Width: 687
Flags: W
LayerCount: 2
Fore
SplineSet
189 300 m 0,0,1
 217 314 217 314 236 320 c 0,2,3
 274 332 274 332 297 330 c 0,4,5
 323 327 323 327 341 311 c 0,6,7
 358 296 358 296 365 277 c 1,8,9
 408 301 408 301 451 313 c 0,10,11
 484 322 484 322 513 322 c 0,12,13
 532 322 532 322 549 316.5 c 128,-1,14
 566 311 566 311 579 296 c 0,15,16
 593 279 593 279 597 253 c 0,17,18
 602 228 602 228 602 195 c 0,19,20
 602 152 602 152 601 131 c 0,21,22
 599 98 599 98 601 66 c 2,23,-1
 604 32 l 2,24,25
 604 28 604 28 605 26 c 0,26,27
 607 22 607 22 608 22 c 2,28,-1
 613 19 l 2,29,30
 615 18 615 18 618 18 c 2,31,-1
 662 15 l 1,32,-1
 666 15 l 2,33,34
 667 15 667 15 668 13 c 0,35,36
 669 12 669 12 669 10 c 0,37,38
 669 9 669 9 669.5 8.5 c 128,-1,39
 670 8 670 8 670 7 c 128,-1,40
 670 6 670 6 669 4 c 0,41,42
 669 3 669 3 668 2 c 2,43,-1
 666 0 l 1,44,-1
 663 0 l 1,45,-1
 584 0 l 2,46,47
 528 0 528 0 501 -1 c 2,48,-1
 499 -1 l 2,49,50
 498 -1 498 -1 496 1 c 0,51,52
 495 2 495 2 495 3 c 2,53,-1
 495 4 l 1,54,-1
 494 6 l 2,55,56
 494 8 494 8 496 9 c 2,57,-1
 498 11 l 1,58,-1
 500 11 l 1,59,-1
 512 13 l 2,60,61
 520 15 520 15 525 17 c 0,62,63
 532 20 532 20 535 26 c 0,64,65
 538 30 538 30 540 38 c 0,66,67
 541 40 541 40 541 44.5 c 128,-1,68
 541 49 541 49 542 51 c 0,69,70
 548 98 548 98 548 123 c 0,71,72
 550 187 550 187 542 224 c 0,73,74
 536 245 536 245 530 254 c 0,75,76
 520 271 520 271 508 279 c 0,77,78
 495 288 495 288 476 290 c 0,79,80
 463 293 463 293 444 289 c 0,81,82
 407 283 407 283 368 266 c 1,83,84
 372 251 372 251 372 218 c 2,85,-1
 372 180 l 1,86,-1
 372 156 l 1,87,-1
 372 132 l 2,88,89
 373 100 373 100 373 37 c 0,90,91
 373 34 373 34 375 26 c 0,92,93
 376 20 376 20 381 18 c 0,94,95
 386 14 386 14 391 13 c 0,96,97
 393 13 393 13 396.5 12 c 128,-1,98
 400 11 400 11 402 11 c 2,99,-1
 419 9 l 1,100,-1
 422 9 l 1,101,-1
 423 8 l 1,102,-1
 424 8 l 2,103,104
 426 8 426 8 425 6 c 2,105,-1
 425 3 l 2,106,107
 425 2 425 2 424.5 2 c 128,-1,108
 424 2 424 2 424 1 c 128,-1,109
 424 0 424 0 423 0 c 0,110,111
 422 -1 422 -1 418 -1 c 2,112,-1
 350 -1 l 2,113,114
 324 -1 324 -1 268 -3 c 2,115,-1
 266 -3 l 2,116,117
 265 -3 265 -3 264 -2 c 2,118,-1
 262 0 l 1,119,-1
 261 1 l 1,120,-1
 261 3 l 2,121,122
 261 5 261 5 264 8 c 2,123,-1
 266 9 l 1,124,-1
 268 9 l 1,125,-1
 279 11 l 2,126,127
 289 13 289 13 295 16 c 0,128,129
 304 21 304 21 309 27 c 0,130,131
 314 34 314 34 316 43 c 0,132,133
 318 54 318 54 318 60 c 0,134,135
 320 107 320 107 320 131 c 0,136,137
 320 152 320 152 318 192 c 0,138,139
 316 228 316 228 311 246 c 0,140,141
 307 257 307 257 300 269 c 0,142,143
 293 279 293 279 281 287 c 0,144,145
 261 298 261 298 233 296 c 0,146,147
 213 294 213 294 187 284 c 0,148,149
 170 277 170 277 138 260 c 1,150,-1
 138 52 l 2,151,152
 138 50 138 50 138.5 46.5 c 128,-1,153
 139 43 139 43 139 41 c 0,154,155
 139 35 139 35 142 29 c 0,156,157
 144 25 144 25 149 22 c 0,158,159
 154 18 154 18 160 17 c 2,160,-1
 189 10 l 2,161,162
 190 10 190 10 194 9 c 2,163,-1
 195 8 l 2,164,165
 197 8 197 8 197 7 c 2,166,-1
 197 4 l 1,167,-1
 197 1 l 1,168,-1
 195 -1 l 2,169,170
 194 -2 194 -2 192 -2 c 2,171,-1
 189 -2 l 1,172,-1
 32 0 l 1,173,-1
 29 0 l 2,174,175
 28 0 28 0 27 1 c 2,176,-1
 26 3 l 1,177,-1
 26 6 l 1,178,-1
 26 8 l 1,179,-1
 28 9 l 2,180,181
 29 9 29 9 30.5 10 c 128,-1,182
 32 11 32 11 33 11 c 0,183,184
 47 17 47 17 61 27 c 0,185,186
 71 36 71 36 78 48 c 0,187,188
 83 57 83 57 84 74 c 0,189,190
 88 115 88 115 87 155 c 2,191,-1
 84 231 l 2,192,193
 82 256 82 256 72 268 c 0,194,195
 64 277 64 277 53.5 281.5 c 128,-1,196
 43 286 43 286 32 285 c 2,197,-1
 29 285 l 1,198,-1
 26 285 l 2,199,200
 24 285 24 285 23.5 285.5 c 128,-1,201
 23 286 23 286 23 288 c 2,202,-1
 23 291 l 1,203,-1
 25 293 l 2,204,205
 29 295 29 295 30 295 c 0,206,207
 53 301 53 301 78 311 c 0,208,209
 104 322 104 322 121 335 c 0,210,211
 123 337 123 337 124 337 c 2,212,-1
 125 337 l 1,213,-1
 127 337 l 2,214,215
 129 337 129 337 132 336 c 0,216,217
 135 336 135 336 136 335 c 2,218,-1
 138 333 l 2,219,220
 140 331 140 331 140 330 c 2,221,-1
 140 326 l 1,222,-1
 139 275 l 1,223,224
 166 290 166 290 189 300 c 0,0,1
EndSplineSet
EndChar

